<svg xmlns="http://www.w3.org/2000/svg" width="46.148" height="46.114" viewBox="0 0 46.148 46.114">
  <g id="Group_5472" data-name="Group 5472" transform="translate(-1111.776 -767.12)">
    <path id="Path_1053" data-name="Path 1053" d="M1273.386,0a2.447,2.447,0,0,1,1.757,1.861,9.088,9.088,0,0,1,.068,1.206h.495c2.854,0,5.708,0,8.563-.006a1,1,0,0,1,.79.316c3.008,3.025,6.03,6.036,9.035,9.064a1.1,1.1,0,0,1,.311.688c.019,3.68.014,7.36.012,11.039,0,.131-.015.262-.024.416h-1.533V13.875h-9.2V4.651h-8.476v.527c0,6.143-.022,12.286.018,18.429a2.463,2.463,0,0,1-2.556,2.554c-3.83-.048-7.661-.015-11.492-.015h-.551V44.578h32.233V35.385h1.545V46.114h-35.367V26.143c-1.066,0-2.083.014-3.1,0a2.241,2.241,0,0,1-2.209-1.766,2.812,2.812,0,0,1-.058-.668q0-10.634,0-21.267a2.27,2.27,0,0,1,1.7-2.36.461.461,0,0,0,.106-.077Zm-18.2,13.067q0,5.2,0,10.408c0,.893.231,1.128,1.112,1.128h16.224c.89,0,1.124-.231,1.124-1.116q0-10.408,0-20.816c0-.893-.235-1.133-1.112-1.133h-16.224c-.885,0-1.124.238-1.124,1.121q0,5.2,0,10.408m30.027-.831h6.338l-6.338-6.327Z" transform="translate(-141.871 767.12)" fill="#003149"/>
    <path id="Path_1054" data-name="Path 1054" d="M1571.031,267.388a4.393,4.393,0,0,1-1.267,1.807q-6.189,6.167-12.366,12.347a2.816,2.816,0,0,1-.763.535c-1.189.567-2.393,1.1-3.586,1.662a.813.813,0,0,1-1.032-.107.824.824,0,0,1-.091-1c.578-1.25,1.147-2.5,1.733-3.751a1.986,1.986,0,0,1,.4-.537c4.275-4.281,8.575-8.537,12.822-12.846a2.371,2.371,0,0,1,4.1,1.011c0,.025.037.045.056.068Zm-16.85,14.079a7.947,7.947,0,0,0,2.99-1.863c2.783-2.861,5.63-5.66,8.457-8.478a1.117,1.117,0,0,1,.307-.19l-1.115-1.216a3.77,3.77,0,0,1-.252.308c-2.949,2.951-5.881,5.919-8.863,8.837a9.134,9.134,0,0,0-1.525,2.6m14.546-13.453c.34-.371.886-.646.67-1.256a.933.933,0,0,0-.59-.515c-.563-.114-.806.393-1.16.715l1.08,1.056m-2.678.514,1.071,1.094.436-.418-1.053-1.1-.454.419" transform="translate(-413.106 526.316)" fill="#fd8800"/>
    <path id="Path_1055" data-name="Path 1055" d="M1372.068,321.884a7.7,7.7,0,1,1,7.752-7.659,7.68,7.68,0,0,1-7.752,7.659m6.167-7.7a6.141,6.141,0,1,0-6.154,6.149,6.121,6.121,0,0,0,6.154-6.149" transform="translate(-242.641 488.309)" fill="#fd8800"/>
    <rect id="Rectangle_915" data-name="Rectangle 915" width="9.209" height="1.51" transform="translate(1139.483 786.361)" fill="#fd8800"/>
    <rect id="Rectangle_916" data-name="Rectangle 916" width="9.213" height="1.522" transform="translate(1139.467 789.432)" fill="#fd8800"/>
    <rect id="Rectangle_917" data-name="Rectangle 917" width="9.211" height="1.506" transform="translate(1139.484 792.518)" fill="#fd8800"/>
    <rect id="Rectangle_918" data-name="Rectangle 918" width="9.214" height="1.507" transform="translate(1139.477 783.279)" fill="#fd8800"/>
    <rect id="Rectangle_919" data-name="Rectangle 919" width="1.482" height="1.518" transform="translate(1136.418 786.348)" fill="#fd8800"/>
    <rect id="Rectangle_920" data-name="Rectangle 920" width="1.491" height="1.527" transform="translate(1136.404 789.43)" fill="#fd8800"/>
    <rect id="Rectangle_921" data-name="Rectangle 921" width="1.489" height="1.519" transform="translate(1136.415 792.504)" fill="#fd8800"/>
    <rect id="Rectangle_922" data-name="Rectangle 922" width="1.493" height="1.488" transform="translate(1136.401 783.289)" fill="#fd8800"/>
    <path id="Path_1056" data-name="Path 1056" d="M1295.805,25.29v5.358c-.171.009-.33.026-.488.026q-7.969,0-15.939.008c-.376,0-.526-.071-.518-.489.026-1.5.019-3,0-4.5,0-.327.079-.441.425-.44q8.059.015,16.119.008c.117,0,.234.017.4.03m-1.58,1.578h-13.744v2.224h13.744Z" transform="translate(-164.808 744.148)" fill="#fd8800"/>
    <path id="Path_1057" data-name="Path 1057" d="M1411.349,214.984a7.3,7.3,0,0,1-.066,1.074,1.513,1.513,0,0,1-1.476,1.222,15.514,15.514,0,0,1-1.575,0,1.51,1.51,0,0,1-1.521-1.429,10.492,10.492,0,0,1,.01-1.841,1.5,1.5,0,0,1,1.517-1.376c.51-.017,1.021-.016,1.531,0a1.561,1.561,0,0,1,1.562,1.584c.005.255,0,.51,0,.765h.018m-1.6-.747h-1.452v1.449h1.452Z" transform="translate(-281.082 573.694)" fill="#003149"/>
    <path id="Path_1058" data-name="Path 1058" d="M1408.971,157.589a6.813,6.813,0,0,1-.988-.008,1.47,1.47,0,0,1-1.274-1.373,11.176,11.176,0,0,1-.008-1.8,1.478,1.478,0,0,1,1.462-1.433,11.6,11.6,0,0,1,1.664,0,1.536,1.536,0,0,1,1.5,1.636q.006.675,0,1.35a1.563,1.563,0,0,1-1.634,1.645c-.24,0-.48,0-.72,0,0-.006,0-.012,0-.018m-.69-1.543c.439,0,.854.011,1.268-.01a.3.3,0,0,0,.206-.213c.021-.414.01-.829.01-1.26h-1.484Z" transform="translate(-281.076 627.982)" fill="#003149"/>
    <path id="Path_1059" data-name="Path 1059" d="M1289.917,212.368a8.741,8.741,0,0,1,1.157.11,1.394,1.394,0,0,1,1.125,1.3,13.677,13.677,0,0,1,.02,1.753,1.537,1.537,0,0,1-1.569,1.525c-.494.019-.991.02-1.485,0a1.557,1.557,0,0,1-1.568-1.621q-.006-.7,0-1.4a1.563,1.563,0,0,1,1.6-1.636c.24-.006.48,0,.72,0l0-.031m-.749,3.073h1.463v-1.429h-1.463Z" transform="translate(-172.751 573.926)" fill="#003149"/>
    <path id="Path_1060" data-name="Path 1060" d="M1351.923,214.956c0,.225,0,.45,0,.675a1.546,1.546,0,0,1-1.562,1.619c-.494.02-.99.02-1.485,0a1.544,1.544,0,0,1-1.564-1.616c-.008-.495-.01-.99,0-1.485a1.525,1.525,0,0,1,1.491-1.545c.539-.024,1.081-.024,1.62,0a1.532,1.532,0,0,1,1.5,1.543c.006.27,0,.54,0,.81m-1.555-.742h-1.491v1.427h1.491Z" transform="translate(-227.074 573.728)" fill="#003149"/>
    <path id="Path_1061" data-name="Path 1061" d="M1289.7,157.72c-1.625.137-2.432-.494-2.286-2.3.019-.238,0-.48,0-.72a1.5,1.5,0,0,1,1.426-1.6,10.821,10.821,0,0,1,1.929.029,1.387,1.387,0,0,1,1.249,1.326,12.846,12.846,0,0,1,0,1.886,1.49,1.49,0,0,1-1.509,1.377c-.27.008-.54,0-.81,0m-.709-1.6h1.457V154.67H1289Z" transform="translate(-172.577 627.87)" fill="#003149"/>
    <path id="Path_1062" data-name="Path 1062" d="M1347.358,155.563c0-.3-.013-.6,0-.9a1.408,1.408,0,0,1,1.208-1.364,11.3,11.3,0,0,1,2.149,0,1.413,1.413,0,0,1,1.24,1.429c.013.54.012,1.08,0,1.619a1.524,1.524,0,0,1-1.546,1.534c-.495.01-.99.008-1.485,0a1.529,1.529,0,0,1-1.576-1.551c-.007-.255,0-.51,0-.765h.006m1.559.73h1.476v-1.461h-1.476Z" transform="translate(-227.113 627.709)" fill="#003149"/>
    <path id="Path_1063" data-name="Path 1063" d="M1409.094,93.685c.27,0,.54-.008.81,0a1.521,1.521,0,0,1,1.51,1.523c.013.525.014,1.05,0,1.575a1.521,1.521,0,0,1-1.527,1.506c-.54.01-1.08.011-1.62,0a1.432,1.432,0,0,1-1.444-1.279,10.531,10.531,0,0,1-.014-1.972,1.455,1.455,0,0,1,1.52-1.354c.255-.007.51,0,.765,0Zm-.717,3.046h1.45V95.239h-1.45Z" transform="translate(-281.168 681.897)" fill="#003149"/>
    <path id="Path_1064" data-name="Path 1064" d="M1349.559,98.255c-.24,0-.48,0-.72,0a1.49,1.49,0,0,1-1.528-1.491q-.023-.809,0-1.619a1.478,1.478,0,0,1,1.477-1.494q.831-.024,1.664,0a1.478,1.478,0,0,1,1.46,1.464q.021.831,0,1.664a1.487,1.487,0,0,1-1.454,1.472c-.3.01-.6,0-.9,0v0m-.692-1.559h1.486V95.218h-1.486Z" transform="translate(-227.068 681.936)" fill="#003149"/>
    <path id="Path_1065" data-name="Path 1065" d="M1289.866,93.7c.3,0,.6-.014.9,0a1.424,1.424,0,0,1,1.369,1.256,12.86,12.86,0,0,1,0,2.063,1.425,1.425,0,0,1-1.4,1.275c-.569.017-1.14.016-1.709,0a1.5,1.5,0,0,1-1.475-1.46c-.018-.539-.012-1.08,0-1.619a1.512,1.512,0,0,1,1.506-1.523c.27-.009.54,0,.81,0v0m.715,1.567h-1.445v1.486h1.445Z" transform="translate(-172.704 681.884)" fill="#003149"/>
    <path id="Path_1066" data-name="Path 1066" d="M1417.5,340.689h1.513v.811c1.182.337,2.158.843,2.328,2.284-.5,0-.953,0-1.409-.005a.3.3,0,0,1-.176-.11,2.147,2.147,0,0,0-2.657-.375c-.486.3-.5.7.025.936a4.034,4.034,0,0,0,1.3.293,3.824,3.824,0,0,1,1.942.621,1.953,1.953,0,0,1,0,3.373,9.99,9.99,0,0,1-1.322.641c-.01.2-.024.468-.038.75h-1.517c-.012-.275-.024-.526-.036-.805-1.142-.33-2.123-.838-2.318-2.276.508,0,.977,0,1.445.006.058,0,.125.07.171.122a2.156,2.156,0,0,0,2.7.317c.416-.288.437-.647-.031-.856a4.594,4.594,0,0,0-1.418-.338,3.774,3.774,0,0,1-1.966-.685,1.932,1.932,0,0,1,0-3.238,2.954,2.954,0,0,1,.952-.486c.387-.1.565-.267.49-.672a1.3,1.3,0,0,1,.026-.308" transform="translate(-288.775 457.19)" fill="#fd8800"/>
  </g>
</svg>
