<svg xmlns="http://www.w3.org/2000/svg" width="61.566" height="61.566" viewBox="0 0 61.566 61.566">
  <g id="Group_5269" data-name="Group 5269" transform="translate(-479.217 -1691.75)">
    <path id="Path_1018" data-name="Path 1018" d="M30.533,1.25A29.283,29.283,0,1,0,59.816,30.533,29.282,29.282,0,0,0,30.533,1.25Z" transform="translate(479.467 1692)" fill="none" stroke="#002639" stroke-linecap="round" stroke-linejoin="round" stroke-width="3"/>
    <path id="Path_1019" data-name="Path 1019" d="M30.521,15.09a1.793,1.793,0,0,0-1.9,1.16l.056-.136-3.763,7.53c-.033.069-.015.038-.027.056l-8.191,1.259.159-.013a2.01,2.01,0,0,0-1.839,1.276,2.076,2.076,0,0,0,.471,2.184h.008l6.375,6.175v.109l-1.444,8.06.017-.069a2.034,2.034,0,0,0,.738,2.1,2.154,2.154,0,0,0,2.207.138h.008L30.7,41.15c.069-.033.077-.021.073-.021l7.35,3.78-.1-.063a2.03,2.03,0,0,0,3.06-2.167L39.638,34.6l5.775-5.775a2.138,2.138,0,0,0,.479-2.19A2.273,2.273,0,0,0,44.3,25.185l-.048-.011L36.273,23.95a1.66,1.66,0,0,1-.387-.3L32.221,16.32l.077.213A1.99,1.99,0,0,0,30.52,15.09Z" transform="translate(479.467 1692)" fill="none" stroke="#fd8800" stroke-linecap="round" stroke-linejoin="round" stroke-width="3"/>
  </g>
</svg>
