<svg xmlns="http://www.w3.org/2000/svg" xmlns:xlink="http://www.w3.org/1999/xlink" preserveRatio="meet"  viewBox="0 0 418 359">
  <defs>
    <clipPath id="clip-path">
      <rect id="Rectangle_945" data-name="Rectangle 945" width="100%" height="100%" transform="translate(-6483 -12355)" fill="#efefef"/>
    </clipPath>
  </defs>
  <g id="Mask_Group_109" data-name="Mask Group 109" transform="translate(6483 12355)" clip-path="url(#clip-path)">
    <g id="rTmZyy" transform="translate(-7160.967 -12522.771)">
      <g id="Group_5521" data-name="Group 5521" transform="translate(674.088 149.083)">
        <path id="Path_1214" data-name="Path 1214" d="M886.258,546.34q-103.544,0-207.089.118c-4.232.01-5.085-.853-5.081-5.082q.213-193.607,0-387.213c0-4.229.85-5.084,5.081-5.079q207.8.211,415.6,0c4.229,0,5.085.85,5.081,5.079q-.213,193.607,0,387.213c0,4.229-.85,5.092-5.081,5.082Q990.513,546.209,886.258,546.34Zm76-255.34c1.581-12.834,4.93-25.527,4-38.571-1.621-22.794-9.734-41.768-32.116-51.723-1.848-.822-3.283-1.713-4-3.629-6.636-17.72-21.548-24.6-38.195-29.356-4.524-1.291-8.014-1.475-10.342,3.609-1.832,4-5.863,6.112-9.348,8.456-2.428,1.632-5.633,4.637-8.175,2.8-2.6-1.882,1.074-4.92,1.239-7.587.023-.37-.363-.766-.833-1.682-14.124,5.969-28.544,11.338-34.665,27.545a8.7,8.7,0,0,1-3.172,3.671C804.7,219.749,799.123,241.4,801.54,266.592c.746,7.79,3.054,15.261,3.566,23.038-2.921.866-3.863,3.419-4.5,5.875-4.2,16.094-.366,31.1,6.835,45.448,1.266,2.522,3.606,5.082,7.041,5.37,3.288.275,4.035,2.293,4.486,5.2,1.641,10.562,4.929,20.889,11.186,29.357,5.666,7.668,6.686,15.063,4.344,23.641-9.063,6.067-17.54,12.781-24.094,21.65-5.614,7.6-12.719,11.87-22.3,14.305-23.137,5.883-45.5,14.367-65.79,27.314-11.649,7.437-22.963,15.764-25.023,30.814-1.049,7.665-.478,15.571-.387,23.367.119,10.171.229,10.177,10.46,10.177q176.585,0,353.174,0c15.242,0,14.8-.016,15.361-15.344.525-14.457-2.457-27.224-13.84-36.981A127.185,127.185,0,0,0,1038,463.7c-18.716-9.767-38.42-16.945-58.716-22.56-8.122-2.247-14.774-5.734-20.278-12.9-6.822-8.881-14.781-17.2-25.094-22.525-3.017-4.837-.918-10.221-1.635-15.3,7.79-12.692,13.98-26.041,16.8-40.782.329-1.723,1.1-2.956,3.122-3.288,5.447-.893,7.722-5.549,9.479-9.675,4.751-11.146,7.114-22.944,5.982-35.108C967.287,297.63,967.241,292.872,962.257,291Z" transform="translate(-674.088 -149.083)" fill="#f5f5f5"/>
        <path id="Path_1215" data-name="Path 1215" d="M927.241,330.264c10.312,5.331,18.271,13.648,25.093,22.53,5.5,7.164,12.156,10.651,20.278,12.9,20.3,5.614,40,12.793,58.716,22.56a127.186,127.186,0,0,1,24.057,16.126c11.383,9.757,14.365,22.524,13.84,36.981-.558,15.329-.119,15.344-15.361,15.344q-176.588,0-353.174,0c-10.231,0-10.34-.006-10.46-10.177-.091-7.8-.661-15.7.387-23.367,2.061-15.049,13.375-23.377,25.023-30.814,20.286-12.947,42.653-21.431,65.79-27.314,9.584-2.435,16.688-6.707,22.3-14.306,6.554-8.869,15.031-15.583,24.094-21.65,2.915,7.039,1.553,14.467,1.081,21.559-.573,8.606,3,13.85,9.822,17.879,4.869,2.875,9.686,5.843,14.534,8.756a52.556,52.556,0,0,1,18.728,18.865c1.565,2.687.837,7.759,4.909,7.686,3.5-.061,3.473-5.118,5.726-7.448.422-.437.366-1.334.532-2.018a5.009,5.009,0,0,0,2.9-4.285c8.088-8.614,17.94-14.9,27.866-21.079A32.3,32.3,0,0,0,923,360.327q.688-.715,1.379-1.429c2.65-4.587.678-9.6,1.318-14.365C926.337,339.788,924.082,334.733,927.241,330.264ZM876.715,408.95c.149-.088.379-.145.427-.272.06-.153-.031-.366-.058-.554l-.671.369Z" transform="translate(-667.421 -73.631)" fill="#bababa"/>
        <path id="Path_1216" data-name="Path 1216" d="M852.973,450.384c-.166.684-.111,1.581-.532,2.018-2.254,2.33-2.231,7.387-5.726,7.448-4.072.072-3.344-5-4.909-7.686A52.556,52.556,0,0,0,823.077,433.3c-4.848-2.914-9.665-5.881-14.534-8.756-6.822-4.029-10.4-9.273-9.822-17.879.471-7.092,1.834-14.52-1.081-21.559,2.342-8.578,1.321-15.973-4.344-23.641-6.257-8.468-9.545-18.8-11.186-29.358-.451-2.911-1.2-4.929-4.486-5.2-3.434-.288-5.775-2.848-7.041-5.37-7.2-14.348-11.037-29.355-6.835-45.448.642-2.457,1.584-5.01,4.5-5.877,2.884,10.654,5.712,21.325,8.724,31.945.4,1.428.221,3.776,2.251,4.008,2.39.273,3.037-2.1,3.549-3.765a38.926,38.926,0,0,0,2-12.507,188.813,188.813,0,0,1,2.905-40.825c4.232-21.924,17.113-35.548,38.06-39.539,10-1.906,20.168-2.015,30.321-1.756,12.526.321,25.233,1.266,32.955-12.351-1.893,19.676,2.252,38.694,13.535,53.692,5.678,7.549,7.725,15.2,7.25,24.277-.43,8.245-.2,16.539.05,24.8.084,2.712.625,6.425,3.9,6.633,2.508.159,2.7-3.379,3.362-5.531,2.819-9.221,5.538-18.472,8.292-27.713,4.984,1.872,5.03,6.63,5.4,10.564,1.133,12.164-1.23,23.962-5.982,35.108-1.757,4.126-4.032,8.782-9.479,9.675-2.022.332-2.793,1.565-3.122,3.288-2.819,14.741-9.009,28.09-16.8,40.781-2.6,2.357-5.227,4.7-7.813,7.078-23.669,21.8-56.717,22.893-80.02.754-1.34-1.274-2.269-3.765-5.7-2.5,14.743,21.3,33.915,34.87,59.574,38.578.223,1.416.6,2.738,2.447,2.513,1.426-.174,1.6-1.372,1.8-2.495l24.06-.092,3.044,1.533a32.332,32.332,0,0,1-9.08,8.663c-9.926,6.183-19.778,12.465-27.867,21.079C852.948,446.2,852.924,448.27,852.973,450.384Z" transform="translate(-637.233 -129.66)" fill="#e0e0e0"/>
        <path id="Path_1217" data-name="Path 1217" d="M924.765,285.722c-2.755,9.24-5.474,18.492-8.292,27.713-.659,2.152-.854,5.69-3.362,5.531-3.271-.209-3.812-3.921-3.9-6.633-.254-8.263-.48-16.556-.05-24.8.474-9.081-1.572-16.728-7.25-24.277-11.283-15-15.428-34.017-13.535-53.692-7.722,13.617-20.429,12.672-32.955,12.351-10.153-.26-20.317-.15-30.321,1.756-20.947,3.991-33.828,17.615-38.06,39.539a188.813,188.813,0,0,0-2.905,40.825,38.926,38.926,0,0,1-2,12.507c-.512,1.668-1.16,4.038-3.549,3.765-2.03-.231-1.846-2.58-2.251-4.008-3.012-10.62-5.84-21.291-8.724-31.945-.508-7.776-2.816-15.246-3.562-23.036-2.417-25.192,3.156-46.843,25.114-62.061a8.7,8.7,0,0,0,3.172-3.671c6.121-16.207,20.542-21.576,34.665-27.545.47.915.856,1.311.833,1.682-.165,2.667-3.842,5.705-1.239,7.587,2.542,1.839,5.746-1.165,8.174-2.8,3.486-2.343,7.516-4.452,9.348-8.456,2.328-5.084,5.817-4.9,10.342-3.609,16.647,4.757,31.559,11.636,38.195,29.356.717,1.916,2.151,2.807,4,3.629,22.382,9.954,30.5,28.929,32.116,51.723C929.7,260.195,926.346,272.888,924.765,285.722Z" transform="translate(-636.596 -143.805)" fill="#a8a8a8"/>
        <path id="Path_1218" data-name="Path 1218" d="M877.992,362.964l-24.06.092-4.25-.018c-25.659-3.708-44.831-17.283-59.574-38.578,3.429-1.262,4.358,1.229,5.7,2.5,23.3,22.139,56.351,21.048,80.02-.754,2.586-2.38,5.208-4.72,7.813-7.078.715,5.084-1.384,10.468,1.634,15.3-3.158,4.466-.9,9.521-1.54,14.266-.64,4.768,1.331,9.778-1.32,14.365C880.978,361.259,879.506,361.191,877.992,362.964Z" transform="translate(-625.453 -77.799)" fill="#cdcbcc"/>
        <path id="Path_1219" data-name="Path 1219" d="M852.033,350.4c1.514-1.773,2.986-1.7,4.421.1q-.69.713-1.378,1.429Z" transform="translate(-599.494 -65.234)" fill="#e0e0e0"/>
        <path id="Path_1220" data-name="Path 1220" d="M826.106,376.339c-.048-2.115-.024-4.18,2.9-4.285A5,5,0,0,1,826.106,376.339Z" transform="translate(-610.367 -55.614)" fill="#e0e0e0"/>
        <path id="Path_1221" data-name="Path 1221" d="M821.651,385.6l-.3-.457.671-.369c.027.187.118.4.058.553C822.03,385.456,821.8,385.513,821.651,385.6Z" transform="translate(-612.357 -50.282)" fill="#e0e0e0"/>
        <path id="Path_1222" data-name="Path 1222" d="M832.085,350.069l4.25.018c-.2,1.123-.378,2.32-1.8,2.495C832.684,352.807,832.308,351.485,832.085,350.069Z" transform="translate(-607.856 -64.83)" fill="#e0e0e0"/>
      </g>
    </g>
  </g>
</svg>
