<svg xmlns="http://www.w3.org/2000/svg" width="66.687" height="66.674" viewBox="0 0 66.687 66.674">
  <g id="Group_5474" data-name="Group 5474" transform="translate(-1089.181 -1590.948)">
    <path id="Path_1091" data-name="Path 1091" d="M1784.513,0a1.422,1.422,0,0,1,.663,1.372c-.042,1.17-.011,2.343-.013,3.515,0,.905-.153,1.118-1.011,1.422V8.766c.26-.129.47-.224.67-.334,3.624-2,7.254-3.984,10.864-6.007a1.714,1.714,0,0,1,1.871-.009q14.723,8.15,29.469,16.258a1.444,1.444,0,0,1,.867,1.444c-.04,1.518-.011,3.038-.013,4.557,0,1.282-.725,1.7-1.866,1.079-1.08-.59-2.155-1.191-3.321-1.836V41.626h-2.1c0-.277,0-.532,0-.786,0-5.815-.006-11.631.012-17.446a.933.933,0,0,0-.562-.955q-11.423-6.271-22.824-12.583a1.05,1.05,0,0,0-1.179.006q-11.424,6.328-22.87,12.616a.79.79,0,0,0-.516.783q.021,14.192.012,28.383c0,.126.013.252.021.407h2.064v-.744q0-12.434,0-24.868c0-1.163.281-1.438,1.466-1.438q6.935,0,13.869,0c1,0,1.333.326,1.333,1.311q0,7.356,0,14.712v.606h-2.054V27.125h-12.5V52.056h2.008v2.11h-11.85c-.174,0-.348-.008-.521,0a1.042,1.042,0,1,0-.007,2.078c.173.011.347,0,.521,0h11.866v2.035c-.159.015-.324.045-.489.045q-5.99,0-11.981,0a3.125,3.125,0,0,1-.622-6.19,13.659,13.659,0,0,1,2.208-.055c.84-.006,1.681,0,2.551,0V23.944c-.589.319-1.146.619-1.7.922-.589.322-1.171.656-1.766.967-.957.5-1.7.058-1.708-1.013-.007-1.584.019-3.169-.012-4.752a1.35,1.35,0,0,1,.8-1.347c2.342-1.272,4.663-2.581,7.006-3.851a.869.869,0,0,0,.552-.889c-.026-2.538-.013-5.076-.013-7.676-.926-.151-1.088-.789-1.053-1.615.046-1.1.042-2.214,0-3.319A1.414,1.414,0,0,1,1773.313,0Zm-17.061,23.19c.259-.129.451-.215.634-.316Q1781.8,15.312,1795.5,7.731a2.065,2.065,0,0,1,2.274,0q13.657,7.582,27.348,15.1c.2.111.41.206.68.341,0-.768-.026-1.458.009-2.146a.856.856,0,0,0-.528-.91q-14.035-7.714-28.049-15.468a1.051,1.051,0,0,0-1.18-.015c-4.6,2.557-9.21,5.087-13.817,7.627q-7.138,3.936-14.268,7.887c-.212.118-.477.367-.492.572-.057.791-.023,1.589-.023,2.462m8.369-16.914V13.4c2.048-1.13,4.03-2.221,6-3.326a.479.479,0,0,0,.2-.35c.016-1.14.009-2.28.009-3.444Zm7.206-4.149H1774.8V4.155h8.231Z" transform="translate(-674.098 1590.948)" fill="#003149"/>
    <path id="Path_1092" data-name="Path 1092" d="M1941.208,353.933c-.086.24-.175.479-.256.721a5.164,5.164,0,0,1-4.92,3.573q-18.133.006-36.266.01a1.384,1.384,0,0,1-1.25-.649q-3.493-5.017-7.011-10.016a1.24,1.24,0,0,1,0-1.6q3.539-5.025,7.051-10.068a1.28,1.28,0,0,1,1.146-.593q18.231.012,36.462.01a5.194,5.194,0,0,1,4.893,3.878c.039.141.1.276.151.414Zm-47.676-7.163c2.149,3.071,4.268,6.111,6.412,9.132a.918.918,0,0,0,.667.235q17.578.017,35.155.007a3.164,3.164,0,0,0,3.357-3.4q.009-5.955,0-11.911a3.18,3.18,0,0,0-3.456-3.435q-3.581-.005-7.161,0-13.9,0-27.8.013a1.123,1.123,0,0,0-.815.316c-2.127,2.983-4.221,5.989-6.361,9.045" transform="translate(-785.34 1299.384)" fill="#003149"/>
    <path id="Path_1093" data-name="Path 1093" d="M2007.469,191.624q4.62,0,9.241,0a3.075,3.075,0,0,1,3.2,3.18q.007,4.131,0,8.263a3.071,3.071,0,0,1-3.119,3.135q-9.371.008-18.742,0a3.073,3.073,0,0,1-3.139-3.115q-.011-4.164,0-8.328a3.072,3.072,0,0,1,3.119-3.134c3.146-.007,6.291,0,9.436,0m-10.472,6.2h7.239v-4.12c-2.069,0-4.085-.011-6.1.006A1.044,1.044,0,0,0,1997,194.8c-.028.994-.007,1.989-.007,3.029m20.837.018c0-.959,0-1.865,0-2.772-.006-.99-.384-1.364-1.386-1.367q-2.667-.006-5.334,0c-.185,0-.37.024-.538.036v4.1Zm-13.583,6.27V200h-7.257c0,.213,0,.383,0,.554,0,.824-.017,1.648.009,2.471a1.01,1.01,0,0,0,1,1.08c2.075.03,4.151.011,6.251.011m6.328-4.147v4.151c2.1,0,4.151.012,6.206-.008a.932.932,0,0,0,1-.853c.064-1.09.019-2.186.019-3.29Zm-4.178,4.12h2.016V193.753H2006.4Z" transform="translate(-875.51 1424.325)" fill="#fd8800"/>
    <path id="Path_1094" data-name="Path 1094" d="M1985.608,389.2l1.621,4.088-1.949.791c-.551-1.372-1.11-2.7-1.614-4.052a.681.681,0,0,0-.8-.533c-.579.039-1.163.01-1.816.01v4.134H1979c-.012-.181-.036-.367-.036-.554q0-4.262,0-8.524c0-.981.333-1.3,1.338-1.3q1.855,0,3.71,0a3.13,3.13,0,0,1,1.832,5.777c-.069.049-.137.1-.229.168m-4.544-1.782c1.065,0,2.06.019,3.054-.007a1.064,1.064,0,0,0,1.08-1,1.03,1.03,0,0,0-.958-1.047c-1.051-.042-2.105-.012-3.176-.012Z" transform="translate(-861.639 1257.692)" fill="#fd8800"/>
    <path id="Path_1095" data-name="Path 1095" d="M2124.728,388.162v5.414h-2.063v-.616c0-2.819.009-5.638-.007-8.457,0-.6.136-1.1.758-1.273a1.129,1.129,0,0,1,1.332.668c.985,1.6,1.994,3.2,3.09,4.944v-5.6h2.09c.01.172.028.339.028.505,0,2.862-.007,5.725.008,8.587,0,.582-.148,1.051-.73,1.23a1.109,1.109,0,0,1-1.344-.635c-.9-1.456-1.813-2.9-2.723-4.35-.1-.157-.207-.309-.31-.464l-.128.049" transform="translate(-986.593 1257.755)" fill="#fd8800"/>
    <path id="Path_1096" data-name="Path 1096" d="M2057.018,389.479h-4.075v2.069h5.125v2.1h-1.456c-1.236,0-2.473.007-3.709,0a2.037,2.037,0,0,1-2.089-2.1q-.012-3.123,0-6.246a2.013,2.013,0,0,1,1.919-2.06c1.756-.027,3.512-.007,5.319-.007V385.3h-5.124v2.069h4.09Z" transform="translate(-924.116 1257.72)" fill="#fd8800"/>
    <path id="Path_1097" data-name="Path 1097" d="M2196.9,385.628h-2.076v-2.021h6.183v2.008h-2.035v8.328H2196.9Z" transform="translate(-1049.347 1257.386)" fill="#fd8800"/>
  </g>
</svg>
