<svg xmlns="http://www.w3.org/2000/svg" xmlns:xlink="http://www.w3.org/1999/xlink" width="239.15" height="76.685" viewBox="0 0 239.15 76.685">
  <defs>
    <clipPath id="clip-path">
      <rect id="Rectangle_735" data-name="Rectangle 735" width="239.15" height="76.684" fill="none"/>
    </clipPath>
  </defs>
  <g id="Group_5515" data-name="Group 5515" transform="translate(-216 -3149.5)">
    <path id="Path_910" data-name="Path 910" d="M21.086,24.508V37.8H4.28v-13.3H0v32.38H4.28V41.628H21.086v15.26h4.285V24.508Z" transform="translate(216 3145.054)" fill="#161615"/>
    <g id="Group_5067" data-name="Group 5067" transform="translate(216 3149.5)">
      <g id="Group_5066" data-name="Group 5066" clip-path="url(#clip-path)">
        <path id="Path_911" data-name="Path 911" d="M41.407,47.021q0-6.515,3.617-9.65A10.882,10.882,0,0,1,52.4,34.765a10.5,10.5,0,0,1,7.888,3.168q3.063,3.171,3.067,8.76A15.544,15.544,0,0,1,62,53.81a9.627,9.627,0,0,1-3.949,4.035A11.565,11.565,0,0,1,52.4,59.279a10.514,10.514,0,0,1-7.953-3.16q-3.036-3.157-3.035-9.1m4.083,0q0,4.509,1.958,6.747a6.541,6.541,0,0,0,9.862-.011q1.965-2.252,1.963-6.863c0-2.905-.662-5.1-1.975-6.6a6.55,6.55,0,0,0-9.85-.013c-1.3,1.493-1.958,3.733-1.958,6.736" transform="translate(-7.513 -6.308)" fill="#161615"/>
        <path id="Path_912" data-name="Path 912" d="M78.043,58.75V35.3h3.548v3.29a8.4,8.4,0,0,1,2.933-2.768,8.249,8.249,0,0,1,4.167-1.053,7.724,7.724,0,0,1,4.272,1.081,5.822,5.822,0,0,1,2.354,3.029,8.4,8.4,0,0,1,7.225-4.11A7.147,7.147,0,0,1,107.9,36.7q1.874,1.94,1.879,5.955v16.1h-3.956V43.977a10.8,10.8,0,0,0-.383-3.435,3.3,3.3,0,0,0-1.4-1.69,4.362,4.362,0,0,0-2.379-.643,5.53,5.53,0,0,0-4.1,1.646Q95.926,41.5,95.93,45.126V58.75H91.96V43.517a6.718,6.718,0,0,0-.972-3.979A3.67,3.67,0,0,0,87.81,38.21a5.713,5.713,0,0,0-3.1.891,4.957,4.957,0,0,0-2.065,2.578,14.675,14.675,0,0,0-.638,4.9V58.75Z" transform="translate(-14.161 -6.308)" fill="#161615"/>
        <path id="Path_913" data-name="Path 913" d="M143.892,51.2l4.1.506a10.019,10.019,0,0,1-3.591,5.589,10.8,10.8,0,0,1-6.707,1.987,10.677,10.677,0,0,1-8.146-3.173q-3.012-3.167-3.013-8.885,0-5.922,3.043-9.186a10.281,10.281,0,0,1,7.889-3.271,10.018,10.018,0,0,1,7.683,3.2q2.978,3.2,2.979,9.014c0,.228-.007.584-.025,1.058H130.632a9.086,9.086,0,0,0,2.183,5.919,6.509,6.509,0,0,0,4.9,2.05,6.041,6.041,0,0,0,3.725-1.147,7.594,7.594,0,0,0,2.449-3.662m-13.035-6.428h13.078a7.932,7.932,0,0,0-1.5-4.439,6.088,6.088,0,0,0-4.915-2.294,6.293,6.293,0,0,0-4.6,1.831,7.237,7.237,0,0,0-2.062,4.9" transform="translate(-22.959 -6.308)" fill="#161615"/>
        <path id="Path_914" data-name="Path 914" d="M148.471,51.642l.573,3.514a14.69,14.69,0,0,1-2.991.35,6.884,6.884,0,0,1-3.359-.683,3.814,3.814,0,0,1-1.67-1.8,14.106,14.106,0,0,1-.489-4.694V26.478H35.272V23.383H140.535v-5.81l3.944-2.384v8.194h3.991v3.095h-3.991V48.546a6.81,6.81,0,0,0,.214,2.186,1.623,1.623,0,0,0,.678.776,2.647,2.647,0,0,0,1.361.289,13.128,13.128,0,0,0,1.738-.155" transform="translate(-6.4 -2.756)" fill="#161615"/>
        <path id="Path_915" data-name="Path 915" d="M198.19,51.2l4.107.506a10.02,10.02,0,0,1-3.6,5.589,12.168,12.168,0,0,1-14.858-1.186q-3.007-3.167-3.01-8.885,0-5.922,3.053-9.186a10.272,10.272,0,0,1,7.89-3.271,10.008,10.008,0,0,1,7.676,3.2q2.984,3.2,2.975,9.014c0,.228-.007.584-.021,1.058H184.935a9.047,9.047,0,0,0,2.181,5.919,6.511,6.511,0,0,0,4.9,2.05,6.037,6.037,0,0,0,3.726-1.147A7.544,7.544,0,0,0,198.19,51.2m-13.038-6.428h13.08a7.926,7.926,0,0,0-1.5-4.439,6.069,6.069,0,0,0-4.908-2.294,6.285,6.285,0,0,0-4.605,1.831,7.251,7.251,0,0,0-2.065,4.9" transform="translate(-32.811 -6.308)" fill="#161615"/>
        <path id="Path_916" data-name="Path 916" d="M232.263,55.857A14.561,14.561,0,0,1,228.02,58.5a12.236,12.236,0,0,1-4.378.775,8.491,8.491,0,0,1-5.925-1.888,6.234,6.234,0,0,1-2.084-4.824,6.368,6.368,0,0,1,.787-3.147,6.581,6.581,0,0,1,2.049-2.29,9.787,9.787,0,0,1,2.851-1.3,28.651,28.651,0,0,1,3.53-.6,35.994,35.994,0,0,0,7.087-1.374c.016-.54.02-.885.02-1.032a4.384,4.384,0,0,0-1.127-3.425,6.606,6.606,0,0,0-4.523-1.343,7.028,7.028,0,0,0-4.133.978,5.988,5.988,0,0,0-1.972,3.476l-3.886-.526a9.59,9.59,0,0,1,1.747-4.031,7.694,7.694,0,0,1,3.5-2.365,15.61,15.61,0,0,1,5.313-.828,13.847,13.847,0,0,1,4.875.713,6.261,6.261,0,0,1,2.759,1.776,6.15,6.15,0,0,1,1.238,2.7,22.7,22.7,0,0,1,.2,3.664v5.3a56.1,56.1,0,0,0,.254,7.007,8.624,8.624,0,0,0,1,2.817h-4.148a8.593,8.593,0,0,1-.8-2.893m-.325-8.876a29.518,29.518,0,0,1-6.489,1.5,15.313,15.313,0,0,0-3.463.8,3.479,3.479,0,0,0-.911,5.831,5.165,5.165,0,0,0,3.516,1.061,8.078,8.078,0,0,0,4.077-1.016,6.183,6.183,0,0,0,2.632-2.74,9.688,9.688,0,0,0,.638-3.981Z" transform="translate(-39.126 -6.308)" fill="#161615"/>
        <path id="Path_917" data-name="Path 917" d="M252.1,58.75V35.3h3.554v3.29a8.444,8.444,0,0,1,2.933-2.768,8.254,8.254,0,0,1,4.172-1.053,7.682,7.682,0,0,1,4.263,1.081,5.69,5.69,0,0,1,2.349,3.029,8.415,8.415,0,0,1,7.231-4.11A7.157,7.157,0,0,1,281.97,36.7q1.877,1.94,1.878,5.955v16.1H279.9V43.977a10.84,10.84,0,0,0-.392-3.435,3.312,3.312,0,0,0-1.406-1.69,4.342,4.342,0,0,0-2.372-.643,5.563,5.563,0,0,0-4.107,1.646q-1.632,1.648-1.636,5.271V58.75h-3.961V43.517a6.717,6.717,0,0,0-.973-3.979,3.676,3.676,0,0,0-3.181-1.329,5.668,5.668,0,0,0-3.09.891,4.943,4.943,0,0,0-2.066,2.578,14.612,14.612,0,0,0-.643,4.9V58.75Z" transform="translate(-45.743 -6.308)" fill="#161615"/>
        <path id="Path_918" data-name="Path 918" d="M58.871,86.548V74.263H63.5a11.186,11.186,0,0,1,1.867.124,3.63,3.63,0,0,1,1.514.571,3.045,3.045,0,0,1,.981,1.186,3.756,3.756,0,0,1,.377,1.676,3.808,3.808,0,0,1-1,2.652c-.665.721-1.863,1.086-3.6,1.086H60.492v4.991Zm1.621-6.442h3.174A3.358,3.358,0,0,0,65.9,79.52a2.091,2.091,0,0,0,.667-1.649,2.221,2.221,0,0,0-.395-1.324,1.8,1.8,0,0,0-1.023-.721,6.964,6.964,0,0,0-1.517-.11H60.492Z" transform="translate(-10.682 -13.474)" fill="#003149"/>
        <path id="Path_919" data-name="Path 919" d="M74.147,87.255v-8.9H75.5v1.351a3.623,3.623,0,0,1,.958-1.249,1.678,1.678,0,0,1,.966-.305,2.908,2.908,0,0,1,1.544.49l-.515,1.4a2.142,2.142,0,0,0-1.1-.325,1.447,1.447,0,0,0-.888.3,1.633,1.633,0,0,0-.557.823,5.794,5.794,0,0,0-.253,1.762v4.658Z" transform="translate(-13.454 -14.18)" fill="#003149"/>
        <path id="Path_920" data-name="Path 920" d="M82,82.807a4.59,4.59,0,0,1,1.374-3.661,4.122,4.122,0,0,1,2.8-.994,3.979,3.979,0,0,1,2.989,1.206,4.567,4.567,0,0,1,1.163,3.318,5.828,5.828,0,0,1-.516,2.707,3.628,3.628,0,0,1-1.5,1.524,4.323,4.323,0,0,1-2.141.548,4.006,4.006,0,0,1-3.024-1.2A4.793,4.793,0,0,1,82,82.807m1.55,0a3.777,3.777,0,0,0,.742,2.559,2.392,2.392,0,0,0,1.879.848,2.359,2.359,0,0,0,1.861-.855,3.856,3.856,0,0,0,.748-2.6,3.684,3.684,0,0,0-.752-2.5,2.372,2.372,0,0,0-1.856-.853,2.4,2.4,0,0,0-1.879.85,3.758,3.758,0,0,0-.742,2.554" transform="translate(-14.879 -14.18)" fill="#003149"/>
        <path id="Path_921" data-name="Path 921" d="M95.877,90.662V78.356h1.374v1.157a3.38,3.38,0,0,1,1.092-1.017,3.056,3.056,0,0,1,1.486-.343,3.5,3.5,0,0,1,2,.593,3.556,3.556,0,0,1,1.315,1.651,6.04,6.04,0,0,1,.444,2.341,5.918,5.918,0,0,1-.491,2.457,3.714,3.714,0,0,1-3.383,2.26,2.836,2.836,0,0,1-1.353-.318,3.063,3.063,0,0,1-.982-.806v4.331Zm1.366-7.806a3.857,3.857,0,0,0,.693,2.539,2.123,2.123,0,0,0,1.677.819,2.184,2.184,0,0,0,1.723-.848,4.047,4.047,0,0,0,.713-2.639,3.943,3.943,0,0,0-.7-2.544,2.117,2.117,0,0,0-1.669-.847,2.183,2.183,0,0,0-1.705.9,4.032,4.032,0,0,0-.737,2.619" transform="translate(-17.397 -14.18)" fill="#003149"/>
        <path id="Path_922" data-name="Path 922" d="M115.041,84.39l1.555.194a3.788,3.788,0,0,1-1.363,2.116,4.613,4.613,0,0,1-5.633-.444,4.708,4.708,0,0,1-1.144-3.376,4.907,4.907,0,0,1,1.156-3.483,3.908,3.908,0,0,1,3-1.245,3.8,3.8,0,0,1,2.911,1.218,4.839,4.839,0,0,1,1.13,3.417c0,.089,0,.223-.007.4h-6.63a3.429,3.429,0,0,0,.829,2.244,2.463,2.463,0,0,0,1.86.779,2.317,2.317,0,0,0,1.414-.435,2.9,2.9,0,0,0,.927-1.389M110.1,81.954h4.96a3.023,3.023,0,0,0-.568-1.686,2.312,2.312,0,0,0-1.867-.871,2.4,2.4,0,0,0-1.744.692,2.765,2.765,0,0,0-.781,1.865" transform="translate(-19.679 -14.18)" fill="#003149"/>
        <path id="Path_923" data-name="Path 923" d="M122.239,87.255v-8.9H123.6v1.351a3.643,3.643,0,0,1,.957-1.249,1.682,1.682,0,0,1,.969-.305,2.926,2.926,0,0,1,1.545.49l-.521,1.4a2.121,2.121,0,0,0-1.1-.325,1.445,1.445,0,0,0-.887.3,1.642,1.642,0,0,0-.559.823,5.846,5.846,0,0,0-.25,1.762v4.658Z" transform="translate(-22.18 -14.18)" fill="#003149"/>
        <path id="Path_924" data-name="Path 924" d="M133.886,85.258,134.1,86.6a5.809,5.809,0,0,1-1.136.132,2.574,2.574,0,0,1-1.27-.26,1.444,1.444,0,0,1-.638-.685A5.392,5.392,0,0,1,130.874,84V78.886h-1.105V77.712h1.105v-2.2l1.5-.911v3.11h1.516v1.175H132.37v5.2a2.654,2.654,0,0,0,.08.828.656.656,0,0,0,.26.291.94.94,0,0,0,.514.113,4.5,4.5,0,0,0,.661-.063" transform="translate(-23.546 -13.536)" fill="#003149"/>
        <path id="Path_925" data-name="Path 925" d="M137.909,90.724l-.169-1.417a3.4,3.4,0,0,0,.866.135,1.643,1.643,0,0,0,.8-.167,1.358,1.358,0,0,0,.5-.47,7.309,7.309,0,0,0,.454-1.118c.03-.087.079-.21.138-.373L137.122,78.4h1.625l1.846,5.152c.241.658.458,1.34.645,2.059.174-.69.382-1.365.62-2.026l1.9-5.186h1.509l-3.385,9.048a18.74,18.74,0,0,1-.845,2.021,2.971,2.971,0,0,1-.923,1.1,2.207,2.207,0,0,1-1.235.345,2.993,2.993,0,0,1-.971-.186" transform="translate(-24.88 -14.225)" fill="#003149"/>
        <path id="Path_926" data-name="Path 926" d="M157.74,86.549V74.264h2.438l2.905,8.7c.273.806.465,1.41.593,1.815.139-.449.354-1.1.649-1.969l2.937-8.548h2.186V86.549h-1.57V76.268l-3.561,10.281h-1.462L159.3,76.1V86.549Z" transform="translate(-28.622 -13.475)" fill="#003149"/>
        <path id="Path_927" data-name="Path 927" d="M182.24,86.16a5.737,5.737,0,0,1-1.616,1,4.609,4.609,0,0,1-1.658.293,3.239,3.239,0,0,1-2.248-.714,2.376,2.376,0,0,1-.8-1.834,2.456,2.456,0,0,1,.3-1.194,2.37,2.37,0,0,1,.781-.866,3.5,3.5,0,0,1,1.081-.493,10.917,10.917,0,0,1,1.337-.232,13.68,13.68,0,0,0,2.687-.514c0-.208,0-.344,0-.4a1.67,1.67,0,0,0-.426-1.3,2.519,2.519,0,0,0-1.714-.51,2.635,2.635,0,0,0-1.567.375,2.313,2.313,0,0,0-.753,1.318l-1.465-.2a3.653,3.653,0,0,1,.657-1.527,2.877,2.877,0,0,1,1.337-.9,5.991,5.991,0,0,1,2.015-.315,5.356,5.356,0,0,1,1.844.272,2.428,2.428,0,0,1,1.045.676,2.4,2.4,0,0,1,.47,1.024,8.24,8.24,0,0,1,.079,1.389v2.011a21.836,21.836,0,0,0,.093,2.659,3.417,3.417,0,0,0,.377,1.07h-1.572a3.112,3.112,0,0,1-.3-1.094m-.129-3.372a11.29,11.29,0,0,1-2.456.573,5.815,5.815,0,0,0-1.318.3,1.255,1.255,0,0,0-.591.492,1.276,1.276,0,0,0-.214.713,1.318,1.318,0,0,0,.457,1.008,1.982,1.982,0,0,0,1.339.4,3.106,3.106,0,0,0,1.546-.381,2.327,2.327,0,0,0,1-1.043,3.725,3.725,0,0,0,.242-1.508Z" transform="translate(-31.921 -14.18)" fill="#003149"/>
        <path id="Path_928" data-name="Path 928" d="M189.753,87.255v-8.9H191.1v1.265a3.2,3.2,0,0,1,2.832-1.469,3.735,3.735,0,0,1,1.476.29,2.292,2.292,0,0,1,1.005.762,2.907,2.907,0,0,1,.472,1.112,9.588,9.588,0,0,1,.08,1.468v5.47h-1.505V81.844a4.148,4.148,0,0,0-.174-1.378,1.465,1.465,0,0,0-.622-.73,2.021,2.021,0,0,0-1.048-.273,2.424,2.424,0,0,0-1.662.613,2.989,2.989,0,0,0-.7,2.321v4.858Z" transform="translate(-34.43 -14.18)" fill="#003149"/>
        <path id="Path_929" data-name="Path 929" d="M208.618,86.16a5.651,5.651,0,0,1-1.605,1,4.6,4.6,0,0,1-1.663.293,3.24,3.24,0,0,1-2.249-.714,2.376,2.376,0,0,1-.786-1.834,2.413,2.413,0,0,1,.292-1.194,2.464,2.464,0,0,1,.783-.866,3.579,3.579,0,0,1,1.083-.493,10.87,10.87,0,0,1,1.341-.232,13.6,13.6,0,0,0,2.682-.514c0-.208.013-.344.013-.4a1.688,1.688,0,0,0-.431-1.3,2.526,2.526,0,0,0-1.717-.51,2.654,2.654,0,0,0-1.568.375,2.251,2.251,0,0,0-.745,1.318l-1.475-.2a3.6,3.6,0,0,1,.657-1.527,2.892,2.892,0,0,1,1.331-.9,6.084,6.084,0,0,1,2.015-.315,5.338,5.338,0,0,1,1.851.272,2.5,2.5,0,0,1,1.049.676,2.357,2.357,0,0,1,.466,1.024,8.447,8.447,0,0,1,.073,1.389v2.011a23.023,23.023,0,0,0,.095,2.659,3.5,3.5,0,0,0,.385,1.07h-1.572a3.336,3.336,0,0,1-.305-1.094m-.123-3.372a11.216,11.216,0,0,1-2.461.573,5.72,5.72,0,0,0-1.309.3,1.3,1.3,0,0,0-.6.492,1.264,1.264,0,0,0-.208.713,1.286,1.286,0,0,0,.454,1.008,1.959,1.959,0,0,0,1.335.4,3.093,3.093,0,0,0,1.546-.381,2.291,2.291,0,0,0,.993-1.043,3.545,3.545,0,0,0,.244-1.508Z" transform="translate(-36.709 -14.18)" fill="#003149"/>
        <path id="Path_930" data-name="Path 930" d="M215.72,87.99l1.468.221a1.381,1.381,0,0,0,.512.984,2.471,2.471,0,0,0,1.532.425,2.673,2.673,0,0,0,1.613-.425,2.057,2.057,0,0,0,.767-1.17,9.648,9.648,0,0,0,.11-1.936,3.09,3.09,0,0,1-2.461,1.165,3.343,3.343,0,0,1-2.832-1.323,5.117,5.117,0,0,1-1.011-3.174,5.965,5.965,0,0,1,.463-2.354,3.67,3.67,0,0,1,1.335-1.658,3.615,3.615,0,0,1,2.057-.593,3.175,3.175,0,0,1,2.588,1.278V78.357h1.394v7.692a7.325,7.325,0,0,1-.422,2.944,3.1,3.1,0,0,1-1.34,1.369,4.635,4.635,0,0,1-2.258.5,4.23,4.23,0,0,1-2.568-.72,2.413,2.413,0,0,1-.946-2.154m1.247-5.346a3.876,3.876,0,0,0,.7,2.559,2.2,2.2,0,0,0,1.739.806,2.229,2.229,0,0,0,1.739-.8,3.735,3.735,0,0,0,.7-2.509,3.68,3.68,0,0,0-.719-2.461,2.247,2.247,0,0,0-1.747-.832,2.172,2.172,0,0,0-1.708.819,3.622,3.622,0,0,0-.7,2.421" transform="translate(-39.087 -14.18)" fill="#003149"/>
        <path id="Path_931" data-name="Path 931" d="M235.292,84.39l1.559.194a3.783,3.783,0,0,1-1.369,2.116,4.612,4.612,0,0,1-5.632-.444,4.7,4.7,0,0,1-1.139-3.376,4.917,4.917,0,0,1,1.154-3.483,3.907,3.907,0,0,1,3-1.245,3.8,3.8,0,0,1,2.91,1.218,4.849,4.849,0,0,1,1.126,3.417c0,.089,0,.223-.007.4h-6.627a3.459,3.459,0,0,0,.828,2.244,2.462,2.462,0,0,0,1.858.779,2.323,2.323,0,0,0,1.417-.435,2.9,2.9,0,0,0,.927-1.389m-4.949-2.436h4.965a3.041,3.041,0,0,0-.569-1.686,2.3,2.3,0,0,0-1.867-.871,2.377,2.377,0,0,0-1.739.692,2.8,2.8,0,0,0-.791,1.865" transform="translate(-41.499 -14.18)" fill="#003149"/>
        <path id="Path_932" data-name="Path 932" d="M242.511,87.255v-8.9h1.349V79.6a3.137,3.137,0,0,1,1.112-1.049,3.1,3.1,0,0,1,1.58-.4,2.919,2.919,0,0,1,1.617.414,2.143,2.143,0,0,1,.891,1.148,3.2,3.2,0,0,1,2.744-1.563,2.718,2.718,0,0,1,2.037.736,3.148,3.148,0,0,1,.714,2.258v6.107h-1.5V81.649a4.162,4.162,0,0,0-.145-1.3,1.267,1.267,0,0,0-.536-.642,1.622,1.622,0,0,0-.9-.246,2.1,2.1,0,0,0-1.56.625,2.738,2.738,0,0,0-.621,2v5.17h-1.5V81.471a2.588,2.588,0,0,0-.367-1.5,1.391,1.391,0,0,0-1.207-.505,2.147,2.147,0,0,0-1.171.337,1.893,1.893,0,0,0-.787.98,5.534,5.534,0,0,0-.237,1.858v4.617Z" transform="translate(-44.003 -14.18)" fill="#003149"/>
        <path id="Path_933" data-name="Path 933" d="M267.467,84.39l1.559.194A3.768,3.768,0,0,1,267.66,86.7a4.609,4.609,0,0,1-5.631-.444,4.686,4.686,0,0,1-1.143-3.376,4.924,4.924,0,0,1,1.153-3.483,3.923,3.923,0,0,1,3-1.245,3.8,3.8,0,0,1,2.9,1.218,4.843,4.843,0,0,1,1.13,3.417c0,.089,0,.223-.009.4h-6.621a3.41,3.41,0,0,0,.823,2.244,2.464,2.464,0,0,0,1.862.779,2.32,2.32,0,0,0,1.414-.435,2.9,2.9,0,0,0,.922-1.389m-4.942-2.436h4.96a3.029,3.029,0,0,0-.568-1.686,2.3,2.3,0,0,0-1.867-.871,2.373,2.373,0,0,0-1.739.692,2.78,2.78,0,0,0-.786,1.865" transform="translate(-47.337 -14.18)" fill="#003149"/>
        <path id="Path_934" data-name="Path 934" d="M274.692,87.255v-8.9h1.351v1.265a3.213,3.213,0,0,1,2.828-1.469,3.681,3.681,0,0,1,1.474.29,2.283,2.283,0,0,1,1.007.762,2.815,2.815,0,0,1,.477,1.112,9.288,9.288,0,0,1,.074,1.468v5.47h-1.5V81.844a4,4,0,0,0-.174-1.378,1.409,1.409,0,0,0-.62-.73,2.031,2.031,0,0,0-1.053-.273,2.453,2.453,0,0,0-1.663.613,3.037,3.037,0,0,0-.7,2.321v4.858Z" transform="translate(-49.842 -14.18)" fill="#003149"/>
        <path id="Path_935" data-name="Path 935" d="M290.985,85.258,291.2,86.6a5.82,5.82,0,0,1-1.139.132,2.57,2.57,0,0,1-1.27-.26,1.478,1.478,0,0,1-.639-.685A5.639,5.639,0,0,1,287.973,84V78.886h-1.115V77.712h1.115v-2.2l1.492-.911v3.11h1.52v1.175h-1.52v5.2a2.763,2.763,0,0,0,.08.828.614.614,0,0,0,.264.291.93.93,0,0,0,.507.113,4.581,4.581,0,0,0,.67-.063" transform="translate(-52.05 -13.536)" fill="#003149"/>
        <path id="Path_936" data-name="Path 936" d="M.012,18.932,65.764,0l65.758,18.931Z" transform="translate(-0.002 0)" fill="#003149"/>
      </g>
    </g>
  </g>
</svg>
