<svg xmlns="http://www.w3.org/2000/svg" width="44.182" height="40.282" viewBox="0 0 44.182 40.282">
  <g id="LUx75M.tif" transform="translate(-2651.225 924.661)">
    <g id="Group_246" data-name="Group 246" transform="translate(2651.225 -924.661)">
      <path id="Path_354" data-name="Path 354" d="M2693.3-913.575c-.186.135-.315.222-.436.317q-6.621,5.2-13.242,10.406c-1.817,1.427-3.328,1.418-5.15-.014q-4.8-3.776-9.608-7.545a11.453,11.453,0,0,0-1.008-.62,14.29,14.29,0,0,0-1.7,1.031,2.545,2.545,0,0,0-.7,2.677,3.017,3.017,0,0,0,.373.994c1.5,2.615,3.027,5.217,4.534,7.829a3.633,3.633,0,0,0,1.494,1.422,2.245,2.245,0,0,0,2.44-.036c.488-.318,1.007-.591,1.513-.881a4.039,4.039,0,0,1,4.805.367,6.727,6.727,0,0,1,1.084,1.044,19.278,19.278,0,0,1,3.692,6.458,5.689,5.689,0,0,1,.171,1.822,2.1,2.1,0,0,1-1.049,1.721,13.071,13.071,0,0,1-13.125.815,19.563,19.563,0,0,1-8.533-8.272c-1.569-2.67-3.133-5.344-4.665-8.035a19.474,19.474,0,0,1-2.893-11.471,12.85,12.85,0,0,1,6.248-10.274c.192-.12.4-.217.588-.344a2.707,2.707,0,0,1,3.484.322,10.464,10.464,0,0,1,2.422,3.084q.789,1.452,1.5,2.946c.152.323.373.3.628.3H2679.3q6.379,0,12.756,0a3.558,3.558,0,0,1,2.292.655,2.5,2.5,0,0,1,1.056,2.041q0,9.691,0,19.381a2.84,2.84,0,0,1-3,2.693c-3.181.018-6.362.008-9.542,0a1.061,1.061,0,0,1-1.193-1.059,1.042,1.042,0,0,1,1.17-1.031c2.678-.011,5.355-.005,8.033-.008.552,0,1.1.015,1.654-.02.578-.037.8-.3.8-.881q0-8.741,0-17.482C2693.32-913.313,2693.31-913.4,2693.3-913.575Zm-20.375,27.092a11.1,11.1,0,0,0,5.338-1.218c1.47-.784,1.528-.957.89-2.521a19.473,19.473,0,0,0-3.06-5,5.866,5.866,0,0,0-.843-.806,1.842,1.842,0,0,0-2.371-.172,14.089,14.089,0,0,1-1.775,1.007,4.6,4.6,0,0,1-1.6.5,5.082,5.082,0,0,1-4.9-2.66c-1.569-2.632-3.088-5.294-4.619-7.948a5.6,5.6,0,0,1-.477-1.061,4.773,4.773,0,0,1,2.23-5.87c.54-.256,1.037-.6,1.562-.893a1.648,1.648,0,0,0,.875-1.8,5.726,5.726,0,0,0-.275-1.279,19.729,19.729,0,0,0-2.8-5.149,6.432,6.432,0,0,0-1.124-1.064.64.64,0,0,0-.563-.046,9.092,9.092,0,0,0-1.428.827,10.976,10.976,0,0,0-4.653,8.988,18.333,18.333,0,0,0,2.719,9.613q2.287,3.987,4.615,7.951a20.379,20.379,0,0,0,3.9,4.892A12.694,12.694,0,0,0,2672.924-886.483Zm19.268-28.913h-25.931a4.3,4.3,0,0,1-.676,2.92c.261.195.486.354.7.524q4.8,3.773,9.606,7.548a1.539,1.539,0,0,0,1.518.428,3.967,3.967,0,0,0,1.031-.623q4.277-3.34,8.538-6.7Z" transform="translate(-2651.226 924.661)" fill="#003149"/>
    </g>
  </g>
</svg>
