<svg xmlns="http://www.w3.org/2000/svg" width="61.77" height="61.767" viewBox="0 0 61.77 61.767">
  <g id="Group_5489" data-name="Group 5489" transform="translate(-1176.501 -768.012)">
    <path id="Path_1067" data-name="Path 1067" d="M2029.406,9.877A12.334,12.334,0,0,1,2031.282,11a3.082,3.082,0,0,1,1.018,2.425q0,11.73,0,23.461a1.212,1.212,0,1,1-2.408-.027q0-7.056,0-14.113v-.765h-56.94v.629q0,19.329,0,38.659c0,1.3.391,1.682,1.7,1.682,7.439,0,14.877-.014,22.315.022a1.776,1.776,0,0,0,1.632-.788c-.343-.854-.664-1.7-1.025-2.518a.657.657,0,0,0-.455-.32c-.417-.046-.843,0-1.264-.019a1.15,1.15,0,0,1-1.183-1.181q-.02-2.684,0-5.368a1.071,1.071,0,0,1,1.194-1.143,1.639,1.639,0,0,0,2.162-1.492,7.261,7.261,0,0,1,.636-1.436c-.358-.334-.74-.66-1.088-1.021a1.2,1.2,0,0,1-.01-1.816q1.818-1.85,3.668-3.667a1.214,1.214,0,0,1,1.819.013c.191.178.378.362.554.554s.308.371.418.5c.957-.38,1.816-.707,2.658-1.071a.6.6,0,0,0,.275-.431c.039-.4.007-.8.015-1.2a1.162,1.162,0,0,1,1.229-1.257q2.624-.016,5.247,0a1.1,1.1,0,0,1,1.218,1.245c-.156,1.182.2,1.859,1.425,2.084a7.18,7.18,0,0,1,1.5.667c.311-.337.625-.7.967-1.041a1.227,1.227,0,0,1,1.906-.027q1.825,1.8,3.623,3.626a1.2,1.2,0,0,1,0,1.818c-.346.362-.729.69-1.056,1,.372.935.7,1.792,1.063,2.634a.6.6,0,0,0,.422.285c.418.039.843,0,1.265.016a1.158,1.158,0,0,1,1.206,1.22q.016,2.654,0,5.307a1.073,1.073,0,0,1-1.174,1.164,1.678,1.678,0,0,0-2.2,1.53,6.5,6.5,0,0,1-.581,1.308,1.689,1.689,0,0,0,1.656.83c1.181-.08,2.371-.02,3.557-.021,1.223,0,1.642-.413,1.642-1.62q0-6.634-.005-13.268a1.255,1.255,0,0,1,.753-1.311,1.18,1.18,0,0,1,1.657,1.091c.012,4.744.029,9.489-.011,14.233a3.531,3.531,0,0,1-3.409,3.282q-2.261.032-4.523,0a1.175,1.175,0,0,0-.94.4c-.938.967-1.9,1.914-2.853,2.862a1.27,1.27,0,0,1-2.079-.018c-.313-.311-.616-.632-.885-.909-.916.363-1.774.69-2.617,1.054a.6.6,0,0,0-.274.43c-.039.4-.007.8-.015,1.2a1.166,1.166,0,0,1-1.233,1.255q-2.623.016-5.247,0a1.1,1.1,0,0,1-1.214-1.249c.162-1.19-.213-1.852-1.428-2.082a7.3,7.3,0,0,1-1.5-.669c-.242.27-.485.565-.753.835-.9.913-1.442.915-2.335.023-.868-.866-1.751-1.719-2.594-2.608a1.561,1.561,0,0,0-1.25-.532c-7.378.018-14.757-.031-22.134.038-2.238.021-3.751-.756-4.458-2.921v-49.7a4.1,4.1,0,0,1,2.9-2.9Zm.483,9.63c0-1.95,0-3.837,0-5.724,0-1.039-.466-1.493-1.524-1.493q-26.951,0-53.9,0c-1.051,0-1.507.457-1.51,1.506q-.007,2.623,0,5.245c0,.153.027.305.042.465Zm-8.33,44.553c-.291-.253-.625-.51-.919-.807a1.132,1.132,0,0,1-.234-1.483,13.683,13.683,0,0,0,1.654-3.978,1.1,1.1,0,0,1,1.157-.866c.436,0,.873,0,1.325,0v-2.9c-.416,0-.794,0-1.173,0-.795-.006-1.106-.307-1.389-1.062-.462-1.231-.972-2.447-1.515-3.644a1.267,1.267,0,0,1,.238-1.685,7.984,7.984,0,0,1,.828-.655l-2.1-2.259c-.285.33-.539.671-.84.961a1.135,1.135,0,0,1-1.487.2,13.24,13.24,0,0,0-3.923-1.632,1.12,1.12,0,0,1-.9-1.194V41.771h-2.9c0,.429,0,.81,0,1.191-.008.759-.309,1.073-1.032,1.348-1.248.475-2.481.994-3.7,1.539a1.238,1.238,0,0,1-1.593-.186,9.975,9.975,0,0,1-.772-.929l-2.2,2.143c.309.267.644.524.938.821a1.133,1.133,0,0,1,.233,1.484,13.593,13.593,0,0,0-1.654,3.979,1.1,1.1,0,0,1-1.159.866c-.436,0-.873,0-1.323,0v2.9c.417,0,.8,0,1.174,0,.8.006,1.1.307,1.387,1.063.461,1.232.973,2.446,1.516,3.645a1.257,1.257,0,0,1-.2,1.642,7.927,7.927,0,0,1-.876.7l2.143,2.224c.258-.3.512-.639.814-.928a1.259,1.259,0,0,1,1.546-.18c1.233.563,2.488,1.082,3.753,1.568a1.265,1.265,0,0,1,1,1.366c0,.393,0,.786,0,1.181h2.9c0-.4,0-.779,0-1.156a1.281,1.281,0,0,1,1.036-1.4c1.249-.473,2.482-.994,3.7-1.539a1.24,1.24,0,0,1,1.592.19,10.37,10.37,0,0,1,.776.934l2.177-2.164" transform="translate(-794.037 758.135)" fill="#003149"/>
    <path id="Path_1068" data-name="Path 1068" d="M2027.544,133.246c.4-.231.776-.462,1.164-.669a1.209,1.209,0,0,1,1.762.457q1.331,2.254,2.62,4.533a1.126,1.126,0,0,1-.471,1.737,1.8,1.8,0,0,0-1.152,2.268.965.965,0,0,0,.321.556,9.954,9.954,0,0,0,.874.528,1.2,1.2,0,0,1,.441,1.723q-1.3,2.307-2.648,4.587a1.1,1.1,0,0,1-1.653.437,1.81,1.81,0,0,0-2.58.117.979.979,0,0,0-.323.546c-.053.333,0,.682-.022,1.022a1.208,1.208,0,0,1-1.284,1.228q-2.652.02-5.305,0a1.1,1.1,0,0,1-1.2-1.262,1.682,1.682,0,0,0-1.113-1.993c-.48-.211-.815-.309-1.234.023a3.2,3.2,0,0,1-.628.353,1.155,1.155,0,0,1-1.621-.446q-1.387-2.326-2.708-4.69a1.071,1.071,0,0,1,.452-1.6,1.81,1.81,0,0,0,1.219-2.175c-.048-.382-.073-.633-.447-.784a4.492,4.492,0,0,1-.628-.355,1.227,1.227,0,0,1-.519-1.879q1.247-2.2,2.527-4.378a1.185,1.185,0,0,1,1.869-.5,1.635,1.635,0,0,0,2.173.011c.442-.309.728-.55.641-1.107a3.592,3.592,0,0,1,0-.662,1.181,1.181,0,0,1,1.206-1.232q2.682-.025,5.366,0a1.141,1.141,0,0,1,1.217,1.275,1.691,1.691,0,0,0,1.235,2.042,2.654,2.654,0,0,1,.454.289m2.862,10.933c-.222-.132-.392-.235-.564-.336a1.451,1.451,0,0,1-.9-1.822,4.384,4.384,0,0,0,.075-1.434c-.277-1.3-.089-2.328,1.419-2.739l-1.494-2.582-.468.266c-1.022.578-1.248.525-2.222-.163a10.966,10.966,0,0,0-1.889-1.036,1.41,1.41,0,0,1-.954-1.384c0-.276,0-.551,0-.857h-2.934c0,.309-.014.586,0,.862a1.336,1.336,0,0,1-.876,1.362,25.1,25.1,0,0,0-2.279,1.318,1.376,1.376,0,0,1-1.522.1c-.273-.148-.539-.311-.829-.479l-1.453,2.525c.247.151.449.279.655.4a1.343,1.343,0,0,1,.79,1.685,4.876,4.876,0,0,0-.044,1.5c.238,1.287.111,2.348-1.449,2.739l1.5,2.594c.307-.174.553-.307.792-.45a1.35,1.35,0,0,1,1.57.088,24.416,24.416,0,0,0,2.276,1.323,1.31,1.31,0,0,1,.865,1.3c-.012.294,0,.589,0,.9h2.935c0-.328-.009-.625,0-.922a1.4,1.4,0,0,1,.905-1.294,18.01,18.01,0,0,0,2.23-1.283,1.362,1.362,0,0,1,1.616-.105c.25.149.515.274.792.421l1.447-2.5" transform="translate(-829.258 652.859)" fill="#fd8800"/>
    <path id="Path_1069" data-name="Path 1069" d="M2255.6,209.9q-2.951,0-5.9,0a1.222,1.222,0,1,1,.017-2.41q5.932,0,11.863,0c.887,0,1.392.448,1.388,1.215s-.506,1.194-1.406,1.195q-2.981,0-5.961,0" transform="translate(-1038.209 584.405)" fill="#fd8800"/>
    <path id="Path_1070" data-name="Path 1070" d="M2327.629,159.587q2.5,0,5,0c.9,0,1.414.438,1.422,1.189s-.506,1.22-1.388,1.22q-5.033,0-10.065,0a1.256,1.256,0,0,1-1.413-1.217c.01-.715.58-1.192,1.44-1.193q2.5,0,5,0" transform="translate(-1102.304 626.521)" fill="#fd8800"/>
    <path id="Path_1071" data-name="Path 1071" d="M2029.209,405.515c-1.144,0-2.288,0-3.431,0a1.211,1.211,0,1,1,.021-2.408q3.461-.005,6.923,0a1.214,1.214,0,1,1-.021,2.408c-1.164,0-2.328,0-3.491,0" transform="translate(-841.429 412.437)" fill="#fd8800"/>
    <path id="Path_1072" data-name="Path 1072" d="M2073.564,355.2c.944,0,1.888,0,2.832,0a1.208,1.208,0,1,1,.031,2.408q-2.892.009-5.783,0a1.206,1.206,0,1,1,.029-2.407c.964-.007,1.927,0,2.891,0" transform="translate(-880.925 454.556)" fill="#003149"/>
    <path id="Path_1073" data-name="Path 1073" d="M2250.938,161.949c-.482,0-.964.011-1.446,0a1.2,1.2,0,1,1,0-2.4q1.445-.024,2.891,0a1.2,1.2,0,0,1,0,2.405h-1.446" transform="translate(-1038.206 626.568)" fill="#fd8800"/>
    <path id="Path_1074" data-name="Path 1074" d="M2393.083,209.823c-.361,0-.723.014-1.083,0a1.22,1.22,0,0,1-1.162-1.219,1.207,1.207,0,0,1,1.139-1.179c.741-.025,1.484-.03,2.225,0a1.2,1.2,0,0,1-.037,2.395c-.359.02-.721,0-1.083,0" transform="translate(-1163.536 584.484)" fill="#fd8800"/>
    <path id="Path_1075" data-name="Path 1075" d="M2025.649,357.623a1.2,1.2,0,1,1,1.206-1.217,1.182,1.182,0,0,1-1.206,1.217" transform="translate(-841.429 454.539)" fill="#fd8800"/>
    <path id="Path_1076" data-name="Path 1076" d="M2462.814,269.383a1.205,1.205,0,1,1-1.221,1.2,1.184,1.184,0,0,1,1.221-1.2" transform="translate(-1225.739 529.994)" fill="#fd8800"/>
    <path id="Path_1077" data-name="Path 1077" d="M2206.321,52.2q-6.421,0-12.842,0c-.9,0-1.421-.5-1.373-1.3a1.181,1.181,0,0,1,1.074-1.108c.12-.011.241,0,.361,0h25.625c.782,0,1.281.351,1.394.965a1.2,1.2,0,0,1-1.216,1.441c-1.406.014-2.813,0-4.22,0h-8.8" transform="translate(-988.822 723.045)" fill="#fd8800"/>
    <path id="Path_1078" data-name="Path 1078" d="M2026.838,51.1a1.207,1.207,0,1,1-1.135-1.288,1.192,1.192,0,0,1,1.135,1.288" transform="translate(-841.412 723.032)" fill="#003149"/>
    <path id="Path_1079" data-name="Path 1079" d="M2070.77,50.99a1.2,1.2,0,1,1-1.243-1.181,1.184,1.184,0,0,1,1.243,1.181" transform="translate(-880.036 723.03)" fill="#fd8800"/>
    <path id="Path_1080" data-name="Path 1080" d="M2113.461,52.217a1.205,1.205,0,1,1,1.22-1.2,1.184,1.184,0,0,1-1.22,1.2" transform="translate(-918.639 723.031)" fill="#003149"/>
    <path id="Path_1081" data-name="Path 1081" d="M2246.722,322.133a7.857,7.857,0,1,1-7.864,7.821,7.82,7.82,0,0,1,7.864-7.821m.014,13.289a5.432,5.432,0,1,0-5.451-5.429,5.447,5.447,0,0,0,5.451,5.429" transform="translate(-1029.926 483.62)" fill="#fd8800"/>
    <path id="Path_1082" data-name="Path 1082" d="M2074.6,197.774a4.1,4.1,0,1,1,4.084-4.09,4.077,4.077,0,0,1-4.084,4.09m1.638-4.105a1.658,1.658,0,1,0-3.315.015,1.658,1.658,0,1,0,3.315-.015" transform="translate(-881.878 600.165)" fill="#003149"/>
  </g>
</svg>
