<svg xmlns="http://www.w3.org/2000/svg" width="42.634" height="39.305" viewBox="0 0 42.634 39.305">
  <g id="j2F1Nj.tif" transform="translate(-1189.889 680.429)">
    <g id="Group_245" data-name="Group 245" transform="translate(1189.889 -680.429)">
      <path id="Path_346" data-name="Path 346" d="M1232.522-652.273c-.11.4-.194.8-.333,1.19a5.478,5.478,0,0,1-5.125,3.639c-.722.007-1.444-.017-2.164.013a.993.993,0,0,0-.6.253c-1.857,1.833-3.7,3.681-5.543,5.525-.078.078-.154.16-.236.235a.849.849,0,0,1-.99.211.852.852,0,0,1-.488-.849q0-1.395,0-2.789v-2.6h-.5q-10.512,0-21.024,0a5.455,5.455,0,0,1-5.484-4.318,5.969,5.969,0,0,1-.134-1.32q-.012-10.845,0-21.69a5.486,5.486,0,0,1,5.619-5.642c1.485-.007,2.97,0,4.455,0,.055,0,.111,0,.167,0a.853.853,0,0,1,.912.827.837.837,0,0,1-.9.834c-1.54.011-3.081-.011-4.621.008a3.7,3.7,0,0,0-3.568,2.209,4.232,4.232,0,0,0-.381,1.723q-.037,10.887-.011,21.773a3.837,3.837,0,0,0,4.046,3.931q10.928,0,21.857,0c1.013,0,1.24.23,1.24,1.258q0,1.686,0,3.372v.487c.171-.158.282-.253.384-.355,1.414-1.412,2.836-2.816,4.235-4.243a1.592,1.592,0,0,1,1.291-.526c.734.031,1.471.01,2.206.007a3.852,3.852,0,0,0,4.036-4.027q.009-5.683,0-11.365c0-3.414.008-6.828,0-10.241a3.679,3.679,0,0,0-2.211-3.6,4.729,4.729,0,0,0-1.888-.387c-5.592-.029-11.185-.017-16.777-.018a2.9,2.9,0,0,1-.539-.028.8.8,0,0,1-.665-.789.78.78,0,0,1,.639-.808,2.513,2.513,0,0,1,.537-.038c5.593,0,11.185.033,16.778-.014a5.557,5.557,0,0,1,5.734,4.738c0,.036.041.069.062.1Z" transform="translate(-1189.889 680.429)" fill="#003149"/>
      <path id="Path_347" data-name="Path 347" d="M1449.751-615.249c-.259,0-.453,0-.647,0a.838.838,0,0,1-.9-.538.866.866,0,0,1,.335-1.028c.922-.779,1.837-1.564,2.756-2.346l5.131-4.369c.667-.568.961-.57,1.622-.006q3.927,3.346,7.851,6.693c.4.344.533.683.383,1.051a.89.89,0,0,1-.978.544c-.176-.009-.354,0-.57,0v.486q0,4.14,0,8.28c0,.874-.27,1.143-1.145,1.143q-6.324,0-12.649,0c-.956,0-1.194-.247-1.194-1.219q0-4.1,0-8.2Zm4.661,8.223c0-.182,0-.332,0-.483,0-1.623,0-3.246,0-4.869,0-.734.305-1.035,1.044-1.038,1.207,0,2.414,0,3.621,0,.788,0,1.078.288,1.079,1.083q0,2.435,0,4.87v.439h2.888v-8.192h-11.611v8.192Zm8.816-9.907-5.984-5.1-5.981,5.1Zm-4.767,9.911v-4.707H1456.1v4.707Z" transform="translate(-1426.601 628.668)" fill="#fd8800"/>
      <path id="Path_348" data-name="Path 348" d="M1251.507-514.936h-6.494a2.659,2.659,0,0,1-.456-.022.838.838,0,0,1-.7-.811.83.83,0,0,1,.664-.8,1.921,1.921,0,0,1,.413-.033q6.556,0,13.112,0h.042c.674,0,1.08.318,1.077.833s-.4.834-1.078.834q-3.289,0-6.577,0Z" transform="translate(-1239.352 530.27)" fill="#fd8800"/>
      <path id="Path_349" data-name="Path 349" d="M1251.494-562.83h-6.45a2.978,2.978,0,0,1-.415-.013.838.838,0,0,1-.745-.816.833.833,0,0,1,.7-.81,2.517,2.517,0,0,1,.456-.024h13.067c.673,0,1.078.317,1.079.833s-.4.832-1.076.832Q1254.8-562.829,1251.494-562.83Z" transform="translate(-1239.378 574.168)" fill="#fd8800"/>
      <path id="Path_350" data-name="Path 350" d="M1251.611-467.015q-3.287,0-6.575,0a2.1,2.1,0,0,1-.454-.034.828.828,0,0,1-.653-.808.826.826,0,0,1,.637-.778,1.711,1.711,0,0,1,.411-.042q6.6,0,13.192,0a1.78,1.78,0,0,1,.452.049.817.817,0,0,1,.612.8.822.822,0,0,1-.635.78,2.22,2.22,0,0,1-.5.038Q1254.857-467.013,1251.611-467.015Z" transform="translate(-1239.42 486.347)" fill="#fd8800"/>
      <path id="Path_351" data-name="Path 351" d="M1249.965-419.112c-1.594,0-3.188.005-4.782-.006a.97.97,0,0,1-.624-.146,1.367,1.367,0,0,1-.388-.76.676.676,0,0,1,.55-.693,1.817,1.817,0,0,1,.492-.058q4.761,0,9.522,0h.042c.633.009,1.026.337,1.016.849s-.391.814-1,.816C1253.18-419.109,1251.573-419.112,1249.965-419.112Z" transform="translate(-1239.64 442.44)" fill="#fd8800"/>
      <path id="Path_352" data-name="Path 352" d="M1364.536-678.53a.856.856,0,0,1-.818-.834.857.857,0,0,1,.836-.818.853.853,0,0,1,.814.836A.85.85,0,0,1,1364.536-678.53Z" transform="translate(-1349.216 680.203)" fill="#fd8800"/>
      <path id="Path_353" data-name="Path 353" d="M1408.354-419.061a.854.854,0,0,1-.819-.834.863.863,0,0,1,.835-.82.858.858,0,0,1,.818.836A.857.857,0,0,1,1408.354-419.061Z" transform="translate(-1389.377 442.382)" fill="#fd8800"/>
    </g>
  </g>
</svg>
