<svg xmlns="http://www.w3.org/2000/svg" width="72.913" height="72.862" viewBox="0 0 72.913 72.862">
  <g id="Group_5517" data-name="Group 5517" transform="translate(15927 12722.773)">
    <path id="Path_1165" data-name="Path 1165" d="M-226.336,258.386v2.352h-72.9a10.913,10.913,0,0,1,2.143-7.456,1.561,1.561,0,0,0,.2-.892c.012-5.022,0-10.044.012-15.066a11.483,11.483,0,0,1,4.163-9.033,1.451,1.451,0,0,0,.546-1.248q-.02-12.09-.009-24.18v-.939h18.847v-9.419h4.689v-2.264h2.363v2.238h2.337v-4.6h2.363v4.619h2.337V190.24h2.363v2.315h4.715v9.419h18.773v.922q0,12.126-.007,24.253a1.229,1.229,0,0,0,.458,1.066,11.594,11.594,0,0,1,4.252,9.216c0,2.719-.053,5.44.017,8.157a6.593,6.593,0,0,1-2.107,5.512l.6.485a10.179,10.179,0,0,1,3.508,5.382C-226.538,257.434-226.445,257.912-226.336,258.386Zm-9.438-54.041h-21.1c-.012.146-.027.242-.027.337q0,10.433-.013,20.865a.712.712,0,0,0,.524.746,9.04,9.04,0,0,1,4.889,5.391c.085.237.157.479.273.836a11.8,11.8,0,0,1,6.476-6.229,11.676,11.676,0,0,1,8.98.124Zm-37.591,0H-289.8v21.968c6.815-2.123,11.967-.092,15.447,5.986,1.068-1.605,1.006-3.479,1-5.371-.031-7.221-.012-14.443-.012-21.664Zm14.136,21.114V201.9h4.635v-2.268h-16.371v27.726a10.215,10.215,0,0,1,7-1.914C-262.429,225.506-260.889,225.46-259.229,225.46Zm-18.838,10.584c0,2.293-.023,4.472.007,6.65a6.023,6.023,0,0,1-2.446,5.159.755.755,0,0,0-.266.635,1.7,1.7,0,0,0,.585.779,3.292,3.292,0,0,0,.839.238c1.209.415,2.414.841,3.62,1.264,0-4.685.1-9.414-.028-14.137a9.338,9.338,0,0,0-9.128-8.817,9.41,9.41,0,0,0-9.638,9.445c-.016,4.335,0,8.67,0,13v.452c1.485-.478,2.927-.985,4.4-1.391a.761.761,0,0,0,.657-.81,1.081,1.081,0,0,0-.362-.734,5.883,5.883,0,0,1-2.339-4.768q-.011-3.417,0-6.833a3.5,3.5,0,0,1,2.328-3.472,3.444,3.444,0,0,1,4.013,1.339,4.645,4.645,0,0,0,4.031,2C-280.585,236.027-279.366,236.043-278.068,236.043Zm44.677.066c0,2.33.014,4.65,0,6.971a5.85,5.85,0,0,1-2.274,4.652,1.249,1.249,0,0,0-.424.785.721.721,0,0,0,.73.82,3.456,3.456,0,0,1,1.134.283c1.04.5,1.723-.022,2.348-.746a3.579,3.579,0,0,0,.843-2.44c-.006-3.086,0-6.172-.008-9.259a10.441,10.441,0,0,0-.129-1.46,9.427,9.427,0,0,0-9.887-7.891,9.409,9.409,0,0,0-8.764,8.892c-.088,3.329-.03,6.662-.015,9.993a3.366,3.366,0,0,0,1.118,2.473,1.594,1.594,0,0,0,1.9.485,4.619,4.619,0,0,1,1.345-.348.691.691,0,0,0,.673-.79,1.086,1.086,0,0,0-.347-.739,5.911,5.911,0,0,1-2.353-4.836q0-3.123,0-6.246c0-.211.026-.421.043-.668.423,0,.788.009,1.152,0a5.287,5.287,0,0,0,4.333-2.233,1.948,1.948,0,0,0,.333-1c.046-.869.015-1.741.015-2.608h2.352c0,.861-.044,1.691.019,2.513a2.453,2.453,0,0,0,.412,1.188,4.825,4.825,0,0,0,3.213,2.008C-234.93,236.026-234.216,236.039-233.39,236.109ZM-251.2,258.354a7.038,7.038,0,0,0-1.4-3.516,8.9,8.9,0,0,0-5.948-3.276c-.147-.028-.387.15-.5.3-.576.73-1.123,1.482-1.681,2.226l-2.048,2.732-2.925-3.9c-1.092-1.455-1.1-1.473-2.867-.984a7.723,7.723,0,0,0-5.755,5.87,3.2,3.2,0,0,0-.045.552Zm-2.246-23.138a4.888,4.888,0,0,0,.06-.55A6.533,6.533,0,0,0-258.842,228a35.783,35.783,0,0,0-7.535-.058c-2.934.29-4.8,2.159-5.586,5a12.714,12.714,0,0,0-.243,2.262c1.3-.123,2.424-.3,3.551-.32a7.023,7.023,0,0,0,5.136-2.137,5.028,5.028,0,0,0,.555-.869c.377.358.526.484.658.627a7.289,7.289,0,0,0,5.7,2.384A27.455,27.455,0,0,1-253.444,235.216Zm-43.273,23.123h19.745l1.42-4.154a8.3,8.3,0,0,0-5.1-2.545,4.639,4.639,0,0,1-4.272,3.2,4.664,4.664,0,0,1-4.676-3.2C-293.666,252.389-296.606,255.161-296.717,258.339Zm38.627-21.162a9.844,9.844,0,0,1-4.454-1.713c-.127-.089-.434,0-.619.084-.859.4-1.688.871-2.562,1.231a12.331,12.331,0,0,1-1.753.449c0,2.079-.051,4.109.015,6.135a3.461,3.461,0,0,0,3.364,3.253c.879.031,1.761.032,2.64,0a3.464,3.464,0,0,0,3.353-3.265C-258.039,241.325-258.089,239.3-258.089,237.177Zm-22.334,1.218c-.259,0-.449-.01-.637,0a7.269,7.269,0,0,1-6.773-3.043,1.5,1.5,0,0,0-1.209-.39c-.565.075-.785.589-.784,1.166.005,2.351-.021,4.7.012,7.054a3.5,3.5,0,0,0,3.426,3.437c.856.025,1.715.028,2.571,0a3.5,3.5,0,0,0,3.387-3.4C-280.393,241.652-280.423,240.084-280.423,238.4Zm35.285-.084c0,1.739-.052,3.4.014,5.062a3.464,3.464,0,0,0,3.3,3.24c.9.041,1.811.038,2.715,0a3.514,3.514,0,0,0,3.353-3.356c.029-.684.009-1.37.009-2.055,0-.969,0-1.938,0-2.9a8.079,8.079,0,0,1-4.713-2.594A7.979,7.979,0,0,1-245.138,238.311Zm7.234,20h9.076a7.792,7.792,0,0,0-6.937-6.557A13.7,13.7,0,0,1-237.9,258.311Zm-16.685-63.376h-16.367V197.2h16.367Zm4.466,56.158a6.286,6.286,0,0,1-2.087-5.244c.046-1.006.008-2.016.008-3.193a4.992,4.992,0,0,1-3.63,1.638,6.18,6.18,0,0,1-2.095,3.362c-.277.224-.671.327-.546.9a.991.991,0,0,0,.941.831,11.134,11.134,0,0,1,5.157,2.316c.256.216.51.435.762.651Zm-23.176-8.331v9.027a10.915,10.915,0,0,1,4.949-2.344,6.747,6.747,0,0,0,.782-.193c.41-.143.685-1.045.361-1.269a6.219,6.219,0,0,1-2.536-3.7A5.033,5.033,0,0,1-273.3,242.762Zm28.17,8.925a8.048,8.048,0,0,0-4.889,2.493l1.418,4.169h5.639A13.719,13.719,0,0,1-245.128,251.687Zm-41.973-2.722c-.52,1.59-.309,2.49.705,3.152a2.293,2.293,0,0,0,2.785-.18c.869-.74,1-1.687.413-2.972Zm24.318,3.931c.644-.86,1.181-1.647,1.792-2.37a1.136,1.136,0,0,0,.152-1.54h-4.019c0,.4-.142.864.026,1.123C-264.228,251.044-263.519,251.912-262.783,252.9Zm19.909-1.617H-238l-.38-2.294h-4.14Zm.447,2.438a10.188,10.188,0,0,0,2.1,4.2l2.056-4.2Zm-13.273-11.84a2.3,2.3,0,0,0,2.319-2.343,2.3,2.3,0,0,0-2.319-2.268Zm-14.162-4.624a2.319,2.319,0,0,0-2.322,2.454,2.255,2.255,0,0,0,2.322,2.145Z" transform="translate(-15627.751 -12910.649)" fill="#fff"/>
    <path id="Path_1166" data-name="Path 1166" d="M102.681,349.89h-2.234V347.6h2.234Z" transform="translate(-15968.586 -13046.854)" fill="#fd8800"/>
    <path id="Path_1167" data-name="Path 1167" d="M4.678,347.375H6.912v2.287H4.678Z" transform="translate(-15886.921 -13046.66)" fill="#fd8800"/>
    <path id="Path_1168" data-name="Path 1168" d="M36.424,381.73v-2.263h2.261v2.263Z" transform="translate(-15913.992 -13074.025)" fill="#fd8800"/>
    <path id="Path_1169" data-name="Path 1169" d="M68.467,379.449h2.266v2.261H68.467Z" transform="translate(-15941.315 -13074.011)" fill="#fd8800"/>
    <path id="Path_1170" data-name="Path 1170" d="M102.607,379.595v2.251h-2.286v-2.251Z" transform="translate(-15968.479 -13074.136)" fill="#fd8800"/>
    <path id="Path_1171" data-name="Path 1171" d="M6.872,413.731H4.611v-2.274H6.872Z" transform="translate(-15886.864 -13101.305)" fill="#fd8800"/>
    <path id="Path_1172" data-name="Path 1172" d="M38.709,413.79H36.443v-2.261h2.266Z" transform="translate(-15914.008 -13101.367)" fill="#fd8800"/>
    <path id="Path_1173" data-name="Path 1173" d="M70.68,413.691H68.429V411.4H70.68Z" transform="translate(-15941.283 -13101.261)" fill="#fd8800"/>
    <path id="Path_1174" data-name="Path 1174" d="M100.291,413.766v-2.26h2.273v2.26Z" transform="translate(-15968.453 -13101.347)" fill="#fd8800"/>
    <path id="Path_1175" data-name="Path 1175" d="M100.484,315.434h2.234v2.287h-2.234Z" transform="translate(-15968.618 -13019.423)" fill="#fd8800"/>
    <path id="Path_1176" data-name="Path 1176" d="M68.425,315.576h2.252v2.266H68.425Z" transform="translate(-15941.28 -13019.544)" fill="#fd8800"/>
    <path id="Path_1177" data-name="Path 1177" d="M68.478,347.5h2.263v2.261H68.478Z" transform="translate(-15941.325 -13046.764)" fill="#fd8800"/>
    <path id="Path_1178" data-name="Path 1178" d="M36.431,349.892v-2.257H38.7v2.257Z" transform="translate(-15913.998 -13046.882)" fill="#fd8800"/>
    <path id="Path_1179" data-name="Path 1179" d="M36.568,315.53h2.255v2.287H36.568Z" transform="translate(-15914.114 -13019.505)" fill="#fd8800"/>
    <path id="Path_1180" data-name="Path 1180" d="M4.6,315.567H6.862v2.261H4.6Z" transform="translate(-15886.851 -13019.536)" fill="#fd8800"/>
    <path id="Path_1181" data-name="Path 1181" d="M4.489,381.73v-2.263h2.26v2.263Z" transform="translate(-15886.76 -13074.025)" fill="#fd8800"/>
    <path id="Path_1182" data-name="Path 1182" d="M-219.06,381.73v-2.263h2.261v2.263Z" transform="translate(-15696.131 -13074.025)" fill="#fd8800"/>
    <path id="Path_1183" data-name="Path 1183" d="M-187.133,381.821V379.56h2.274v2.261Z" transform="translate(-15723.356 -13074.105)" fill="#fd8800"/>
    <path id="Path_1184" data-name="Path 1184" d="M-155.07,379.437h2.262V381.7h-2.262Z" transform="translate(-15750.697 -13074)" fill="#fd8800"/>
    <path id="Path_1185" data-name="Path 1185" d="M-219.109,413.708V411.46h2.286v2.248Z" transform="translate(-15696.09 -13101.308)" fill="#fd8800"/>
    <path id="Path_1186" data-name="Path 1186" d="M-184.795,413.7h-2.247v-2.287h2.247Z" transform="translate(-15723.434 -13101.271)" fill="#fd8800"/>
    <path id="Path_1187" data-name="Path 1187" d="M-152.825,411.43v2.257h-2.269V411.43Z" transform="translate(-15750.678 -13101.282)" fill="#fd8800"/>
    <path id="Path_1188" data-name="Path 1188" d="M-155.057,347.482h2.259v2.261h-2.259Z" transform="translate(-15750.709 -13046.752)" fill="#fd8800"/>
    <path id="Path_1189" data-name="Path 1189" d="M-184.827,347.639v2.256h-2.286v-2.256Z" transform="translate(-15723.374 -13046.886)" fill="#fd8800"/>
    <path id="Path_1190" data-name="Path 1190" d="M-219.05,347.461h2.269v2.282h-2.269Z" transform="translate(-15696.14 -13046.733)" fill="#fd8800"/>
    <path id="Path_1191" data-name="Path 1191" d="M-155.168,317.961v-2.253h2.265v2.253Z" transform="translate(-15750.614 -13019.656)" fill="#fd8800"/>
    <path id="Path_1192" data-name="Path 1192" d="M-184.8,317.868h-2.251v-2.287h2.251Z" transform="translate(-15723.423 -13019.548)" fill="#fd8800"/>
    <path id="Path_1193" data-name="Path 1193" d="M-216.775,317.967h-2.266v-2.261h2.266Z" transform="translate(-15696.147 -13019.655)" fill="#fd8800"/>
    <path id="Path_1194" data-name="Path 1194" d="M-91.455,381.853v-2.248h2.286v2.248Z" transform="translate(-15804.944 -13074.144)" fill="#fd8800"/>
    <path id="Path_1195" data-name="Path 1195" d="M-59.4,381.814v-2.265h2.278v2.265Z" transform="translate(-15832.276 -13074.096)" fill="#fd8800"/>
    <path id="Path_1196" data-name="Path 1196" d="M-88.932,413.773h-2.234v-2.287h2.234Z" transform="translate(-15805.191 -13101.329)" fill="#fd8800"/>
    <path id="Path_1197" data-name="Path 1197" d="M-59.289,411.251h2.244v2.284h-2.244Z" transform="translate(-15832.373 -13101.13)" fill="#fd8800"/>
    <path id="Path_1198" data-name="Path 1198" d="M-59.317,347.517h2.252v2.266h-2.252Z" transform="translate(-15832.35 -13046.781)" fill="#fd8800"/>
    <path id="Path_1199" data-name="Path 1199" d="M-91.266,347.5h2.256v2.27h-2.256Z" transform="translate(-15805.106 -13046.769)" fill="#fd8800"/>
    <path id="Path_1200" data-name="Path 1200" d="M-59.432,317.885v-2.248h2.286v2.248Z" transform="translate(-15832.252 -13019.596)" fill="#fd8800"/>
    <path id="Path_1201" data-name="Path 1201" d="M-91.237,315.417h2.248V317.7h-2.248Z" transform="translate(-15805.131 -13019.408)" fill="#fd8800"/>
    <path id="Path_1202" data-name="Path 1202" d="M-59.25,283.6h2.258v2.261H-59.25Z" transform="translate(-15832.407 -12992.277)" fill="#fd8800"/>
    <path id="Path_1203" data-name="Path 1203" d="M-88.965,283.65v2.261h-2.274V283.65Z" transform="translate(-15805.129 -12992.319)" fill="#fd8800"/>
  </g>
</svg>
