<svg id="Component_62_49" data-name="Component 62 – 49" xmlns="http://www.w3.org/2000/svg" width="31" height="31" viewBox="0 0 31 31">
  <circle id="Ellipse_2" data-name="Ellipse 2" cx="15.5" cy="15.5" r="15.5" fill="#fd8800"/>
  <path id="Path_427" data-name="Path 427" d="M1141.594,345.108a6.125,6.125,0,0,1-1.5.427c.24-.041.594-.477.736-.653a2.738,2.738,0,0,0,.5-.906c.013-.026.023-.058,0-.078a.086.086,0,0,0-.08.006,7.6,7.6,0,0,1-1.774.679.119.119,0,0,1-.122-.032,1.4,1.4,0,0,0-.156-.159,3.118,3.118,0,0,0-.859-.527,3,3,0,0,0-1.319-.212,3.156,3.156,0,0,0-1.25.353,3.227,3.227,0,0,0-1.009.825,3.1,3.1,0,0,0-.6,1.207,3.275,3.275,0,0,0-.031,1.274c.009.071,0,.081-.062.071a9.477,9.477,0,0,1-6.1-3.1c-.071-.081-.11-.081-.168.006a3.09,3.09,0,0,0,.527,3.653c.119.114.242.226.375.33a3.109,3.109,0,0,1-1.177-.33c-.072-.045-.107-.019-.113.062a1.8,1.8,0,0,0,.02.349,3.125,3.125,0,0,0,1.927,2.492,1.846,1.846,0,0,0,.391.12,3.486,3.486,0,0,1-1.154.036c-.084-.016-.117.026-.084.106a3.246,3.246,0,0,0,2.425,2.03c.11.019.219.019.33.045-.007.01-.013.01-.02.02a3.841,3.841,0,0,1-1.656.877,5.92,5.92,0,0,1-2.515.322c-.135-.02-.164-.018-.2,0s0,.056.039.09c.172.113.346.214.524.311a8.292,8.292,0,0,0,1.681.673,8.954,8.954,0,0,0,8.691-2.032,9.121,9.121,0,0,0,2.405-6.654c0-.1.113-.148.18-.2a5.864,5.864,0,0,0,1.183-1.23.372.372,0,0,0,.079-.235v-.013C1141.655,345.069,1141.654,345.081,1141.594,345.108Z" transform="translate(-1118.855 -334.648)" fill="#fff"/>
</svg>
