<svg xmlns="http://www.w3.org/2000/svg" width="68.369" height="68.369" viewBox="0 0 68.369 68.369">
  <g id="Group_993" data-name="Group 993" transform="translate(-479.111 -1080.795)">
    <g id="Group_659" data-name="Group 659" transform="translate(479.111 1080.795)">
      <path id="Path_774" data-name="Path 774" d="M72.169,16.334l-3.085,3.085H65a1.14,1.14,0,0,0-1.139,1.139v4.086l-3.89,3.89H55.882a1.14,1.14,0,0,0-1.139,1.139V33.76l-3.89,3.89H46.766a1.14,1.14,0,0,0-1.139,1.139v4.086l-5.03,5.03H36.7a13.624,13.624,0,0,1,6.122-9.246L41.594,36.74a15.954,15.954,0,0,0,8.591,29.4H64.82A21.649,21.649,0,0,1,28.534,50.185H26.255a23.908,23.908,0,0,0,.687,5.7H18.279V44.487h9.116a1.14,1.14,0,0,0,1.053-.7l1.84-4.444a1.139,1.139,0,0,0-.247-1.242L23.6,31.653,31.653,23.6,38.1,30.041a1.139,1.139,0,0,0,1.242.247l4.444-1.841a1.14,1.14,0,0,0,.7-1.053V18.279H55.882v6.837h2.279V17.139A1.14,1.14,0,0,0,57.021,16H43.348a1.14,1.14,0,0,0-1.139,1.139v9.494l-3.037,1.258-6.713-6.713a1.14,1.14,0,0,0-1.612,0l-9.669,9.669a1.14,1.14,0,0,0,0,1.612l6.713,6.713-1.258,3.037H17.139A1.14,1.14,0,0,0,16,43.348V57.021a1.14,1.14,0,0,0,1.139,1.139h9.494L27.891,61.2l-6.713,6.713a1.14,1.14,0,0,0,0,1.612l9.669,9.669a1.14,1.14,0,0,0,1.612,0l6.713-6.713,3.037,1.258V83.23a1.14,1.14,0,0,0,1.139,1.139H57.021a1.14,1.14,0,0,0,1.139-1.139V73.736L61.2,72.478l6.713,6.713a1.14,1.14,0,0,0,1.612,0l9.669-9.669a1.14,1.14,0,0,0,0-1.612h0l-1.773-1.773H83.23A1.14,1.14,0,0,0,84.369,65V26.255a1.14,1.14,0,0,0-1.139-1.139H74.114a1.14,1.14,0,0,0-1.139,1.139v7.976H65a1.14,1.14,0,0,0-1.139,1.139v5.7H55.882a1.14,1.14,0,0,0-1.139,1.139v6.837H46.766a1.14,1.14,0,0,0-1.139,1.139v4.558H37.293a13.613,13.613,0,0,1-.782-4.558h4.558a1.14,1.14,0,0,0,.806-.334l5.364-5.364h4.086a1.14,1.14,0,0,0,1.139-1.139V39.262l3.89-3.89H60.44a1.14,1.14,0,0,0,1.139-1.139V30.146l3.89-3.89h4.086A1.14,1.14,0,0,0,70.7,25.116V21.03l2.751-2.751H84.369V16H72.974A1.14,1.14,0,0,0,72.169,16.334ZM31.653,76.774,23.6,68.716l6.131-6.131a24.114,24.114,0,0,0,8.057,8.057ZM44.487,82.09V73.427a23.927,23.927,0,0,0,11.395,0V82.09ZM76.774,68.716l-8.058,8.058-6.129-6.13a23.942,23.942,0,0,0,5.431-4.507h6.176ZM75.253,27.395H82.09V63.858H75.253Zm-9.116,9.116h6.837V63.858H66.137Zm-9.116,6.837h6.837V63.858H57.021Zm-9.116,7.976h6.837V63.858H50.185a13.7,13.7,0,0,1-2.279-.191Zm-2.279,5.7v6.055a13.748,13.748,0,0,1-7.28-6.055Zm4.558-14.813H47.906V39.929h2.279ZM59.3,33.092H57.021V30.813H59.3Zm9.116-9.116H66.137V21.7h2.279Z" transform="translate(-16 -16)" fill="#003149"/>
    </g>
  </g>
</svg>
