<svg id="Component_61_49" data-name="Component 61 – 49" xmlns="http://www.w3.org/2000/svg" width="31" height="31" viewBox="0 0 31 31">
  <circle id="Ellipse_2" data-name="Ellipse 2" cx="15.5" cy="15.5" r="15.5" fill="#fd8800"/>
  <path id="Path_428" data-name="Path 428" d="M1368.337,348.386a3.331,3.331,0,0,0-3.331-3.332h-8.518a3.332,3.332,0,0,0-3.331,3.332v3.964a3.331,3.331,0,0,0,3.331,3.331h8.518a3.331,3.331,0,0,0,3.331-3.331Zm-5.009,2.279-3.82,1.89c-.15.081-.659-.028-.659-.2v-3.879c0-.172.513-.281.663-.2l3.656,1.989C1363.322,350.359,1363.483,350.58,1363.328,350.664Z" transform="translate(-1345.157 -335.054)" fill="#fff"/>
</svg>
