<svg xmlns="http://www.w3.org/2000/svg" width="68.99" height="68.949" viewBox="0 0 68.99 68.949">
  <g id="Group_1782" data-name="Group 1782" transform="translate(-1143 -963)">
    <g id="Group_1781" data-name="Group 1781" transform="translate(1048.204 925.071)">
      <path id="Path_891" data-name="Path 891" d="M108.163,99.238a1.44,1.44,0,0,1-.385-.052l-8.4-1.614a1.418,1.418,0,0,1,.228-2.817,1.463,1.463,0,0,1,.295.031l3.752.719-1.113-1.377a34.488,34.488,0,0,1-5.589-9.865A33.913,33.913,0,0,1,101,52.784a34.428,34.428,0,0,1,28.112-14.855,34.867,34.867,0,0,1,7.263.774,1.419,1.419,0,0,1-.3,2.806,1.45,1.45,0,0,1-.3-.032,31.989,31.989,0,0,0-6.665-.711A31.546,31.546,0,0,0,103.36,54.382a31.152,31.152,0,0,0-3.751,28.906,31.649,31.649,0,0,0,5.14,9.068l1.472,1.818-.578-4.093a1.425,1.425,0,0,1,1.193-1.579,1.463,1.463,0,0,1,.217-.017,1.426,1.426,0,0,1,1.4,1.205l1.123,7.924h0a1.412,1.412,0,0,1-.039.579A1.429,1.429,0,0,1,108.163,99.238Z" fill="#003149"/>
      <path id="Path_892" data-name="Path 892" d="M129.4,106.878a34.772,34.772,0,0,1-7.155-.752,1.419,1.419,0,0,1,.307-2.8,1.346,1.346,0,0,1,.289.031,31.6,31.6,0,0,0,31.031-50.88L152.4,50.668l.58,4.083a1.429,1.429,0,0,1-1.217,1.626,1.316,1.316,0,0,1-.187.013,1.421,1.421,0,0,1-1.4-1.235l-1.124-7.943a1.425,1.425,0,0,1,1.409-1.622,1.4,1.4,0,0,1,.385.054l8.4,1.612a1.442,1.442,0,0,1,.958.625,1.405,1.405,0,0,1,.2,1.067,1.423,1.423,0,0,1-1.384,1.125,1.4,1.4,0,0,1-.3-.031l-3.751-.718,1.113,1.377A34.457,34.457,0,0,1,129.4,106.878Z" fill="#fd8800"/>
      <path id="Path_893" data-name="Path 893" d="M129.3,93.325a20.766,20.766,0,1,1,20.766-20.8A20.8,20.8,0,0,1,129.3,93.325ZM111.39,73.172a17.926,17.926,0,1,0,17.949-18.543H129.3a17.957,17.957,0,0,0-17.929,17.893l0,.65Z" fill="#003149"/>
      <path id="Path_894" data-name="Path 894" d="M129.307,85.541a1.419,1.419,0,0,1-1.418-1.418V81.729l-.889.027a6.223,6.223,0,0,1-3.613-1.15A1.418,1.418,0,1,1,125,78.271a3.411,3.411,0,0,0,1.893.644h4.587a2.49,2.49,0,0,0,0-4.979h-4.522a5.326,5.326,0,0,1-5.185-5.457,5.357,5.357,0,0,1,5.32-5.192l.8.018V60.917a1.418,1.418,0,0,1,2.836,0v2.362l.636.012a6.308,6.308,0,0,1,4.485,2,1.418,1.418,0,0,1-2.078,1.929,3.438,3.438,0,0,0-2.431-1.1h-4.172a2.489,2.489,0,0,0-.034,4.978l4.527,0a5.325,5.325,0,0,1-.131,10.648l-.8-.018,0,2.386A1.419,1.419,0,0,1,129.307,85.541Z" fill="#fd8800"/>
    </g>
  </g>
</svg>
