<svg xmlns="http://www.w3.org/2000/svg" width="73.849" height="72.603" viewBox="0 0 73.849 72.603">
  <g id="Group_5518" data-name="Group 5518" transform="translate(15979.999 12165)">
    <path id="Path_1155" data-name="Path 1155" d="M705.567,111.993a1.847,1.847,0,0,1,1.784-.782c1.017.052,2.039.013,3.139.013,0-1.161,0-2.255,0-3.35.005-1.156.419-1.57,1.579-1.572,3.051,0,6.1-.03,9.154.027a2.443,2.443,0,0,1,1.47.625c1.318,1.216,2.572,2.5,3.819,3.794a1.506,1.506,0,0,0,1.211.485c2.431-.021,4.862-.009,7.337-.009v2.421h-26.98v27.09h7.272v2.474h-2.361v20.881h8.528V143.53c-.617.263-1.194.525-1.783.758a1.243,1.243,0,0,1-1.857-1.259c-.016-1.923.005-3.846-.01-5.769a1.4,1.4,0,0,1,.956-1.416c6.406-2.794,12.8-5.609,19.221-8.374a2.132,2.132,0,0,1,1.521,0c6.393,2.758,12.764,5.567,19.147,8.349a1.489,1.489,0,0,1,1.016,1.535c-.025,1.871,0,3.743-.011,5.615-.008,1.244-.8,1.761-1.944,1.287-.56-.232-1.112-.484-1.745-.76v5.832h-2.461c0-1.98-.04-3.948.02-5.912a1.257,1.257,0,0,0-.9-1.416c-4.426-1.89-8.831-3.828-13.234-5.771a1.449,1.449,0,0,0-1.3-.008q-6.778,3-13.578,5.942a.741.741,0,0,0-.561.775q.025,10.385.013,20.769c0,.122.016.244.028.4h3.663V163.3q0-7.346,0-14.692c0-1.31.381-1.69,1.692-1.691q3.308,0,6.616,0c1.1,0,1.536.433,1.537,1.538q.006,7.385,0,14.769v.876h12.85a14.075,14.075,0,0,1-.5-1.835,4.128,4.128,0,0,1,1.395-3.735,3.136,3.136,0,0,0,1.072-2.428,6.227,6.227,0,0,1,1.179-3.522,4.439,4.439,0,0,1,7.413.031,6.844,6.844,0,0,1,1.189,3.834,2.211,2.211,0,0,0,.7,1.714A4.593,4.593,0,0,1,764,164.147h7.991V105.131h-31.94v19.59H737.6V105.069c-.79,0-1.5.006-2.207,0-1.065-.01-1.51-.439-1.516-1.481q-.014-2.231,0-4.462A1.261,1.261,0,0,1,735.2,97.68q14.131-1.242,28.262-2.485c4.314-.382,8.627-.78,12.941-1.17,1.306-.118,1.778.318,1.779,1.651q0,3.885,0,7.769c0,1.21-.409,1.618-1.608,1.624-.662,0-1.325,0-2.035,0v59.058h4.875v2.481H705.567v-2.462h4.878V143.224c-1.062,0-2.082-.039-3.1.013a1.853,1.853,0,0,1-1.78-.782Zm70.116-15.418L736.4,100.041v2.529h39.284ZM757.26,141.333c0-1.123.022-2.138-.021-3.151-.007-.176-.254-.416-.446-.5q-8.746-3.853-17.511-7.662a1.292,1.292,0,0,0-.924-.007q-8.8,3.816-17.585,7.682c-.165.073-.407.24-.411.369-.033,1.056-.019,2.114-.019,3.242.31-.117.5-.18.687-.26,5.555-2.432,11.115-4.853,16.657-7.314a2.535,2.535,0,0,1,2.257.01c3.807,1.7,7.635,3.359,11.456,5.03C753.317,139.611,755.235,140.448,757.26,141.333Zm-27.024,8.08v14.672h4.831V149.413Zm27.055,14.734a16.328,16.328,0,0,0,2.15-.022,4.264,4.264,0,0,0,1.709-.561,1.977,1.977,0,0,0,.339-3.261,5.16,5.16,0,0,1-1.8-4,4.353,4.353,0,0,0-.292-1.423,2.289,2.289,0,0,0-2.047-1.809,2.367,2.367,0,0,0-2.235,1.795,10.232,10.232,0,0,0-.308,1.652c-.058.378-.059.765-.121,1.142a5.429,5.429,0,0,1-1.753,2.734,1.855,1.855,0,0,0,.034,2.793,4.682,4.682,0,0,0,2.025.921A11.406,11.406,0,0,0,757.292,164.147ZM723.5,111.205c-.756-.757-1.383-1.431-2.066-2.043a1.553,1.553,0,0,0-.923-.383c-1.844-.035-3.69-.017-5.535-.017h-1.965v2.443Z" transform="translate(-16685.566 -12259.006)" fill="#fff"/>
    <path id="Path_1156" data-name="Path 1156" d="M739.994,257.311h2.354v2.423c-1.294,0-2.619.079-3.928-.031-.738-.062-.958-.728-.956-1.449.012-3.46.005-6.92.005-10.38,0-2.922,0-5.844,0-8.766,0-1.022.44-1.487,1.428-1.487q11.419-.008,22.838,0c.076,0,.152.014.288.028v2.412H751.039v12.265h-2.47v-12.2h-8.574Z" transform="translate(-16712.547 -12380.477)" fill="#fff"/>
    <path id="Path_1157" data-name="Path 1157" d="M953.036,194.545c0-1.128-.008-2.256,0-3.384.009-1.009.45-1.458,1.454-1.462q3.461-.014,6.923,0c1.008,0,1.46.451,1.464,1.454q.014,3.461,0,6.922c0,1.007-.454,1.46-1.455,1.464q-3.461.014-6.923,0c-1.007,0-1.454-.452-1.463-1.455C953.028,196.9,953.036,195.724,953.036,194.545Zm2.495,2.48h4.828V192.2h-4.828Z" transform="translate(-16894.879 -12339.939)" fill="#fd8800"/>
    <path id="Path_1158" data-name="Path 1158" d="M1053.678,199.541c-1.128,0-2.256.008-3.384,0-1.005-.01-1.455-.454-1.459-1.459q-.014-3.461,0-6.922c0-1.007.451-1.455,1.457-1.459q3.461-.014,6.923,0c1.006,0,1.456.453,1.46,1.457q.014,3.461,0,6.922c0,1-.455,1.451-1.459,1.461C1056.037,199.549,1054.857,199.541,1053.678,199.541Zm2.5-2.495V192.2h-4.829v4.842Z" transform="translate(-16975.906 -12339.939)" fill="#fd8800"/>
    <path id="Path_1159" data-name="Path 1159" d="M1053.808,277.513c1.128,0,2.256-.007,3.384,0,1.014.008,1.47.447,1.475,1.443q.016,3.461,0,6.922c0,1.014-.448,1.471-1.444,1.475q-3.5.015-7,0a1.233,1.233,0,0,1-1.395-1.366q-.021-3.538,0-7.076c0-.945.472-1.388,1.441-1.4C1051.449,277.5,1052.628,277.514,1053.808,277.513Zm-2.488,7.33h4.828v-4.827h-4.828Z" transform="translate(-16975.898 -12414.219)" fill="#fd8800"/>
    <path id="Path_1160" data-name="Path 1160" d="M933.941,461.752c-1.128,0-2.256.007-3.384,0-1.016-.009-1.47-.446-1.475-1.443q-.016-2.846,0-5.692c0-1.016.444-1.471,1.441-1.475q3.461-.015,6.922,0c1.015,0,1.471.446,1.477,1.441q.017,2.846,0,5.692c-.005,1.039-.456,1.472-1.519,1.479C936.249,461.758,935.1,461.752,933.941,461.752Zm2.462-2.491v-3.624h-4.818v3.624Z" transform="translate(-16874.613 -12562.765)" fill="#fd8800"/>
    <path id="Path_1161" data-name="Path 1161" d="M962.974,286.072H960.55v-6.061h-4.933v2.354h-2.448c0-1.3-.075-2.624.05-3.931a1.428,1.428,0,0,1,1.049-.9c2.509-.081,5.023-.063,7.534-.031a1.115,1.115,0,0,1,1.161,1.191C962.99,281.128,962.974,283.56,962.974,286.072Z" transform="translate(-16894.977 -12414.191)" fill="#fd8800"/>
    <path id="Path_1162" data-name="Path 1162" d="M1072.922,375.241V372.83h3.62V367.9h-3.575v-2.469c1.684,0,3.391-.045,5.094.024a1.079,1.079,0,0,1,.989,1.187c.014,2.46.019,4.921,0,7.381a1.122,1.122,0,0,1-1.145,1.207C1076.266,375.271,1074.63,375.241,1072.922,375.241Z" transform="translate(-16996.285 -12488.569)" fill="#fd8800"/>
    <path id="Path_1163" data-name="Path 1163" d="M873.454,407.988v-2.362h2.375v2.362Z" transform="translate(-16827.568 -12522.582)" fill="#fd8800"/>
    <path id="Path_1164" data-name="Path 1164" d="M769.819,437.379h2.356v2.394h-2.356Z" transform="translate(-16739.912 -12549.44)" fill="#fd8800"/>
  </g>
</svg>
