<svg xmlns="http://www.w3.org/2000/svg" width="70.526" height="71.158" viewBox="0 0 70.526 71.158">
  <g id="Group_5488" data-name="Group 5488" transform="translate(-998.591 -768.241)">
    <path id="Path_1038" data-name="Path 1038" d="M0,245.3a6.1,6.1,0,0,1,1.1-.812c6.065-2.673,12.144-5.317,18.21-7.988A1.941,1.941,0,0,1,21,236.482q9.1,4,18.211,7.957a1.628,1.628,0,0,1,1.129,1.756c-.058,1.752-.012,3.507-.019,5.261-.005,1.191-.77,1.688-1.879,1.227-.539-.224-1.071-.465-1.684-.731v5.6H34.4v-1.048c0-1.655-.015-3.31.01-4.965a.8.8,0,0,0-.554-.892c-4.41-1.907-8.806-3.845-13.218-5.748a1.337,1.337,0,0,0-.954.006c-4.409,1.9-8.8,3.837-13.206,5.757-.336.147-.557.287-.556.735q.027,10.041.015,20.081a2.708,2.708,0,0,0,.039.313H9.489v-.777q0-7.077,0-14.153c0-1.3.33-1.634,1.6-1.635q3.187,0,6.374,0c1.138,0,1.515.371,1.515,1.494q0,7.114,0,14.227v.839H31.3a19.429,19.429,0,0,1-.448-2.081,3.651,3.651,0,0,1,1.2-3.136,3.773,3.773,0,0,0,1.209-2.647c.174-2.158,1.008-4.04,3.232-4.891a4.191,4.191,0,0,1,4.8,1.336,5.743,5.743,0,0,1,1.353,3.606,3.524,3.524,0,0,0,1.183,2.582,4.24,4.24,0,0,1-.352,6.344,14.924,14.924,0,0,1-2.268,1.3H0V271.83H3.51V251.985c-.513.216-.964.4-1.412.6-1.06.457-1.392.384-2.1-.466V245.3m37.954,4.531c0-.965-.031-1.78.011-2.592a.867.867,0,0,0-.621-.982c-4.7-2.033-9.393-4.1-14.088-6.148-1.015-.444-2.036-1.228-3.051-1.223-1.043.005-2.087.773-3.123,1.225q-7.108,3.1-14.206,6.226c-.2.09-.473.33-.482.512-.048.952-.023,1.908-.023,2.977.342-.146.584-.246.825-.351q8.025-3.5,16.046-7.02a2.076,2.076,0,0,1,1.83-.011c3.6,1.6,7.214,3.169,10.823,4.746,1.979.865,3.96,1.725,6.058,2.64m-21.4,7.831H11.9V271.8h4.655Zm21.328,14.172a15.5,15.5,0,0,0,2.145-.023,4.155,4.155,0,0,0,1.7-.588,1.876,1.876,0,0,0,.283-3.088,4.986,4.986,0,0,1-1.736-3.771,5.052,5.052,0,0,0-.456-1.85,1.962,1.962,0,0,0-3.673-.116,7.769,7.769,0,0,0-.545,2.344,4.374,4.374,0,0,1-1.114,2.746c-.231.257-.484.494-.715.752a1.836,1.836,0,0,0,.008,2.656,2.745,2.745,0,0,0,2.023.934c.691.016,1.383,0,2.074,0" transform="translate(998.591 565.198)" fill="#003149"/>
    <path id="Path_1039" data-name="Path 1039" d="M66.572,21.952H69a20.791,20.791,0,0,1-.229,3.347,3.446,3.446,0,0,1-3.916,2.527,3.553,3.553,0,0,1-3.021-3.493c-.01-1.574,0-3.147,0-4.755H58.3V46.77H55.9v-.746q0-13.634,0-27.267c0-1.24.342-1.584,1.572-1.585,1.428,0,2.857,0,4.32,0a4.828,4.828,0,0,1,1.742-3.658,4.708,4.708,0,0,1,3.217-1.091c2.452.056,4.2,1.805,4.637,4.749h.863q11.783,0,23.566-.011a2.026,2.026,0,0,1,1.569.643q3.829,3.873,7.7,7.7a1.942,1.942,0,0,1,.634,1.5c-.02,4.767-.011,9.534-.011,14.3v.714h-2.363V27.842h-4.58c-.766,0-1.532,0-2.3,0-1.035-.006-1.43-.4-1.432-1.429q-.006-3.038,0-6.076v-.774H66.634V17.193H68.89a2.333,2.333,0,0,0-4.665-.123c-.055,2.395-.033,4.791-.009,7.187a1.2,1.2,0,0,0,1.168,1.205,1.214,1.214,0,0,0,1.179-1.2c.037-.758.008-1.518.008-2.313m30.893-.457V25.43h3.945l-3.945-3.935" transform="translate(950.991 755.821)" fill="#fd8800"/>
    <path id="Path_1040" data-name="Path 1040" d="M318.349,170.695c.813.905,1.605,1.784,2.393,2.666a1.362,1.362,0,0,1,.146,2.042q-2.4,3.56-4.814,7.111c-.094.139-.2.27-.331.448l-1.973-1.325,4.788-7.091-1.587-1.776c-.187.261-.345.473-.493.692q-7.135,10.547-14.283,21.085a4.24,4.24,0,0,1-1.282,1.17c-1.262.77-2.574,1.457-3.858,2.191a1.235,1.235,0,0,1-1.961-1.3c.232-1.635.412-3.277.65-4.911a2.365,2.365,0,0,1,.4-.934q9.487-14.047,18.993-28.081a3.569,3.569,0,0,1,6.6,1.49,3.531,3.531,0,0,1-.678,2.511c-.9,1.328-1.794,2.654-2.713,4.013m-13.807,16.112,10.754-15.9-1.609-1.792L302.61,185.5l1.933,1.311m-3.285.689c-.942,1.393-1.852,2.767-2.793,4.119-.641.922-.453,1.981-.709,3.165a8.789,8.789,0,0,0,2.281-1.422c1.15-1.425,2.1-3.007,3.157-4.555l-1.936-1.307m15.434-18.65c.856-1.27,1.667-2.442,2.442-3.638a1.16,1.16,0,0,0-.261-1.583,1.088,1.088,0,0,0-1.578.2c-.765,1.047-1.471,2.136-2.212,3.224l1.609,1.8" transform="translate(747.346 629.344)" fill="#fd8800"/>
    <rect id="Rectangle_908" data-name="Rectangle 908" width="35.484" height="2.282" transform="translate(1014.071 792.017)" fill="#fd8800"/>
    <rect id="Rectangle_909" data-name="Rectangle 909" width="35.486" height="2.296" transform="translate(1014.05 796.74)" fill="#fd8800"/>
    <rect id="Rectangle_910" data-name="Rectangle 910" width="28.368" height="2.285" transform="translate(1021.162 787.259)" fill="#fd8800"/>
    <path id="Path_1041" data-name="Path 1041" d="M148.514,388.023c-1.16,0-2.32.008-3.479,0a1.16,1.16,0,0,1-1.311-1.322q-.012-2.85,0-5.7a1.14,1.14,0,0,1,1.283-1.272q3.442-.014,6.885,0a1.159,1.159,0,0,1,1.312,1.32q.013,2.85,0,5.7a1.147,1.147,0,0,1-1.285,1.273c-1.135.012-2.27,0-3.405,0m-2.382-2.416h4.652v-3.479h-4.652Z" transform="translate(876.22 443.074)" fill="#003149"/>
    <path id="Path_1042" data-name="Path 1042" d="M319.636,372.593V370.24H327.9V356.028h2.331c.014.213.041.425.041.637q0,7.221,0,14.441c0,1.091-.383,1.484-1.449,1.485-3.036,0-6.071,0-9.191,0" transform="translate(726.429 463.248)" fill="#fd8800"/>
    <rect id="Rectangle_911" data-name="Rectangle 911" width="17.692" height="2.292" transform="translate(1031.842 801.485)" fill="#fd8800"/>
    <rect id="Rectangle_912" data-name="Rectangle 912" width="3.46" height="2.288" transform="translate(1041.343 806.244)" fill="#fd8800"/>
    <rect id="Rectangle_913" data-name="Rectangle 913" width="2.266" height="2.304" transform="translate(1016.441 787.275)" fill="#fd8800"/>
    <rect id="Rectangle_914" data-name="Rectangle 914" width="2.284" height="2.278" transform="translate(1011.687 815.719)" fill="#003149"/>
  </g>
</svg>
