<svg xmlns="http://www.w3.org/2000/svg" width="75.844" height="60.182" viewBox="0 0 75.844 60.182">
  <g id="Group_994" data-name="Group 994" transform="translate(-917.305 -1081.996)">
    <g id="Group_662" data-name="Group 662" transform="translate(917.305 1081.996)">
      <g id="Group_661" data-name="Group 661">
        <g id="Group_660" data-name="Group 660" transform="translate(0 0)">
          <path id="Path_775" data-name="Path 775" d="M74.868,98.245l-1.99-1.99a1.111,1.111,0,0,0-1.571,1.571l1.99,1.99a1.111,1.111,0,0,1,0,1.571l-2.718,2.718a1.112,1.112,0,0,1-1.571,0L57.389,92.487,61.678,88.2,67.64,94.16a1.111,1.111,0,0,0,1.571-1.571L63.1,86.476a2.007,2.007,0,0,0-2.672-.15l-3.6-3.6a18.18,18.18,0,0,0-21.585-27.1v-1.2a1.557,1.557,0,0,0-1.555-1.555h-28a1.557,1.557,0,0,0-1.555,1.555v10.14a1.557,1.557,0,0,0,1.555,1.555H24.728a18.181,18.181,0,0,0,12.565,24.14v20.569H34.813V93.783a1.652,1.652,0,0,0-1.65-1.65H27.888a1.652,1.652,0,0,0-1.65,1.65v17.042H23.759V102.51a1.111,1.111,0,0,0-2.222,0v8.315H17.406V84.811h4.131V97.326a1.111,1.111,0,0,0,2.222,0V84.239a1.652,1.652,0,0,0-1.65-1.65H16.834a1.652,1.652,0,0,0-1.65,1.65v26.586H12.7V73.453a1.652,1.652,0,0,0-1.65-1.65H5.779a1.652,1.652,0,0,0-1.65,1.65v37.373H1.111a1.111,1.111,0,1,0,0,2.222H48.886a1.111,1.111,0,1,0,0-2.222H45.868V90.32a18.1,18.1,0,0,0,5.95-2.593l3.619,3.619a2.011,2.011,0,0,0,.23,2.563l11.769,11.769a3.337,3.337,0,0,0,4.714,0l2.718-2.718a3.333,3.333,0,0,0,0-4.714ZM10.483,110.825H6.351v-36.8h4.131Zm22.109,0H28.46V94.355h4.131ZM6.351,63.895V55.088H33.015v8.807H6.351Zm37.295,46.931H39.515V90.667a18.105,18.105,0,0,0,4.131.029ZM41.711,88.578A15.959,15.959,0,0,1,27.132,66.117h2.556a13.67,13.67,0,1,0,25.424,9.209,1.111,1.111,0,0,0-2.178-.44,11.448,11.448,0,1,1-20.64-8.769h1.388a1.557,1.557,0,0,0,1.555-1.555v-1.38a11.375,11.375,0,0,1,6.474-2.016,11.516,11.516,0,0,1,11.181,8.994,1.111,1.111,0,0,0,2.171-.476,13.691,13.691,0,0,0-13.352-10.74,13.581,13.581,0,0,0-6.474,1.635V58.025a15.963,15.963,0,1,1,6.474,30.553ZM53.6,86.366A18.359,18.359,0,0,0,55.462,84.5l3.384,3.384L56.984,89.75Z" transform="translate(0 -52.866)" fill="#003149"/>
          <path id="Path_776" data-name="Path 776" d="M231.741,127.677a8.667,8.667,0,1,0,8.667,8.667A8.677,8.677,0,0,0,231.741,127.677Zm0,15.111a6.44,6.44,0,0,1-5.274-10.142l4.489,4.483a1.111,1.111,0,0,0,.785.325h6.347a6.454,6.454,0,0,1-6.347,5.334Zm.46-7.556-4.164-4.158a6.437,6.437,0,0,1,10.05,4.158H232.2Z" transform="translate(-190.03 -116.595)" fill="#fd8800"/>
          <path id="Path_777" data-name="Path 777" d="M65.68,90.092H61.988a1.111,1.111,0,0,0,0,2.222H65.68a1.111,1.111,0,1,0,0-2.222Z" transform="translate(-51.859 -84.578)" fill="#fd8800"/>
          <path id="Path_778" data-name="Path 778" d="M121.987,90.092h-12a1.111,1.111,0,0,0,0,2.222h12a1.111,1.111,0,1,0,0-2.222Z" transform="translate(-92.749 -84.578)" fill="#fd8800"/>
        </g>
      </g>
    </g>
  </g>
</svg>
