<svg id="Group_5491" data-name="Group 5491" xmlns="http://www.w3.org/2000/svg" xmlns:xlink="http://www.w3.org/1999/xlink" width="78.213" height="78.147" viewBox="0 0 78.213 78.147">
  <defs>
    <clipPath id="clip-path">
      <rect id="Rectangle_930" data-name="Rectangle 930" width="78.213" height="78.147" fill="#003149"/>
    </clipPath>
  </defs>
  <g id="Group_5490" data-name="Group 5490" clip-path="url(#clip-path)">
    <path id="Path_1152" data-name="Path 1152" d="M22.9,0c.88.215,1.776.38,2.638.653A14.466,14.466,0,0,1,31.516,4.47a3.792,3.792,0,0,0,1.208.877A7.955,7.955,0,0,1,37.843,12.8c.041,4.1.033,8.193,0,12.289a5,5,0,0,1-5,5.155,1.216,1.216,0,0,0-1.155.724,17.615,17.615,0,0,1-2.073,2.8A1.992,1.992,0,0,0,29,35.285c.037,1.566.012,1.567,1.559,2.016,2.751.8,5.518,1.544,8.243,2.424a15.728,15.728,0,0,1,3.112,1.541.824.824,0,0,0,1.061-.006c3.547-2.376,7.113-4.723,10.654-7.109a.9.9,0,0,1,1.2.011q10.588,7.07,21.206,14.094a4.83,4.83,0,0,1,1.811,5.968,4.1,4.1,0,0,1-5.8,2.01c-.437-.242-.853-.521-1.4-.856V78.147h-32.8V69c-1.684.649-3.338.335-4.963.344-6.589.038-13.178,0-19.767.025A5.121,5.121,0,0,1,7.86,66a.666.666,0,0,0-.464-.37c-2.465-.006-4.931.018-7.4.036V47.033c.055-.166.122-.33.163-.5A8.845,8.845,0,0,1,6.613,39.7c2.743-.82,5.5-1.6,8.246-2.4,1.494-.433,1.459-.431,1.511-1.979a1.893,1.893,0,0,0-.7-1.638,6.571,6.571,0,0,1-1.431-1.764c-.571-1.078-1.134-2.02-2.583-1.722-.065.013-.143-.046-.216-.066a5.1,5.1,0,0,1-3.9-5.318c-.018-3.586-.03-7.172,0-10.758A13.764,13.764,0,0,1,17,.7c.877-.3,1.8-.468,2.7-.7ZM40.357,75.556h27.7c.014-.163.03-.263.03-.362,0-7.022.007-14.043-.019-21.065a1.184,1.184,0,0,0-.492-.815c-4.281-2.877-8.582-5.724-12.871-8.589a.7.7,0,0,0-.933-.029c-4.305,2.887-8.631,5.742-12.934,8.632a1.2,1.2,0,0,0-.46.839c-.039,2.085-.007,4.172-.032,6.258a.826.826,0,0,0,.57.856c1.554.751,3.093,1.534,4.636,2.308.442.222.88.453,1.419.731-2.105,1.053-4.082,2.031-6.044,3.038-.232.119-.542.4-.545.607-.038,2.513-.024,5.027-.024,7.589m-5.1-54.84c0-2.851.11-5.7-.038-8.538a4.691,4.691,0,0,0-3.109-4.265,7.724,7.724,0,0,1-2.68-1.9,11.186,11.186,0,0,0-19.19,6.364c-.185,2.276-.11,4.572-.149,6.859-.009.5,0,.991,0,1.495l2.49-.7a14.91,14.91,0,0,0-.01-1.527c-.069-.691.157-.93.877-.9a5.837,5.837,0,0,0,5.534-2.987c.275-.443.6-.859.792-1.139,1.768.98,3.4,2.015,5.142,2.819a15.87,15.87,0,0,0,7.128,1.309c.6-.015.823.169.778.772-.043.576-.009,1.158-.009,1.645l2.446.685M12.952,40.56c-.249.045-.377.057-.5.092-1.873.548-3.766,1.036-5.611,1.665a6.079,6.079,0,0,0-4.267,5.956c-.033,4.758-.011,9.516-.009,14.274,0,.145.03.291.053.5,1.633,0,3.23.014,4.825-.022.161,0,.341-.293.467-.48.393-.584.638-1.358,1.17-1.738a2.438,2.438,0,0,0,1-2.545,6.343,6.343,0,0,1,0-.687V54.267h2.576v4.985c1.687,0,3.308.013,4.928-.021.153,0,.387-.282.435-.471Q18.988,55,19.9,51.233a.766.766,0,0,0-.1-.6c-.659-.733-1.356-1.433-2.041-2.145L15.685,50.1,12.952,40.56M30.09,20.148A20.782,20.782,0,0,1,20.5,16.92a8.648,8.648,0,0,1-5,3.123c-.166.037-.349.447-.353.687-.03,1.7-.064,3.412,0,5.114a12.056,12.056,0,0,0,.423,2.918,7.5,7.5,0,0,0,7.379,5.274,7.364,7.364,0,0,0,7.082-6.129,65.994,65.994,0,0,0,.06-7.76M75.6,52.249a1.866,1.866,0,0,0-1.066-1.908Q64.676,43.816,54.849,37.25a.968.968,0,0,0-1.274.007q-7.411,4.966-14.85,9.891c-1.714,1.14-3.425,2.285-5.146,3.416a2.08,2.08,0,0,0-.722,2.32,1.3,1.3,0,0,0,1.256,1.234,3.216,3.216,0,0,0,1.665-.534q8.913-5.875,17.776-11.824a1,1,0,0,1,1.327,0q8.964,6,17.957,11.966a1.742,1.742,0,0,0,1.918.277,1.632,1.632,0,0,0,.84-1.759M29.7,50.1l-2.044-1.6c-.648.663-1.227,1.307-1.865,1.887a.947.947,0,0,0-.281,1.073c.605,2.357,1.22,4.712,1.776,7.08.13.556.329.737.9.722,1.6-.04,3.205-.055,4.806,0s3.218-.292,4.757.319V55.4c-.49.3-.89.57-1.308.806A4.14,4.14,0,0,1,30.6,54.289,4.822,4.822,0,0,1,32.3,48.356c2.591-1.742,5.195-3.463,7.916-5.274-2.5-1.316-5.18-1.692-7.759-2.578L29.7,50.1M35.25,61.875H17.745v4.894H35.25Zm-20.165-.034c-.97,0-1.883-.046-2.79.011a2.479,2.479,0,0,0-2.194,2.36,2.422,2.422,0,0,0,1.926,2.5,26.782,26.782,0,0,0,3.058.024ZM26.366,35.9a10.522,10.522,0,0,1-7.593-.076c.173.716.14,1.371.45,1.726,1.07,1.222,2.259,2.339,3.449,3.542,1.025-1.027,1.967-2.063,3.011-2.982a2.037,2.037,0,0,0,.683-2.21m-1.539,23.33c-.6-2.422-1.185-4.781-1.785-7.135-.034-.132-.215-.227-.328-.339-.137.15-.351.279-.4.454-.286,1.051-.534,2.111-.8,3.169-.314,1.268-.629,2.536-.955,3.851ZM17.095,45.719l3.692-2.966a25.01,25.01,0,0,1-2.325-2.342,2.043,2.043,0,0,0-2.862-.654,1.24,1.24,0,0,0-.168.14l1.663,5.822M24.6,42.768l3.7,2.944,1.672-5.9c-.555-.162-1.007-.321-1.472-.417a.77.77,0,0,0-.6.106c-1.093,1.049-2.158,2.125-3.3,3.262m-4.9,4.149c.733.727,1.4,1.415,2.1,2.069a1.86,1.86,0,0,0,1.892-.091c.658-.63,1.3-1.271,2.014-1.964L22.7,44.516l-2.993,2.4M32.815,22.792v4.844a2.368,2.368,0,0,0,2.459-2.351,2.4,2.4,0,0,0-2.459-2.492M12.566,27.668V22.78a2.444,2.444,0,1,0,0,4.888M37.875,66.006l3.386-1.694-3.386-1.686Z" fill="#003149"/>
    <path id="Path_1153" data-name="Path 1153" d="M289.031,347.29l4.58-6.881H283.03v2.422h-2.505v-5.045h.84c4.4,0,8.8-.011,13.2.013a1.245,1.245,0,0,0,1.232-.644c.8-1.287,1.676-2.531,2.549-3.833l2.114,1.406-1.992,3.039h4.667v17.67h-22.6v-4.956h2.448v2.371h17.631V340.362c-1.242,0-2.456-.024-3.668.024-.2.008-.433.3-.577.517q-3.189,4.746-6.355,9.506c-.152.228-.315.448-.429.61l-4.774-4.774,1.692-1.655,2.528,2.7" transform="translate(-237.616 -282.335)" fill="#fd8800"/>
  </g>
</svg>
