<svg xmlns="http://www.w3.org/2000/svg" width="74.045" height="74.065" viewBox="0 0 74.045 74.065">
  <g id="Group_5516" data-name="Group 5516" transform="translate(16701 11582.567)">
    <path id="Path_1204" data-name="Path 1204" d="M-769.17-4.135a6.4,6.4,0,0,1-.781,1.67,8.362,8.362,0,0,1-2.113,1.781A1.128,1.128,0,0,0-772.777.5c.028,3.446.013,6.893.013,10.34v.87h-8.3c-.063.4-.09.729-.171,1.048a4.64,4.64,0,0,1-3.226,3.49,1.225,1.225,0,0,0-.884.814,20.812,20.812,0,0,1-6.519,9.283,20.161,20.161,0,0,1-12.4,4.493c-1.415.037-2.831.006-4.312.006V49.931h-17.87v4.808h-16.776V30.85h2.408c.062-.3.117-.556.167-.811a11.78,11.78,0,0,1,7.587-9.288c1.6-.632,3.319-.978,4.978-1.474.229-.068.547-.2.614-.382a15.731,15.731,0,0,0,.45-1.705,8.4,8.4,0,0,1-5.276-6.243c-.091-.427-.348-.423-.672-.462a4.553,4.553,0,0,1-3.984-3.114,4.547,4.547,0,0,1,1.022-4.89,9.864,9.864,0,0,1,.738-.669c-.462-.936-.906-1.789-1.309-2.66a7.763,7.763,0,0,1,3.29-10.222,28.4,28.4,0,0,0,4.776-3.175c3.882-3.076,8.465-3.291,13.013-2.35A11.7,11.7,0,0,1-807.339-.056c-.292.627-.6,1.244-.9,1.86a4.7,4.7,0,0,1,1.872,5.158,4.741,4.741,0,0,1-4.694,3.606,8.49,8.49,0,0,1-1.773,4.008,8.55,8.55,0,0,1-3.59,2.6,8.409,8.409,0,0,1,.242,1.036c.069.669.411.949,1.076,1.084,2.381.484,4.747,1.044,7.121,1.562a13.327,13.327,0,0,0,13.909-4.715,3.53,3.53,0,0,0,1.05-2.9,7.961,7.961,0,0,1,.092-1.5h-.707c-1.542,0-3.085-.028-4.627.014-.612.017-.767-.182-.762-.774.025-3.495,0-6.99.026-10.485a1.047,1.047,0,0,0-.736-1.169,4.451,4.451,0,0,1-2.832-4.24,1.458,1.458,0,0,1,.406-.982q6.55-6.121,13.145-12.194a4.6,4.6,0,0,1,6.3.025c1.932,1.78,3.852,3.573,5.784,5.352q3.879,3.572,7.77,7.132Zm-41.793,51.646V26.136h2.425v2.211c5.547.476,10.715-.226,15.142-3.826a17.973,17.973,0,0,0,5.676-8.006,14.1,14.1,0,0,1-1.91-.015,2.828,2.828,0,0,0-2.775,1.282,15.347,15.347,0,0,1-15.838,5.45c-1.783-.367-3.557-.777-5.393-1.18-.385,4.2-.762,8.333-1.162,12.7l-6.942-6.993c-1.453,1.46-2.879,2.86-4.256,4.307a1.8,1.8,0,0,0-.468,1.115c-.032,4.53-.021,9.061-.019,13.591,0,.234.023.469.037.743Zm-15.5-55.32c.1.088.234.19.348.31a15.318,15.318,0,0,0,11.483,4.907A3.531,3.531,0,0,1-810.993.474a2.087,2.087,0,0,0,.262.5,2.05,2.05,0,0,0,.418-.426c.345-.661.69-1.325.98-2.011A9.345,9.345,0,0,0-815.8-14.24a21.392,21.392,0,0,0-4.738-.293,10.453,10.453,0,0,0-8.409,4.074,1.854,1.854,0,0,1-1.174.72,5.588,5.588,0,0,0-4.066,8.189c.325.672.649,1.345,1.008,2a2.64,2.64,0,0,0,.506.516,2.712,2.712,0,0,0,.181-.706,3.887,3.887,0,0,1,.868-2.973C-829.936-4.434-828.2-6.1-826.466-7.809Zm34.6,17.106c0-2.044-.027-4.018.006-5.991a5.938,5.938,0,0,1,5.613-5.884A5.823,5.823,0,0,1-780,2.674c.177,1.889.074,3.8.1,5.706,0,.3,0,.6,0,.906h4.778v-.82c0-2.483-.085-4.969.033-7.446a3.93,3.93,0,0,0-1.372-3.314c-3.18-3.053-6.255-6.216-9.386-9.351-.118.1-.216.163-.3.245q-5.089,5.085-10.162,10.185a1.382,1.382,0,0,0-.315.888c-.023,2.844-.014,5.688-.014,8.533V9.3ZM-826.556-4.454c-.97.975-1.991,1.932-2.919,2.973a2.33,2.33,0,0,0-.568,1.388c-.05,3.084-.036,6.169-.023,9.253a5.916,5.916,0,0,0,6.088,6.135c1.445.016,2.891.007,4.336,0a5.94,5.94,0,0,0,6.274-6.246c.017-2.554.007-5.108,0-7.663,0-1.228-.374-1.608-1.587-1.61a16.949,16.949,0,0,1-8.31-2.1C-824.372-2.934-825.4-3.7-826.556-4.454Zm-2.376,56.741V33.252h-1.074c-.522,1.883-1.171,2.375-3.1,2.375h-3.468c-1.967,0-2.593-.47-3.143-2.364h-1.051V52.287Zm43.1-67.417c.232.289.38.514.567.7,3.761,3.768,7.536,7.522,11.278,11.31a.849.849,0,0,0,1.3.137,3.36,3.36,0,0,0,.635-.579c.555-.7.535-.881-.116-1.484q-6.017-5.575-12.037-11.146a2.279,2.279,0,0,0-3.4.043c-4.013,3.715-8.013,7.444-12.048,11.134a.84.84,0,0,0-.142,1.338,4.215,4.215,0,0,0,.722.7.838.838,0,0,0,1.3-.142c1.377-1.449,2.816-2.839,4.228-4.255C-791.027-9.918-788.5-12.46-785.836-15.13Zm3.473,24.43c.015-.192.044-.4.044-.6,0-1.733.011-3.466,0-5.2A3.584,3.584,0,0,0-785.9-.221a3.577,3.577,0,0,0-3.552,3.679c-.023,1.781-.007,3.562,0,5.344a4.886,4.886,0,0,0,.052.5Zm-46.643,21.552c-.131-1.514-.249-2.927-.378-4.339s-.268-2.817-.4-4.229c-4.135.636-7.751,3.855-8.265,7.315.022,0,.048,0,.065-.007,2.874-1.812,4.9-1.521,7.095,1.008a.768.768,0,0,0,.472.24C-829.993,30.875-829.561,30.852-829.006,30.852Zm10.235-13.129h-5.889c-.154.59-.32,1.163-.445,1.744a.725.725,0,0,0,.085.534c1.075,1.373,2.17,2.73,3.3,4.144,1.135-1.42,2.22-2.765,3.284-4.126a.722.722,0,0,0,.095-.526C-818.458,18.907-818.619,18.33-818.77,17.723Zm2.079,11.5.7-7.708c-.619.008-2.838,2.52-4.009,4.4Zm-6.73-3.375c-1.057-1.323-2.148-2.7-3.258-4.061-.113-.138-.341-.182-.516-.27a1.818,1.818,0,0,0-.191.606c.058.937.154,1.872.241,2.807q.2,2.143.41,4.287ZM-790.655,14.1c1.724,0,3.359.041,4.991-.013a2.2,2.2,0,0,0,2.085-2.325c-2.014,0-4.031-.019-6.046.012a1.043,1.043,0,0,0-1.02,1.033A10.9,10.9,0,0,0-790.655,14.1ZM-810.914,3.412V8.12A2.355,2.355,0,0,0-808.6,5.633,2.3,2.3,0,0,0-810.914,3.412Zm-21.607.006a2.288,2.288,0,0,0-2.319,2.426,2.248,2.248,0,0,0,2.319,2.224Zm-4.7,29.741h4.692a2.285,2.285,0,0,0-2.173-2.3A2.342,2.342,0,0,0-837.219,33.159Z" transform="translate(-15857.785 -11563.241)" fill="#fff"/>
    <path id="Path_1205" data-name="Path 1205" d="M-665.224,362.472h-4.686v-2.285h4.686Z" transform="translate(-16005.978 -11887.762)" fill="#fd8800"/>
    <path id="Path_1206" data-name="Path 1206" d="M-725.806,154a27.848,27.848,0,0,1-1.328,4.073,5.316,5.316,0,0,1-5.324,3.034,5.424,5.424,0,0,1-5.053-3.585,33.092,33.092,0,0,1-1-3.522Zm-3.223,2.36h-6.337a3.27,3.27,0,0,0,3.281,2.365A3.194,3.194,0,0,0-729.029,156.362Z" transform="translate(-15947.315 -11711.453)" fill="#fff"/>
    <path id="Path_1207" data-name="Path 1207" d="M-734.882,120.775a1.228,1.228,0,0,1,1.22,1.17,1.235,1.235,0,0,1-1.17,1.22,1.22,1.22,0,0,1-1.216-1.17A1.216,1.216,0,0,1-734.882,120.775Z" transform="translate(-15949.423 -11683.041)" fill="#fff"/>
    <path id="Path_1208" data-name="Path 1208" d="M-667.7,121.939a1.228,1.228,0,0,1-1.162,1.225A1.207,1.207,0,0,1-670.073,122a1.206,1.206,0,0,1,1.155-1.225A1.223,1.223,0,0,1-667.7,121.939Z" transform="translate(-16005.837 -11683.041)" fill="#fff"/>
    <path id="Path_1209" data-name="Path 1209" d="M-802.9,411.848h-7.07v-2.336h7.07Z" transform="translate(-15886.213 -11929.939)" fill="#fd8800"/>
    <path id="Path_1210" data-name="Path 1210" d="M-809.865,442.233c2.273,0,4.506-.007,6.737.017.128,0,.354.244.362.385.039.641.017,1.285.017,1.964h-7.117Z" transform="translate(-15886.303 -11957.918)" fill="#fd8800"/>
    <path id="Path_1211" data-name="Path 1211" d="M-809.9,376.538h7.076v2.336H-809.9Z" transform="translate(-15886.27 -11901.743)" fill="#fd8800"/>
  </g>
</svg>
