<svg xmlns="http://www.w3.org/2000/svg" width="68.136" height="68.129" viewBox="0 0 68.136 68.129">
  <g id="Group_5481" data-name="Group 5481" transform="translate(-1198.865 -739.484)">
    <path id="Path_1124" data-name="Path 1124" d="M431,110.1c0,3.26-.006,6.52.006,9.779a1.088,1.088,0,0,1-.621,1.141,1,1,0,0,1-1.371-.757,4.108,4.108,0,0,1-.016-.664q0-9.314,0-18.627c0-1.232-.355-1.589-1.57-1.59-.976,0-1.951.007-2.927,0-.755-.007-1.218-.405-1.217-1.022s.451-.987,1.229-.993c1.064-.008,2.129-.011,3.193,0A3.1,3.1,0,0,1,431,100.649c.01,3.149,0,6.3,0,9.447" transform="translate(832.014 653.14)" fill="#003149"/>
    <g id="Group_5480" data-name="Group 5480">
      <path id="Path_1120" data-name="Path 1120" d="M108.863,14.777a38.664,38.664,0,0,1,4.147.826c9.044,2.816,14.6,8.857,16.466,18.17a21.452,21.452,0,0,1-.784,11.009c-.277.848-1.01,1.172-1.621.718-.467-.347-.428-.814-.315-1.322.339-1.53.656-3.064.967-4.6a5.864,5.864,0,0,0,.043-.845h-6.3c-.383,2.413-.7,4.8-1.154,7.155a24.521,24.521,0,0,1-2.5,6.756c.781.317,1.538.647,2.315.919.142.049.4-.1.548-.227a20.76,20.76,0,0,0,4.038-4.74c.172-.273.4-.645.653-.7a1.589,1.589,0,0,1,1.135.2.848.848,0,0,1,.113,1.252,42.267,42.267,0,0,1-2.74,3.667,22.186,22.186,0,0,1-14.118,7.352A22.928,22.928,0,0,1,85.591,29.246a.946.946,0,0,0-.075-.759,3.367,3.367,0,0,1,3.248-5.369,1.031,1.031,0,0,0,.748-.359A22.85,22.85,0,0,1,101.56,15.4c1.133-.273,2.3-.422,3.444-.628ZM92.558,36.592c.074-1.017.144-1.984.217-2.951.06-.8.474-1.222,1.142-1.168.649.052.953.549.88,1.364-.083.913-.133,1.83-.2,2.743h11.3V24.4a1.481,1.481,0,0,0-.209-.065c-2.427-.344-4.853-.7-7.285-1.007a.779.779,0,0,0-.611.4c-.716,1.733-1.411,3.475-2.065,5.232-.306.821-.725,1.171-1.379.97-.579-.178-.832-.754-.55-1.545.615-1.724,1.287-3.429,1.939-5.14.074-.195.174-.379.274-.594-.778-.312-1.486-.618-2.214-.87a.679.679,0,0,0-.562.155c-.695.651-1.355,1.337-2.038,2a.647.647,0,0,0-.118.91,3.173,3.173,0,0,1-.3,3.614A3.383,3.383,0,0,1,87.6,29.731a19.848,19.848,0,0,0-1.5,6.86Zm26.7,0c-.057-.85-.089-1.642-.182-2.428-.017-.143-.264-.313-.439-.375a3.48,3.48,0,0,1-1.993-1.655c-.788-1.472-.4-3.036,1.179-4.452-.549-1.248-1.124-2.531-1.675-3.824-.205-.482-.455-.685-1.008-.475a6.47,6.47,0,0,1-1.422.3c-1.9.258-3.808.5-5.747.75V36.591ZM105.927,50.769c0-.807.017-1.755-.017-2.7a.7.7,0,0,0-.364-.449,3.308,3.308,0,0,1-1.962-3.074A3.238,3.238,0,0,1,105.58,41.5c.137-.066.325-.219.329-.337.029-.811.015-1.623.015-2.429H94.506c.221,1.757.376,3.45.658,5.121A25.051,25.051,0,0,0,97.787,51.6c.138.257.224.479.629.408,2.456-.426,4.918-.817,7.511-1.242M119.4,38.731H107.93c0,.8-.02,1.552.015,2.3a.671.671,0,0,0,.33.468,3.357,3.357,0,0,1,.02,6.118c-.149.076-.343.256-.348.393-.03.968-.016,1.938-.016,2.943.25.018.445.021.636.047,2.23.31,4.464.6,6.686.956.437.07.62.016.821-.366a23.545,23.545,0,0,0,2.364-6.583c.389-2.053.636-4.133.957-6.278m-33.287-.01a6.776,6.776,0,0,0,0,.737c.074.614.146,1.23.257,1.839a20.609,20.609,0,0,0,6.885,12.1c.116.1.33.22.443.179.778-.285,1.54-.61,2.332-.932a31.738,31.738,0,0,1-3.457-13.924ZM117.9,22.628c.586,1.455,1.146,2.871,1.736,4.274a.723.723,0,0,0,.455.369,3.357,3.357,0,0,1,1.359,6.089c-.152.118-.341.327-.336.488.028.9.111,1.8.177,2.727h6.469a3.975,3.975,0,0,0,0-.434c-.082-.681-.142-1.366-.263-2.04a20.576,20.576,0,0,0-6.885-12.173.652.652,0,0,0-.506-.177c-.764.274-1.512.6-2.2.877M105.849,58.444V52.918l-6.719.86c1.829,2.421,3.836,4.146,6.719,4.666m.042-36.058V16.864c-2.926.514-4.936,2.245-6.77,4.671l6.77.851m2.069,30.532v5.532c2.916-.513,4.925-2.246,6.76-4.677l-6.76-.854m6.589-31.366c-1.7-2.434-3.688-4.185-6.563-4.675v5.515l6.563-.84m-6.334,22.983a1.29,1.29,0,1,0-1.266,1.341,1.284,1.284,0,0,0,1.266-1.341m12.671-13.953a1.294,1.294,0,1,0-1.3,1.292,1.264,1.264,0,0,0,1.3-1.292M88.135,27.7a1.29,1.29,0,1,0,.033-2.579,1.29,1.29,0,1,0-.033,2.579m30.2,27.5-.039-.176c-.425-.154-.844-.333-1.28-.446a.579.579,0,0,0-.484.168c-.586.708-1.143,1.44-1.71,2.164l.055.11,3.458-1.821M95.535,20.108l.057.191c.387.144.768.305,1.163.423.148.044.406.053.478-.034.613-.741,1.2-1.508,1.787-2.267l-.084-.113-3.4,1.8M98.959,57l.057-.111c-.569-.727-1.133-1.458-1.714-2.175a.455.455,0,0,0-.364-.163c-.468.134-.923.311-1.382.473q-.006.092-.011.185L98.959,57m15.952-38.681-.057.136c.557.709,1.106,1.425,1.679,2.121a.526.526,0,0,0,.427.178c.452-.125.888-.307,1.536-.542l-3.585-1.894" transform="translate(1126.068 724.707)" fill="#fd8800"/>
      <path id="Path_1121" data-name="Path 1121" d="M68.136,115.019a17.608,17.608,0,0,1-1.293,3.012,6.815,6.815,0,0,1-5.995,3.091q-9.579.018-19.159,0H40.8c.424,1.377.827,2.678,1.225,3.98.207.676.433,1.348.6,2.035.1.432.321.54.744.53,1.219-.029,2.439-.014,3.658-.009.743,0,1.157.352,1.171.967.014.648-.409,1.024-1.181,1.024q-12.939,0-25.878,0c-.781,0-1.2-.366-1.194-1.012s.429-.978,1.226-.98c1.242,0,2.484.015,3.725-.018a.721.721,0,0,0,.542-.376c.632-1.955,1.227-3.922,1.829-5.886a1.127,1.127,0,0,0,0-.256h-.8q-9.613,0-19.225,0a7.087,7.087,0,0,1-6.867-4.9,6.73,6.73,0,0,1-.35-1.946c-.041-2.394-.02-4.789-.017-7.184,0-.729.366-1.167.967-1.185C1.6,105.889,2,106.343,2,107.1c0,2.262-.015,4.524.007,6.785a5.074,5.074,0,0,0,3.932,5.037,6.712,6.712,0,0,0,1.58.149c17.7.007,35.391-.018,53.086.027a5.352,5.352,0,0,0,5.555-5.593c-.046-12.44-.017-24.88-.02-37.32A5.131,5.131,0,0,0,62.172,70.9a7.342,7.342,0,0,0-1.584-.144c-1.663-.018-3.326,0-4.989-.01-.805,0-1.294-.419-1.267-1.039.026-.6.509-.985,1.266-.987,1.752-.006,3.5-.01,5.255,0A7.119,7.119,0,0,1,68.023,74.6a1.036,1.036,0,0,0,.113.232ZM27.48,127.631H40.664l-1.978-6.471H29.455l-1.975,6.471" transform="translate(1198.864 677.958)" fill="#003149"/>
      <path id="Path_1122" data-name="Path 1122" d="M60.034,138q-13.3,0-26.606,0a3.163,3.163,0,0,1-3.407-2.36,3.9,3.9,0,0,1-.1-.985q-.007-16.994,0-33.989a3.1,3.1,0,0,1,3.27-3.309c.576-.007,1.153-.015,1.729.006a.948.948,0,0,1,1.023.98.987.987,0,0,1-1,1.022c-.6.029-1.2,0-1.8.012a1.161,1.161,0,0,0-1.225,1.2c-.009.155,0,.31,0,.465q0,16.629,0,33.257c0,1.358.325,1.683,1.68,1.683H86.415c1.345,0,1.666-.327,1.666-1.7q0-4.656,0-9.312c0-.929.689-1.486,1.391-1.085a1.237,1.237,0,0,1,.578.86c.036,3.5.054,7.006,0,10.508a3.023,3.023,0,0,1-2.681,2.711c-.352.034-.708.033-1.063.033q-13.137,0-26.273,0" transform="translate(1172.933 653.148)" fill="#003149"/>
      <path id="Path_1123" data-name="Path 1123" d="M.042,88.707q0-6.383,0-12.766a7.117,7.117,0,0,1,7.174-7.229q1.33-.015,2.659,0a1.074,1.074,0,0,1,1.187,1,1.045,1.045,0,0,1-1.146,1.024c-.974.023-1.953-.032-2.924.036A5.084,5.084,0,0,0,2.039,76.1q-.015,7.181,0,14.361,0,5.818.005,11.635c0,.554-.181,1.031-.729,1.1a1.6,1.6,0,0,1-1.08-.393c-.18-.151-.183-.569-.183-.868Q.034,95.323.042,88.707" transform="translate(1198.828 677.969)" fill="#003149"/>
      <path id="Path_1125" data-name="Path 1125" d="M73.7,349.664c-1.063,0-2.127,0-3.19,0-.787,0-1.29-.42-1.28-1.038.01-.594.479-1,1.246-1q3.256-.019,6.513,0c.753.005,1.229.439,1.216,1.031s-.5,1-1.248,1.005c-1.086.008-2.171,0-3.257,0" transform="translate(1138.867 436.245)" fill="#fd8800"/>
      <path id="Path_1126" data-name="Path 1126" d="M72.334,314.738c-.665,0-1.33.013-1.994,0a1.07,1.07,0,0,1-1.128-.99,1.018,1.018,0,0,1,1.07-1.033q2.093-.043,4.187,0a1.017,1.017,0,0,1,1.062,1.04,1.073,1.073,0,0,1-1.136.982c-.687.017-1.374,0-2.061,0" transform="translate(1138.881 466.513)" fill="#fd8800"/>
      <path id="Path_1127" data-name="Path 1127" d="M59.492,416.974c.642,0,1.284-.011,1.925,0a.992.992,0,1,1,.029,1.984q-2.025.026-4.05,0a1,1,0,1,1,.038-1.986c.686-.012,1.372,0,2.058,0" transform="translate(1150.022 376.136)" fill="#fd8800"/>
      <path id="Path_1128" data-name="Path 1128" d="M119.27,418.96c-.642,0-1.284.009-1.925,0a1.017,1.017,0,0,1-1.107-.984,1,1,0,0,1,1.079-1q1.992-.016,3.983,0a.948.948,0,0,1,1.021.976.961.961,0,0,1-.993,1.009c-.686.019-1.372,0-2.058,0" transform="translate(1098.124 376.144)" fill="#fd8800"/>
    </g>
  </g>
</svg>
