<svg xmlns="http://www.w3.org/2000/svg" width="45.705" height="46.114" viewBox="0 0 45.705 46.114">
  <g id="Group_5470" data-name="Group 5470" transform="translate(-998.591 -768.241)">
    <path id="Path_1038" data-name="Path 1038" d="M0,242.128a3.953,3.953,0,0,1,.711-.526c3.931-1.732,7.87-3.446,11.8-5.176a1.258,1.258,0,0,1,1.1-.01q5.9,2.591,11.8,5.157a1.055,1.055,0,0,1,.732,1.138c-.038,1.135-.008,2.273-.012,3.409,0,.772-.5,1.094-1.217.8-.349-.145-.694-.3-1.091-.474v3.631H22.29v-.679c0-1.073-.01-2.145.006-3.217a.522.522,0,0,0-.359-.578c-2.858-1.236-5.707-2.492-8.566-3.725a.867.867,0,0,0-.618,0C9.9,243.11,7.048,244.363,4.2,245.607c-.218.1-.361.186-.36.477q.017,6.507.01,13.014a1.755,1.755,0,0,0,.025.2h2.28v-.5q0-4.586,0-9.172c0-.84.214-1.059,1.035-1.059q2.065,0,4.13,0c.738,0,.982.24.982.968q0,4.61,0,9.22v.544h7.988a12.592,12.592,0,0,1-.29-1.348,2.366,2.366,0,0,1,.779-2.032,2.445,2.445,0,0,0,.783-1.715,3.349,3.349,0,0,1,2.095-3.17,2.716,2.716,0,0,1,3.111.866,3.722,3.722,0,0,1,.877,2.337,2.284,2.284,0,0,0,.767,1.673,2.748,2.748,0,0,1-.228,4.111,9.669,9.669,0,0,1-1.47.841H0v-1.537H2.274v-12.86c-.332.14-.625.261-.915.386-.687.3-.9.249-1.359-.3v-4.419m24.6,2.936c0-.625-.02-1.154.007-1.68a.562.562,0,0,0-.4-.637c-3.048-1.317-6.087-2.654-9.13-3.984a5.647,5.647,0,0,0-1.977-.792,5.847,5.847,0,0,0-2.024.794q-4.606,2.011-9.206,4.035c-.132.058-.306.214-.312.332-.031.617-.015,1.237-.015,1.93.222-.094.379-.16.534-.228q5.2-2.271,10.4-4.55a1.345,1.345,0,0,1,1.186-.007c2.333,1.037,4.675,2.054,7.014,3.076,1.282.56,2.566,1.118,3.926,1.711M10.727,250.14H7.711V259.3h3.017Zm13.822,9.184a10.048,10.048,0,0,0,1.39-.015,2.693,2.693,0,0,0,1.1-.381,1.216,1.216,0,0,0,.183-2,3.232,3.232,0,0,1-1.125-2.444,3.274,3.274,0,0,0-.3-1.2,1.271,1.271,0,0,0-2.38-.075,5.035,5.035,0,0,0-.353,1.519,2.835,2.835,0,0,1-.722,1.779c-.15.167-.314.32-.463.487a1.19,1.19,0,0,0,0,1.721,1.779,1.779,0,0,0,1.311.605c.448.01.9,0,1.344,0" transform="translate(998.591 553.495)" fill="#003149"/>
    <path id="Path_1039" data-name="Path 1039" d="M62.817,18.6h1.574a13.473,13.473,0,0,1-.148,2.169A2.233,2.233,0,0,1,61.706,22.4a2.3,2.3,0,0,1-1.958-2.264c-.006-1.02,0-2.04,0-3.082h-2.29V34.681H55.9V34.2q0-8.835,0-17.671c0-.8.222-1.027,1.019-1.027h2.8a3.129,3.129,0,0,1,1.129-2.371,3.051,3.051,0,0,1,2.085-.707c1.589.037,2.721,1.17,3,3.078H66.5q7.636,0,15.272-.007a1.313,1.313,0,0,1,1.017.417q2.482,2.51,4.991,4.992a1.259,1.259,0,0,1,.411.971c-.013,3.089-.007,6.178-.007,9.267V31.6H86.652V22.415H83.685c-.5,0-.993,0-1.489,0-.671,0-.927-.257-.928-.926q0-1.969,0-3.937v-.5H62.857V15.513h1.462a1.512,1.512,0,0,0-3.023-.079c-.036,1.552-.021,3.1-.006,4.657a.775.775,0,0,0,.757.781.787.787,0,0,0,.764-.776c.024-.491.005-.984.005-1.5m20.02-.3v2.55h2.557L82.837,18.3" transform="translate(948.069 755.821)" fill="#fd8800"/>
    <path id="Path_1040" data-name="Path 1040" d="M310.156,167.268c.527.587,1.04,1.156,1.551,1.728a.883.883,0,0,1,.095,1.324q-1.556,2.307-3.12,4.609c-.061.09-.129.175-.214.29l-1.279-.859,3.1-4.6-1.029-1.151c-.121.169-.224.306-.32.448q-4.624,6.835-9.256,13.664a2.748,2.748,0,0,1-.831.758c-.818.5-1.668.944-2.5,1.42a.8.8,0,0,1-1.271-.844c.15-1.06.267-2.124.421-3.183a1.533,1.533,0,0,1,.262-.605q6.148-9.1,12.309-18.2a2.313,2.313,0,0,1,4.276.965,2.288,2.288,0,0,1-.44,1.627c-.58.861-1.162,1.72-1.758,2.6m-8.948,10.442,6.969-10.3-1.043-1.161-7.179,10.616,1.253.85m-2.129.447c-.611.9-1.2,1.793-1.81,2.669-.416.6-.294,1.284-.459,2.051a5.7,5.7,0,0,0,1.478-.921c.745-.923,1.364-1.949,2.046-2.952l-1.255-.847m10-12.086c.554-.823,1.08-1.582,1.582-2.358a.752.752,0,0,0-.169-1.026.7.7,0,0,0-1.023.13c-.5.678-.953,1.384-1.434,2.089l1.043,1.164" transform="translate(731.922 621.58)" fill="#fd8800"/>
    <rect id="Rectangle_908" data-name="Rectangle 908" width="22.996" height="1.479" transform="translate(1008.623 783.649)" fill="#fd8800"/>
    <rect id="Rectangle_909" data-name="Rectangle 909" width="22.997" height="1.488" transform="translate(1008.609 786.71)" fill="#fd8800"/>
    <rect id="Rectangle_910" data-name="Rectangle 910" width="18.384" height="1.481" transform="translate(1013.218 780.566)" fill="#fd8800"/>
    <path id="Path_1041" data-name="Path 1041" d="M146.825,385.1c-.752,0-1.5.005-2.255,0a.752.752,0,0,1-.849-.857q-.008-1.847,0-3.693a.739.739,0,0,1,.832-.824q2.231-.009,4.462,0a.751.751,0,0,1,.85.856q.008,1.847,0,3.694a.743.743,0,0,1-.832.825c-.736.008-1.471,0-2.207,0m-1.544-1.566H148.3V381.28h-3.015Z" transform="translate(868.707 423.874)" fill="#003149"/>
    <path id="Path_1042" data-name="Path 1042" d="M319.636,366.763v-1.525h5.357v-9.21H326.5c.009.138.027.275.027.413q0,4.679,0,9.359c0,.707-.248.962-.939.962-1.967,0-3.934,0-5.956,0" transform="translate(709.721 445.287)" fill="#fd8800"/>
    <rect id="Rectangle_911" data-name="Rectangle 911" width="11.465" height="1.485" transform="translate(1020.14 789.785)" fill="#fd8800"/>
    <rect id="Rectangle_912" data-name="Rectangle 912" width="2.242" height="1.483" transform="translate(1026.297 792.869)" fill="#fd8800"/>
    <rect id="Rectangle_913" data-name="Rectangle 913" width="1.468" height="1.493" transform="translate(1010.159 780.576)" fill="#fd8800"/>
    <rect id="Rectangle_914" data-name="Rectangle 914" width="1.48" height="1.477" transform="translate(1007.078 799.009)" fill="#003149"/>
  </g>
</svg>
