<svg xmlns="http://www.w3.org/2000/svg" width="70.51" height="70.521" viewBox="0 0 70.51 70.521">
  <g id="Group_5475" data-name="Group 5475" transform="translate(-963.116 -1618.875)">
    <path id="Path_1083" data-name="Path 1083" d="M1019.2,173.557h.853a.519.519,0,0,0,.088.106q13,9.037,26,18.072c.874.608.986,1.034.522,1.971q-.991,2-2,4c-.5.983-1.154,1.136-2.061.5-.8-.564-1.6-1.133-2.5-1.771,0,2.934,0,5.724,0,8.514,0,.137.017.273.031.488a9.024,9.024,0,0,1,7.169,2.279,8.86,8.86,0,0,1,3.035,6.924,8.73,8.73,0,0,1-2.281,5.886,9.084,9.084,0,0,1-7.919,3.048v4.575c1.517,0,3-.021,4.489.011a6.477,6.477,0,0,1,1.674.236c2.606.768,4.036,2.937,4.035,6.048,0,1.266-.211,1.525-1.416,1.788q-17.746,3.869-35.489,7.752a1.9,1.9,0,0,1-1.6-.307c-1.878-1.279-3.766-2.543-5.674-3.778a2.335,2.335,0,0,0-1.168-.363c-2.084-.035-4.169-.017-6.254-.017h-.715c0,.357,0,.615,0,.874-.007,1.03-.376,1.4-1.417,1.4-.9,0-1.8,0-2.7,0H991.2c0,.285,0,.473,0,.66-.008,1.327-.3,1.614-1.629,1.615-2.748,0-5.5-.019-8.244.014a1.585,1.585,0,0,1-1.5-.724V217.482a1.442,1.442,0,0,1,1.5-.715,6.153,6.153,0,0,0,.781.005q7.284,0,14.569,0c.95,0,1.336.388,1.347,1.325,0,.3,0,.6,0,.9h1.082V196.468c-.847.6-1.614,1.153-2.385,1.7-.986.693-1.62.541-2.156-.522q-.99-1.963-1.965-3.933c-.466-.941-.356-1.36.518-1.969q5.593-3.9,11.189-7.787,7.452-5.194,14.9-10.4m28.816,60.5a4.309,4.309,0,0,0,0-.662,3.436,3.436,0,0,0-3.653-2.974q-12.613-.006-25.226,0c-.206,0-.413.021-.611.031a3.439,3.439,0,0,1-2.763,3.318,6.218,6.218,0,0,1-2.051.034,3.968,3.968,0,0,1-2.017-.7c-1.825-1.715-3.529-3.559-5.263-5.339l1.643-1.7a3.156,3.156,0,0,0,.38.631q2.145,2.175,4.316,4.326a3.033,3.033,0,0,0,2.858.353,1.3,1.3,0,0,0,.43-.456,3.394,3.394,0,0,0-.318-2.894c-1.788-2.086-3.587-4.161-5.359-6.26a1.19,1.19,0,0,0-1.03-.456c-3.553.016-7.106.009-10.659.011-.206,0-.411.021-.623.033v15.888c2.532,0,5.016-.023,7.5.02a2.9,2.9,0,0,1,1.441.43c1.874,1.2,3.7,2.466,5.571,3.669a1.51,1.51,0,0,0,1.032.181q12.773-2.759,25.536-5.563c2.949-.644,5.9-1.28,8.87-1.925m-36.631-28.714a11.409,11.409,0,0,1,15.164-16.958,11.052,11.052,0,0,1,4.257,6.909,11.379,11.379,0,0,1-2.987,10.077c.206.016.293.027.38.029,1.434.04,1.662.275,1.662,1.723,0,.936,0,1.871,0,2.827,1.062,0,2.01.031,2.954-.02a1.135,1.135,0,0,0,.773-.417,9.171,9.171,0,0,1,3.72-3.2.777.777,0,0,0,.525-.848q-.026-5.009,0-10.019a1.112,1.112,0,0,0-.538-1.037q-7.266-5.158-14.507-10.352-1.581-1.13-3.164-2.253c-5.984,4.276-11.917,8.508-17.83,12.768a1.227,1.227,0,0,0-.35.887q-.028,11.4-.015,22.809v.747h7.962V207.558c0-2.006,0-2.006,1.993-2.217m4.913,11.431h.772c5.516,0,11.031.013,16.547-.015a1.629,1.629,0,0,1,1.641.95,6.673,6.673,0,0,0,7,3.5,6.8,6.8,0,0,0-.875-13.521,6.583,6.583,0,0,0-6.143,3.618,1.561,1.561,0,0,1-1.579.933c-1.443-.047-2.9.107-4.328-.044a4.008,4.008,0,0,0-4.08,1.717,1.285,1.285,0,0,1-.2.2,1.148,1.148,0,0,1-1.757,0c-.5-.471-.944-1-1.472-1.437a2.433,2.433,0,0,0-1.033-.436,2.872,2.872,0,0,0-3.1,1.278,1.933,1.933,0,0,1-.451.45,2.384,2.384,0,0,0-.94,2.812m11.263-9.084a11.546,11.546,0,0,0-4.308.5,10.294,10.294,0,0,1-7.885-.214c-1.221-.513-2.445-.2-3.7-.286,0,3.98-.007,7.863.016,11.746a1.3,1.3,0,0,0,.353.73c1.747,2.058,3.522,4.093,5.261,6.157.45.534.806,1.146,1.243,1.779h8.993v-9.051h-.835q-5.721,0-11.441,0c-.9,0-1.3-.4-1.312-1.287-.008-1.042-.04-2.087.018-3.126a1.807,1.807,0,0,1,.439-1.057c1.02-1.088,2.074-2.148,3.166-3.163a1.937,1.937,0,0,1,1.126-.441,21.694,21.694,0,0,1,2.982,0,2.306,2.306,0,0,1,1.233.525,9.572,9.572,0,0,1,1.118,1.34c1.174-1.034,1.862-2.4,3.535-1.829Zm1.161-10.239a9.1,9.1,0,1,0-9.038,9.087,9.158,9.158,0,0,0,9.038-9.087m-46.613,44.3h6.763V219.1h-6.763Zm12.842-48.479,1.216,2.426c.2-.126.3-.186.392-.254l21.953-15.677c1.034-.738,1.21-.736,2.261.015q10.83,7.737,21.66,15.474c.2.143.412.273.662.438l1.2-2.428L1019.635,176.1l-24.68,17.167m.764,25.83h-4.464v20.381h4.464Zm42.107,9.015c0-1.643.016-3.2-.019-4.765a.846.846,0,0,0-.422-.593,9.5,9.5,0,0,1-3.8-3.313c-.106-.159-.292-.371-.446-.375-1.077-.033-2.156-.017-3.218-.017v9.063Z" transform="translate(-16.712 1445.318)" fill="#003149"/>
    <rect id="Rectangle_923" data-name="Rectangle 923" width="6.706" height="2.212" transform="translate(976.819 1628.021)" fill="#fd8800"/>
    <path id="Path_1084" data-name="Path 1084" d="M1118.962,186.03l1.409-1.363,4.476,4.5-1.522,1.337-4.363-4.477" transform="translate(-136.028 1435.79)" fill="#fd8800"/>
    <rect id="Rectangle_924" data-name="Rectangle 924" width="6.73" height="2.197" transform="translate(1022.305 1628.017)" fill="#fd8800"/>
    <path id="Path_1085" data-name="Path 1085" d="M1363.193,184.036c.292.33.651.736,1.012,1.14.124.139.251.276.341.374l-4.538,4.533-1.378-1.484,4.564-4.562" transform="translate(-341.556 1436.331)" fill="#fd8800"/>
    <path id="Path_1086" data-name="Path 1086" d="M1410.965,447.23a2.274,2.274,0,1,1,2.232,2.333,2.241,2.241,0,0,1-2.232-2.333" transform="translate(-386.438 1212.525)" fill="#fd8800"/>
    <path id="Path_1087" data-name="Path 1087" d="M1230.7,286.619v-1.046h2.22c.02.341.04.682.063,1.063a3.576,3.576,0,0,1,2.775,1.478,4.37,4.37,0,0,1,.581,3.076h-2.219c-.094-.852.219-1.964-1.139-2.228v3.33c.341.074.686.121,1.014.223a3.355,3.355,0,0,1,2.369,3.189,9.869,9.869,0,0,1-.064,1.91,3.474,3.474,0,0,1-3.309,2.758c-.022.335-.044.679-.068,1.053h-2.2l-.062-1.061a3.59,3.59,0,0,1-2.774-1.481,4.252,4.252,0,0,1-.572-3.074h2.2c.106.849-.218,1.967,1.145,2.227v-3.329c-.343-.074-.688-.122-1.016-.224a3.359,3.359,0,0,1-2.367-3.19,10.01,10.01,0,0,1,.063-1.91c.3-1.55,1.484-2.509,3.362-2.764m-.059,5.712v-3.336c-.854.213-1.083.517-1.1,1.4-.021,1.393.12,1.654,1.1,1.933m2.334,5.675c1-.244,1.174-.578,1.119-2.039a1.117,1.117,0,0,0-1.119-1.263Z" transform="translate(-228.9 1349.257)" fill="#fd8800"/>
  </g>
</svg>
