<svg xmlns="http://www.w3.org/2000/svg" width="42.074" height="42.073" viewBox="0 0 42.074 42.073">
  <g id="Group_5473" data-name="Group 5473" transform="translate(-1176.501 -768.012)">
    <path id="Path_1067" data-name="Path 1067" d="M2010.636,9.877a8.4,8.4,0,0,1,1.278.768,2.1,2.1,0,0,1,.694,1.652q0,7.99,0,15.98a.825.825,0,1,1-1.64-.018q0-4.806,0-9.613v-.521h-38.784v.428q0,13.166,0,26.333c0,.883.266,1.146,1.158,1.146,5.067,0,10.133-.01,15.2.015a1.209,1.209,0,0,0,1.112-.537c-.233-.582-.452-1.155-.7-1.715a.448.448,0,0,0-.31-.218c-.284-.031-.574,0-.861-.013a.783.783,0,0,1-.806-.8q-.014-1.828,0-3.656a.73.73,0,0,1,.813-.779,1.117,1.117,0,0,0,1.473-1.016,4.94,4.94,0,0,1,.433-.978c-.244-.227-.5-.45-.741-.7a.818.818,0,0,1-.007-1.237q1.238-1.26,2.5-2.5a.827.827,0,0,1,1.239.009c.13.121.257.246.377.377s.21.252.285.344c.652-.259,1.237-.482,1.81-.73a.41.41,0,0,0,.187-.294c.026-.271,0-.547.01-.821a.792.792,0,0,1,.838-.856q1.787-.011,3.574,0a.75.75,0,0,1,.83.848c-.106.805.135,1.266.971,1.419a4.894,4.894,0,0,1,1.023.454c.212-.229.425-.479.658-.709a.836.836,0,0,1,1.3-.019q1.243,1.226,2.468,2.47a.82.82,0,0,1,0,1.238c-.236.247-.5.47-.719.679.254.637.477,1.221.724,1.794a.406.406,0,0,0,.288.194c.285.027.574,0,.862.011a.789.789,0,0,1,.821.831q.011,1.808,0,3.615a.731.731,0,0,1-.8.793,1.143,1.143,0,0,0-1.5,1.042,4.428,4.428,0,0,1-.4.891,1.151,1.151,0,0,0,1.128.565c.8-.054,1.615-.014,2.423-.014.833,0,1.118-.281,1.119-1.1q0-4.519,0-9.038a.854.854,0,0,1,.513-.893.8.8,0,0,1,1.129.743c.008,3.232.02,6.464-.007,9.695a2.4,2.4,0,0,1-2.322,2.235q-1.54.022-3.081,0a.8.8,0,0,0-.641.273c-.639.658-1.292,1.3-1.943,1.949a.865.865,0,0,1-1.416-.012c-.213-.211-.419-.43-.6-.619-.624.248-1.208.47-1.783.718a.408.408,0,0,0-.187.293c-.026.271,0,.547-.01.821a.8.8,0,0,1-.84.855q-1.787.011-3.574,0a.748.748,0,0,1-.827-.851c.111-.811-.146-1.261-.973-1.418a4.973,4.973,0,0,1-1.023-.456c-.165.184-.33.385-.513.569-.616.622-.982.623-1.591.016-.591-.59-1.192-1.171-1.767-1.777a1.063,1.063,0,0,0-.852-.362c-5.026.012-10.052-.021-15.077.026a2.759,2.759,0,0,1-3.037-1.989V11.849a2.79,2.79,0,0,1,1.972-1.972Zm.329,6.56c0-1.329,0-2.614,0-3.9,0-.708-.317-1.017-1.038-1.017q-18.358,0-36.716,0c-.716,0-1.027.312-1.029,1.026q0,1.786,0,3.573c0,.1.018.208.028.317Zm-5.674,30.347c-.2-.172-.426-.347-.626-.55a.772.772,0,0,1-.159-1.01,9.316,9.316,0,0,0,1.127-2.71.749.749,0,0,1,.788-.59c.3,0,.595,0,.9,0V39.95c-.283,0-.541,0-.8,0-.542,0-.753-.209-.946-.723-.315-.839-.662-1.667-1.032-2.482a.863.863,0,0,1,.162-1.148,5.423,5.423,0,0,1,.564-.446l-1.434-1.539c-.194.225-.367.457-.572.655a.773.773,0,0,1-1.013.137,9.021,9.021,0,0,0-2.672-1.112.763.763,0,0,1-.612-.813V31.6H1997c0,.292,0,.552,0,.812-.005.517-.211.731-.7.918-.85.323-1.69.677-2.52,1.049a.844.844,0,0,1-1.085-.127,6.83,6.83,0,0,1-.526-.633l-1.5,1.459c.21.182.439.357.639.559a.772.772,0,0,1,.159,1.011,9.255,9.255,0,0,0-1.126,2.71.751.751,0,0,1-.789.59c-.3,0-.595,0-.9,0v1.973c.284,0,.542,0,.8,0,.542,0,.752.209.945.724.314.839.663,1.666,1.032,2.483a.856.856,0,0,1-.134,1.118,5.4,5.4,0,0,1-.6.474l1.46,1.515c.176-.2.349-.435.555-.632a.858.858,0,0,1,1.053-.123c.84.383,1.695.737,2.557,1.068a.862.862,0,0,1,.684.931c0,.268,0,.536,0,.8h1.973c0-.274,0-.531,0-.787a.873.873,0,0,1,.706-.957c.851-.322,1.69-.677,2.521-1.049a.845.845,0,0,1,1.084.129,7.039,7.039,0,0,1,.529.636l1.483-1.474" transform="translate(-794.037 758.135)" fill="#003149"/>
    <path id="Path_1068" data-name="Path 1068" d="M2022.142,132.092c.272-.157.528-.314.793-.456a.824.824,0,0,1,1.2.311q.907,1.535,1.785,3.088a.767.767,0,0,1-.321,1.183,1.225,1.225,0,0,0-.785,1.545.658.658,0,0,0,.219.379,6.789,6.789,0,0,0,.6.36.82.82,0,0,1,.3,1.174q-.885,1.572-1.8,3.125a.746.746,0,0,1-1.126.3,1.233,1.233,0,0,0-1.757.08.666.666,0,0,0-.22.372c-.036.227,0,.465-.015.7a.823.823,0,0,1-.875.836q-1.807.014-3.614,0a.748.748,0,0,1-.818-.859,1.146,1.146,0,0,0-.758-1.358c-.327-.143-.555-.21-.841.016a2.191,2.191,0,0,1-.428.241.787.787,0,0,1-1.1-.3q-.945-1.584-1.845-3.195a.73.73,0,0,1,.308-1.087,1.233,1.233,0,0,0,.831-1.482c-.032-.26-.05-.431-.3-.534a3.051,3.051,0,0,1-.428-.242.836.836,0,0,1-.354-1.28q.85-1.5,1.722-2.982a.807.807,0,0,1,1.273-.341,1.114,1.114,0,0,0,1.48.007c.3-.211.5-.374.437-.754a2.441,2.441,0,0,1,0-.451.8.8,0,0,1,.821-.839q1.827-.017,3.655,0a.777.777,0,0,1,.829.869,1.152,1.152,0,0,0,.841,1.391,1.8,1.8,0,0,1,.309.2m1.95,7.447c-.151-.09-.267-.16-.385-.229a.988.988,0,0,1-.61-1.241,2.983,2.983,0,0,0,.051-.977c-.189-.888-.06-1.586.967-1.866l-1.018-1.759-.319.181c-.7.394-.85.358-1.513-.111a7.479,7.479,0,0,0-1.287-.706.96.96,0,0,1-.65-.943c0-.188,0-.375,0-.584h-2c0,.21-.009.4,0,.587a.91.91,0,0,1-.6.928,17.092,17.092,0,0,0-1.552.9.937.937,0,0,1-1.037.07c-.186-.1-.367-.212-.565-.326l-.99,1.72c.168.1.306.19.446.273a.915.915,0,0,1,.538,1.148,3.319,3.319,0,0,0-.03,1.022c.162.877.075,1.6-.987,1.866l1.024,1.767c.209-.119.377-.209.54-.307a.919.919,0,0,1,1.069.06,16.647,16.647,0,0,0,1.55.9.893.893,0,0,1,.589.888c-.008.2,0,.4,0,.613h2c0-.223-.006-.426,0-.628a.956.956,0,0,1,.616-.882,12.268,12.268,0,0,0,1.519-.874.927.927,0,0,1,1.1-.072c.171.1.351.187.539.287l.986-1.7" transform="translate(-830.802 648.243)" fill="#fd8800"/>
    <path id="Path_1069" data-name="Path 1069" d="M2253.266,209.135q-2.01,0-4.02,0a.832.832,0,1,1,.012-1.641q4.04,0,8.081,0c.6,0,.948.305.946.827s-.345.813-.957.814q-2.031,0-4.061,0" transform="translate(-1048.913 576.789)" fill="#fd8800"/>
    <path id="Path_1070" data-name="Path 1070" d="M2325.575,159.587q1.7,0,3.407,0c.61,0,.963.3.969.81s-.345.831-.946.831q-3.428,0-6.855,0a.855.855,0,0,1-.962-.829c.007-.487.4-.812.98-.812q1.7,0,3.407,0" transform="translate(-1115.817 620.751)" fill="#fd8800"/>
    <path id="Path_1071" data-name="Path 1071" d="M2027.69,404.746c-.779,0-1.558,0-2.337,0a.825.825,0,1,1,.015-1.641q2.358,0,4.716,0a.827.827,0,1,1-.014,1.64c-.793,0-1.586,0-2.378,0" transform="translate(-843.506 397.283)" fill="#fd8800"/>
    <path id="Path_1072" data-name="Path 1072" d="M2072.227,355.194c.643,0,1.286,0,1.929,0a.823.823,0,1,1,.021,1.64q-1.969.006-3.939,0a.822.822,0,1,1,.02-1.639c.656,0,1.313,0,1.969,0" transform="translate(-884.734 441.248)" fill="#003149"/>
    <path id="Path_1073" data-name="Path 1073" d="M2250.089,161.179c-.328,0-.657.007-.985,0a.818.818,0,1,1,0-1.636q.984-.016,1.969,0a.819.819,0,0,1,0,1.638h-.985" transform="translate(-1048.909 620.801)" fill="#fd8800"/>
    <path id="Path_1074" data-name="Path 1074" d="M2392.367,209.051c-.246,0-.492.01-.738,0a.817.817,0,0,1-.016-1.633c.5-.017,1.011-.02,1.516,0a.819.819,0,0,1-.025,1.631c-.245.013-.491,0-.738,0" transform="translate(-1179.734 576.872)" fill="#fd8800"/>
    <path id="Path_1075" data-name="Path 1075" d="M2025.265,356.855a.821.821,0,1,1,.822-.829.8.8,0,0,1-.822.829" transform="translate(-843.506 441.23)" fill="#fd8800"/>
    <path id="Path_1076" data-name="Path 1076" d="M2462.424,269.383a.821.821,0,1,1-.832.819.806.806,0,0,1,.832-.819" transform="translate(-1244.663 519.993)" fill="#fd8800"/>
    <path id="Path_1077" data-name="Path 1077" d="M2201.787,51.435q-4.374,0-8.748,0c-.611,0-.968-.342-.935-.883a.8.8,0,0,1,.732-.755c.082-.008.164,0,.246,0h17.454c.532,0,.873.239.949.657a.814.814,0,0,1-.828.982c-.958.009-1.917,0-2.875,0h-6" transform="translate(-997.36 721.507)" fill="#fd8800"/>
    <path id="Path_1078" data-name="Path 1078" d="M2026.069,50.684a.822.822,0,1,1-.773-.877.812.812,0,0,1,.773.877" transform="translate(-843.49 721.493)" fill="#003149"/>
    <path id="Path_1079" data-name="Path 1079" d="M2070,50.614a.821.821,0,1,1-.846-.8.807.807,0,0,1,.846.8" transform="translate(-883.806 721.491)" fill="#fd8800"/>
    <path id="Path_1080" data-name="Path 1080" d="M2113.082,51.448a.821.821,0,1,1,.831-.82.806.806,0,0,1-.831.82" transform="translate(-924.101 721.492)" fill="#003149"/>
    <path id="Path_1081" data-name="Path 1081" d="M2244.214,322.133a5.352,5.352,0,1,1-5.357,5.327,5.326,5.326,0,0,1,5.357-5.327m.01,9.052a3.7,3.7,0,1,0-3.713-3.7,3.71,3.71,0,0,0,3.713,3.7" transform="translate(-1040.266 471.586)" fill="#fd8800"/>
    <path id="Path_1082" data-name="Path 1082" d="M2073.28,195.157a2.8,2.8,0,1,1,2.782-2.786,2.777,2.777,0,0,1-2.782,2.786m1.116-2.8a1.129,1.129,0,1,0-2.258.01,1.129,1.129,0,1,0,2.258-.01" transform="translate(-885.729 593.24)" fill="#003149"/>
  </g>
</svg>
