<svg xmlns="http://www.w3.org/2000/svg" width="46.118" height="46.114" viewBox="0 0 46.118 46.114">
  <g id="Group_5471" data-name="Group 5471" transform="translate(-1051.286 -768.012)">
    <path id="Path_1043" data-name="Path 1043" d="M675.808,9.877a4.269,4.269,0,0,1,2.172,1.343,3.472,3.472,0,0,1,.794,2.152c.008,3.556.022,7.112,0,10.668a3.553,3.553,0,0,1-3.575,3.485c-2.986.015-5.972,0-8.958,0h-.611v1.3c0,.42,0,.84,0,1.26a2.173,2.173,0,0,1-2.315,2.3q-8.62,0-17.24-.008a1.08,1.08,0,0,0-.856.363c-.941.968-1.907,1.913-2.858,2.871a.966.966,0,0,1-1.755-.728c.008-.809,0-1.619,0-2.5-.327,0-.635,0-.943,0a2.128,2.128,0,0,1-2.124-2.116q-.013-7.157,0-14.314a2.126,2.126,0,0,1,2.211-2.119q7.247-.006,14.494,0h.486a12.076,12.076,0,0,1,.367-1.688,3.409,3.409,0,0,1,2.206-2.09c.167-.057.33-.123.5-.185Zm-9,15.852h8.013a1.891,1.891,0,0,0,2.162-2.144q0-4.862,0-9.723a1.9,1.9,0,0,0-2.168-2.183H658.787a1.891,1.891,0,0,0-2.162,2.144q0,4.884,0,9.768a1.882,1.882,0,0,0,2.122,2.138q4.029,0,8.058,0M642.441,32.8l.121.042c.568-.574,1.146-1.139,1.7-1.727a1.605,1.605,0,0,1,1.268-.537q8.711.023,17.423.01c.105,0,.21,0,.315,0,.387.02.542-.18.54-.547,0-.765,0-1.531,0-2.3a.78.78,0,0,0-.049-.193.694.694,0,0,0-.113-.024l-4.907,0a3.621,3.621,0,0,1-3.909-3.931q0-3.737,0-7.473v-.46c-.1-.014-.133-.022-.163-.022q-7.383,0-14.767-.006c-.439,0-.569.211-.567.615.009,2.011,0,4.022,0,6.033q0,3.827,0,7.653c0,.553.1.65.655.653.435,0,.87,0,1.306,0,.812,0,1.131.319,1.146,1.146.007.355,0,.71,0,1.066" transform="translate(418.618 758.135)" fill="#fd8800"/>
    <path id="Path_1044" data-name="Path 1044" d="M583.652,277.175a6.373,6.373,0,0,1,1.069-2.387,5.069,5.069,0,0,1,4.036-2.019c1.561-.025,3.122,0,4.683-.012a1.943,1.943,0,0,0,.693-.133q7.479-3,14.952-6.008c.957-.384,1.5-.027,1.5.987,0,2,0,3.992,0,5.988,0,.25.038.393.318.487a4.051,4.051,0,0,1-.05,7.748c-.071.024-.143.043-.263.08v.477q0,2.949,0,5.9c0,.99-.544,1.364-1.465.994Q602.3,286.544,595.5,283.8c-.178-.071-.358-.139-.589-.228v2.462c0,.78.006,1.561,0,2.341a.932.932,0,0,1-1.062,1.043q-1.689.006-3.377,0a.927.927,0,0,1-1.049-1.051c0-1.576,0-3.152,0-4.728v-.465a12.513,12.513,0,0,1-1.772-.2,5.069,5.069,0,0,1-3.907-4.072,1.082,1.082,0,0,0-.086-.2Zm21.083-6.818c-.124.033-.183.043-.237.065q-4.641,1.87-9.284,3.735a.444.444,0,0,0-.311.5c.007,2.161.015,4.322-.006,6.482a.579.579,0,0,0,.449.641q6.46,2.579,12.908,5.185c.161.065.328.114.5.174V268.711c-.614.247-1.187.5-1.776.706a.548.548,0,0,0-.421.619c.014,2.926.009,5.852.006,8.778a3.219,3.219,0,0,1-.046.626.834.834,0,0,1-.776.7.847.847,0,0,1-.917-.571,2.249,2.249,0,0,1-.088-.663q-.009-3.4,0-6.8Zm-11.662,4.211c-1.39,0-2.724,0-4.059,0a6.412,6.412,0,0,0-.67.069,3.369,3.369,0,0,0-2.887,3.282,3.29,3.29,0,0,0,2.894,3.3c1.538.1,3.085.055,4.628.072.025,0,.05-.026.094-.051Zm-1.822,13.025h1.811v-4.463h-1.811ZM610.6,279.93a2.143,2.143,0,0,0,1.331-2.043,2.088,2.088,0,0,0-1.331-1.929Z" transform="translate(467.634 524.701)" fill="#003149"/>
    <path id="Path_1045" data-name="Path 1045" d="M949.389,383.868c.781,0,1.561-.008,2.341,0,.665.009,1.062.359,1.057.905s-.41.906-1.065.909q-2.387.009-4.773,0c-.655,0-1.05-.36-1.048-.916s.376-.889,1.057-.9c.81-.01,1.621,0,2.431,0" transform="translate(138.074 417.895)" fill="#fd8800"/>
    <path id="Path_1046" data-name="Path 1046" d="M930.176,437.62a4.448,4.448,0,0,1,.768.452c.569.533,1.117,1.088,1.659,1.649a.913.913,0,0,1,.062,1.389.925.925,0,0,1-1.357-.12q-.852-.834-1.685-1.687a.818.818,0,0,1-.2-1.023,3.416,3.416,0,0,1,.749-.66" transform="translate(153.159 368.991)" fill="#003149"/>
    <path id="Path_1047" data-name="Path 1047" d="M929.959,311.458a3.679,3.679,0,0,1-.7-.584.7.7,0,0,1,.066-.914c.634-.673,1.285-1.335,1.965-1.962a.853.853,0,0,1,1.144.074.833.833,0,0,1,.077,1.177c-.615.67-1.273,1.3-1.932,1.931a2.39,2.39,0,0,1-.623.277" transform="translate(153.337 487.086)" fill="#003149"/>
    <path id="Path_1048" data-name="Path 1048" d="M926.766,62.638c-.246.331-.378.668-.625.815q-3.033,1.8-6.106,3.538a.882.882,0,0,1-1.38-.81q-.029-3.512,0-7.024a.891.891,0,0,1,1.422-.79q3.026,1.726,6.026,3.5c.251.149.4.464.662.775m-6.284,2,3.406-1.971L920.482,60.7Z" transform="translate(162.875 714.17)" fill="#fd8800"/>
    <path id="Path_1049" data-name="Path 1049" d="M693.345,116.474c-1.41,0-2.82-.025-4.229.01-.722.018-1.131-.334-1.163-.9s.419-.911,1.14-.911q4.274,0,8.548,0c.7,0,1.112.334,1.122.888s-.421.911-1.144.911q-2.137,0-4.274,0" transform="translate(372.747 662.795)" fill="#fd8800"/>
    <path id="Path_1050" data-name="Path 1050" d="M691.639,172.353c-.9,0-1.8,0-2.7,0a.906.906,0,1,1-.012-1.8q2.7-.007,5.4,0a.9.9,0,1,1,.012,1.8c-.9.006-1.8,0-2.7,0" transform="translate(372.78 611.959)" fill="#003149"/>
    <path id="Path_1051" data-name="Path 1051" d="M788.606,172.388a.9.9,0,1,1,.92-.9.922.922,0,0,1-.92.9" transform="translate(281.983 611.922)" fill="#003149"/>
    <path id="Path_1052" data-name="Path 1052" d="M818.311,438.986a.881.881,0,0,1,.886.878.9.9,0,0,1-.9.92.948.948,0,0,1-.9-.89.918.918,0,0,1,.916-.908" transform="translate(254.984 367.748)" fill="#003149"/>
  </g>
</svg>
