<svg xmlns="http://www.w3.org/2000/svg" width="68.149" height="68.131" viewBox="0 0 68.149 68.131">
  <g id="Group_5482" data-name="Group 5482" transform="translate(-1312.256 -737.514)">
    <path id="Path_1129" data-name="Path 1129" d="M850.484,98.253a15.835,15.835,0,0,1,1.53-2.41,4.254,4.254,0,0,1,3.521-1.188c0-.938-.007-1.819,0-2.7a1.36,1.36,0,0,1,1.543-1.552q3.526-.009,7.052,0a1.36,1.36,0,0,1,1.521,1.517c.011.884,0,1.768,0,2.7h3.293c.4-1.293.818-2.633,1.231-3.974q1-3.262,2-6.526c.32-1.043.671-1.3,1.779-1.3h21.223c1.086,0,1.434.264,1.76,1.323l3.234,10.521h.7q6.486,0,12.973,0a4.515,4.515,0,0,1,4.78,4.793q0,17.76,0,35.52a4.52,4.52,0,0,1-3.392,4.794.947.947,0,0,0-.2.138H854.078c-.192-.088-.378-.193-.576-.262a4.321,4.321,0,0,1-2.29-1.811,13.747,13.747,0,0,1-.728-1.52ZM913.3,137.2c1.86.168,2.671-.558,2.671-2.313q0-17.6,0-35.191c0-1.688-.688-2.373-2.381-2.374H855.5c-1.656,0-2.358.692-2.358,2.33q0,17.629,0,35.257c0,1.642.7,2.336,2.351,2.336h55.109c0-.362,0-.625,0-.888,0-2.772-.011-5.544.012-8.315a1.324,1.324,0,0,1,1.331-1.435,1.389,1.389,0,0,1,1.347,1.445c.017.332,0,.665,0,1,0,2.7,0,5.4,0,8.148M897.347,94.645c-.911-2.98-1.805-5.89-2.684-8.8-.113-.376-.36-.367-.66-.367q-9.443.006-18.886-.007c-.446,0-.594.164-.71.564-.462,1.59-.963,3.169-1.45,4.752l-1.19,3.863ZM862.956,93.1h-4.712v1.563h4.712Z" transform="translate(461.772 665.739)" fill="#003149"/>
    <path id="Path_1130" data-name="Path 1130" d="M1098.7,3.391c0,.687.012,1.374,0,2.06a1.329,1.329,0,1,1-2.652,0q-.022-2.027,0-4.054a1.328,1.328,0,1,1,2.652,0c.015.664,0,1.329,0,1.994" transform="translate(248.963 737.513)" fill="#fd8800"/>
    <path id="Path_1131" data-name="Path 1131" d="M1036.242,32.573a3.93,3.93,0,0,1,.963.449c.761.708,1.509,1.436,2.208,2.2a1.277,1.277,0,0,1-.062,1.8,1.251,1.251,0,0,1-1.748.082c-.79-.709-1.535-1.471-2.259-2.248a1.075,1.075,0,0,1-.146-1.412,5.521,5.521,0,0,1,1.045-.872" transform="translate(301.861 709.283)" fill="#fd8800"/>
    <path id="Path_1132" data-name="Path 1132" d="M1142.439,38.267a5.09,5.09,0,0,1-1-.82,1.04,1.04,0,0,1,.077-1.353c.763-.829,1.557-1.636,2.394-2.39a1.272,1.272,0,0,1,1.645.12,1.18,1.18,0,0,1,.205,1.626c-.787.894-1.663,1.71-2.526,2.534-.143.137-.4.15-.794.283" transform="translate(209.797 708.521)" fill="#fd8800"/>
    <path id="Path_1133" data-name="Path 1133" d="M1011.11,221.794a18.593,18.593,0,0,1-14.96,18.082,18.39,18.39,0,0,1-20.784-11.838,1.4,1.4,0,0,1,.709-1.995,1.373,1.373,0,0,1,1.794,1.024,15.7,15.7,0,1,0,.392-11.436c-.111.265-.219.533-.352.787a1.309,1.309,0,0,1-1.763.724,1.339,1.339,0,0,1-.679-1.791,17.173,17.173,0,0,1,2.555-4.633,18.053,18.053,0,0,1,11.992-7.076,18.4,18.4,0,0,1,20.676,14.663c.228,1.146.283,2.326.419,3.49" transform="translate(353.669 561.194)" fill="#fd8800"/>
    <path id="Path_1134" data-name="Path 1134" d="M1040.371,263.7a11.941,11.941,0,1,1-11.962-11.918,12.021,12.021,0,0,1,11.962,11.918m-11.981,9.23a9.209,9.209,0,1,0-9.171-9.232,9.171,9.171,0,0,0,9.171,9.232" transform="translate(317.9 519.303)" fill="#003149"/>
    <path id="Path_1135" data-name="Path 1135" d="M895.351,207.065A3.459,3.459,0,1,1,891.9,203.6a3.446,3.446,0,0,1,3.451,3.466m-3.585.883.293-.007c.2-.295.535-.57.583-.888.065-.433-.279-.727-.732-.77-.4-.038-.894.438-.774.8a3.465,3.465,0,0,0,.63.865" transform="translate(428.883 561.06)" fill="#fd8800"/>
    <path id="Path_1136" data-name="Path 1136" d="M1242.619,222.2c-1.085,0-2.171.007-3.256,0a1.337,1.337,0,1,1,.006-2.655q3.289-.01,6.579,0a1.337,1.337,0,1,1-.007,2.655c-1.107.008-2.215,0-3.323,0" transform="translate(126.036 547.244)" fill="#fd8800"/>
    <path id="Path_1137" data-name="Path 1137" d="M968.3,331.832a1.332,1.332,0,1,1,2.655.142,1.33,1.33,0,1,1-2.655-.142" transform="translate(359.662 451.086)" fill="#003149"/>
    <path id="Path_1138" data-name="Path 1138" d="M1301.6,377.654a1.322,1.322,0,0,1,1.281-1.333,1.39,1.39,0,0,1,1.378,1.333,1.366,1.366,0,0,1-1.377,1.321,1.3,1.3,0,0,1-1.282-1.322" transform="translate(70.801 411.366)" fill="#003149"/>
    <path id="Path_1139" data-name="Path 1139" d="M1069.812,126.725c1.329,0,2.659-.005,3.988,0,.954,0,1.549.542,1.53,1.363-.018.791-.6,1.291-1.532,1.293q-4.055.008-8.11,0c-.932,0-1.513-.5-1.53-1.295-.018-.82.577-1.357,1.532-1.361,1.374-.007,2.748,0,4.121,0" transform="translate(276.586 627.686)" fill="#fd8800"/>
    <path id="Path_1140" data-name="Path 1140" d="M1061.192,302.292a6.041,6.041,0,0,1,5.845-5.822,1.358,1.358,0,0,1,1.461,1.238,1.314,1.314,0,0,1-1.266,1.419c-2.209.318-3.058,1.172-3.384,3.4a1.319,1.319,0,0,1-1.44,1.241,1.364,1.364,0,0,1-1.215-1.481" transform="translate(279.157 480.571)" fill="#fd8800"/>
  </g>
</svg>
