<svg xmlns="http://www.w3.org/2000/svg" width="66.703" height="66.674" viewBox="0 0 66.703 66.674">
  <g id="Group_5476" data-name="Group 5476" transform="translate(-805.453 -1614.743)">
    <path id="Path_1088" data-name="Path 1088" d="M32.531,147.88h1.613a19.017,19.017,0,0,1,2.193.961q10.159,6.02,20.289,12.086c2.631,1.57,5.268,3.13,7.889,4.716a4.313,4.313,0,1,1-4.29,7.484c-.338-.183-.667-.384-1.055-.609v1.654c.107.042.189.076.272.108,4.265,1.633,6.817,4.715,7.174,9.255.375,4.768-1.764,8.328-6.009,10.574a.63.63,0,0,0-.394.669c.021.842.007,1.685.007,2.6H58.108v2.138h2.059v6.463H58.118v2.138h2.1c0,1.029,0,2.008,0,2.988a3.2,3.2,0,0,1-3.421,3.447H7.515V172.528c-.479.266-.875.506-1.288.713a4.189,4.189,0,0,1-5.034-.908A11.828,11.828,0,0,1,0,170.195v-1.613a5.7,5.7,0,0,1,2.958-3.439c7.741-4.569,15.439-9.212,23.18-13.782,2.088-1.233,4.028-2.751,6.393-3.481M57,173.718c0-.691-.034-1.294.011-1.892a.9.9,0,0,0-.539-.943q-10.7-6.357-21.386-12.743a3.105,3.105,0,0,0-3.466-.009q-10.68,6.388-21.385,12.735a1,1,0,0,0-.566,1q.022,19.926.013,39.852c0,.216.02.432.03.653H51.632V197.315H14.019v-2.141h6.343A16.2,16.2,0,0,1,24.1,172.287a15.672,15.672,0,0,1,11.594-2.733,15.932,15.932,0,0,1,11.819,8.22A10.879,10.879,0,0,1,57,173.718M2.147,169.4c.014.1.022.215.044.324a2.18,2.18,0,0,0,3.454,1.347q12.337-7.344,24.662-14.71a5.4,5.4,0,0,1,6.049-.012c6.783,4.079,13.59,8.116,20.389,12.169,1.5.893,2.992,1.794,4.5,2.67a2.206,2.206,0,0,0,2.614-.28,1.964,1.964,0,0,0,.456-2.331,3.454,3.454,0,0,0-1.192-1.2q-13.955-8.366-27.932-16.7a3.257,3.257,0,0,0-3.7,0c-5.034,3.039-10.1,6.03-15.148,9.041q-6.481,3.864-12.963,7.728A2.372,2.372,0,0,0,2.147,169.4m55.925,25.813a15.16,15.16,0,0,0-.012-1.629c-.071-.618.164-.874.75-1.089a8.545,8.545,0,0,0-4.094-16.514,8.162,8.162,0,0,0-6.972,6,8.009,8.009,0,0,0,2.577,8.915,23.618,23.618,0,0,0,3.448,2.119v.547q0,6.518,0,13.035c0,1.5-.008,3,0,4.5a1.148,1.148,0,0,0,1.267,1.3c.6.014,1.21.017,1.814,0a1.134,1.134,0,0,0,1.216-1.221c.012-.285,0-.572,0-.93h-2.1v-6.484h2.065v-2.138H55.954v-6.414ZM33.322,175.841a9.678,9.678,0,1,0,9.693,9.646,9.741,9.741,0,0,0-9.693-9.646M26.446,195.2a11.988,11.988,0,0,1-3.986-14.373,11.828,11.828,0,0,1,11.856-7.107,11.346,11.346,0,0,1,7.143,3.195,11.947,11.947,0,0,1,3.634,7.04c.126-.7.2-1.3.349-1.881.154-.6.405-1.182.557-1.786a1.206,1.206,0,0,0-.082-.741A13.922,13.922,0,0,0,19.461,184.2a13.45,13.45,0,0,0,3.46,10.576,1.157,1.157,0,0,0,.7.4c.892.048,1.787.019,2.823.019m18.732-9.021a12.024,12.024,0,0,1-4.99,9.021c1.024,0,1.873.029,2.718-.017a1.255,1.255,0,0,0,.787-.357,12.564,12.564,0,0,0,2.695-4.517,1.574,1.574,0,0,0-.046-.935c-.377-1.113-.8-2.209-1.165-3.2m6.569,9c-.153-.391-.183-.808-.4-.961-1.049-.742-2.148-1.413-3.225-2.107l-1.771,3.067Z" transform="translate(805.453 1466.863)" fill="#003149"/>
    <rect id="Rectangle_925" data-name="Rectangle 925" width="2.071" height="2.066" transform="translate(844.201 1675.017)" fill="#fd8800"/>
    <rect id="Rectangle_926" data-name="Rectangle 926" width="2.066" height="2.068" transform="translate(848.5 1675.001)" fill="#fd8800"/>
    <rect id="Rectangle_927" data-name="Rectangle 927" width="2.09" height="2.055" transform="translate(852.818 1675.008)" fill="#fd8800"/>
    <path id="Path_1089" data-name="Path 1089" d="M391.836,375.718a4.3,4.3,0,1,1-4.321-4.28,4.269,4.269,0,0,1,4.321,4.28m-2.154.044a2.147,2.147,0,1,0-2.171,2.123,2.213,2.213,0,0,0,2.171-2.123" transform="translate(473.838 1273.418)" fill="#fd8800"/>
    <path id="Path_1090" data-name="Path 1090" d="M215.553,373.9h3.208v-2.1h2.155v2.032c2.067.344,3.232,1.529,3.212,3.25h-2.094c-.192-.871-.831-1.073-1.657-1.039-.867.036-1.736.008-2.674.008,0,.363-.013.67,0,.975A1.12,1.12,0,0,0,218.9,378.2c.693.021,1.388,0,2.082.007a3.185,3.185,0,0,1,3.17,3.153c.011,1.071,0,2.142,0,3.286h-3.208v2.112h-2.155v-2.031c-2.069-.349-3.235-1.534-3.212-3.251h2.093c.193.872.832,1.073,1.659,1.039.867-.035,1.736-.008,2.673-.008,0-.363.014-.67,0-.975a1.12,1.12,0,0,0-1.194-1.172c-.693-.021-1.388,0-2.082-.007a3.188,3.188,0,0,1-3.17-3.154c-.01-1.071,0-2.142,0-3.3" transform="translate(618.937 1273.103)" fill="#fd8800"/>
  </g>
</svg>
