<svg id="Group_5160" data-name="Group 5160" xmlns="http://www.w3.org/2000/svg" xmlns:xlink="http://www.w3.org/1999/xlink" width="67.783" height="67.769" viewBox="0 0 67.783 67.769">
  <defs>
    <clipPath id="clip-path">
      <rect id="Rectangle_773" data-name="Rectangle 773" width="67.783" height="67.769" fill="none"/>
    </clipPath>
  </defs>
  <g id="Group_5159" data-name="Group 5159" clip-path="url(#clip-path)">
    <path id="Path_943" data-name="Path 943" d="M62.556,67.768H5.225a1.712,1.712,0,0,1-.718-1.424q.025-15.6.013-31.2c0-.9.406-1.4,1.122-1.4s1.125.5,1.136,1.393c0,.188,0,.377,0,.565V65.458h3.389v-.893q0-11.153,0-22.306c0-1.258.335-1.6,1.579-1.6H29.4c1.353,0,1.669.312,1.669,1.65q0,11.153,0,22.306v.847H60.956V31.631a5.885,5.885,0,0,1-4.482-2.271,5.649,5.649,0,0,1-9.013.027,5.752,5.752,0,0,1-9.085.019,5.63,5.63,0,0,1-4.516,2.212,5.709,5.709,0,0,1-4.5-2.253,5.593,5.593,0,0,1-4.515,2.252,5.655,5.655,0,0,1-4.515-2.253,5.657,5.657,0,0,1-9.014.03,2.545,2.545,0,0,0-.195.167,5.645,5.645,0,0,1-9.991-3.92c0-1.74,0-3.48,0-5.095L0,19.626V14.262a1.655,1.655,0,0,1,1.637-.715c.573.046,1.152.009,1.752.009,0-1.1.022-2.086-.007-3.073a1.371,1.371,0,0,1,.947-1.465Q14.729,4.662,25.121.286A3.641,3.641,0,0,1,26.479.014q7.377-.029,14.755,0A4.206,4.206,0,0,1,42.8.331q10.242,4.279,20.465,8.6a3.272,3.272,0,0,1,.571.274,1.048,1.048,0,0,1,.449,1.4,1.052,1.052,0,0,1-1.331.633,5.068,5.068,0,0,1-.722-.281Q52.162,6.719,42.09,2.492a8.909,8.909,0,0,0-1.736-.32c.225.411.332.616.449.816,1.929,3.31,3.872,6.613,5.778,9.936a1.142,1.142,0,0,0,1.16.644q9.248-.029,18.5-.011c1.193,0,1.541.355,1.542,1.564q0,1.87,0,3.741c0,1.1-.381,1.47-1.495,1.471q-3.953,0-7.907,0h-.759c0,2.016-.037,3.922.011,5.825a3.38,3.38,0,0,0,6.752-.02c.031-.728,0-1.459.011-2.188.009-.838.428-1.342,1.11-1.354s1.135.5,1.146,1.318c.01.729.028,1.46-.005,2.188a5.423,5.423,0,0,1-2.774,4.7,1.076,1.076,0,0,0-.619,1.1q.022,17.116.024,34.232a1.783,1.783,0,0,1-.719,1.637m-50.1-2.309H28.751v-22.5H12.457Zm11.03-51.941H44.27a2.285,2.285,0,0,0-.115-.3C42.1,9.69,40.046,6.158,37.964,2.643a.975.975,0,0,0-.72-.365c-2.209-.028-4.419,0-6.628-.031a.921.921,0,0,0-.924.558q-2.926,5.061-5.881,10.1c-.1.177-.193.362-.323.608m-21.2,4.506H65.463V15.851H2.291ZM27.317,2.358l-.138-.252c-.721.223-1.467.388-2.161.678Q15.625,6.707,6.251,10.676c-.227.1-.558.305-.573.483-.063.784-.027,1.577-.027,2.355.168.022.237.039.306.039,4.8,0,9.6.01,14.4-.017a1.042,1.042,0,0,0,.727-.472c2-3.377,3.969-6.771,5.945-10.161.1-.178.195-.362.292-.544m-23.927,18c0,1.933-.018,3.786.005,5.639a3.383,3.383,0,0,0,6.766-.036c.021-1.713.007-3.427,0-5.141a3.768,3.768,0,0,0-.056-.463Zm9.038,0c0,1.927-.02,3.8.006,5.674a3.383,3.383,0,0,0,3.116,3.322,3.272,3.272,0,0,0,3.584-2.868c.149-2.023.035-4.065.035-6.128Zm9.073,0c-.018.145-.034.214-.034.283,0,1.784-.02,3.568,0,5.352a3.383,3.383,0,0,0,6.766-.021c.021-1.737.006-3.474,0-5.211a3.1,3.1,0,0,0-.053-.4Zm9,0c0,1.933-.021,3.807.006,5.68a3.381,3.381,0,0,0,3.121,3.318,3.273,3.273,0,0,0,3.58-2.873c.147-2.023.034-4.064.034-6.125Zm9.037,0c0,1.929-.017,3.782,0,5.634a3.383,3.383,0,0,0,6.766-.018c.022-1.737.006-3.474,0-5.211a3.171,3.171,0,0,0-.052-.4Zm15.8.022H48.586c0,1.994-.056,3.942.017,5.885a3.373,3.373,0,0,0,6.725,0c.074-1.942.017-3.89.017-5.882" transform="translate(0 0)" fill="#003149"/>
    <path id="Path_944" data-name="Path 944" d="M255.507,248.63c0,1.082.008,2.115,0,3.148-.008.817-.469,1.328-1.152,1.312a1.151,1.151,0,0,1-1.1-1.291c-.011-1.035,0-2.07,0-3.163h-2.324l-1,17.968h17.93c-.092-1.711-.184-3.4-.271-5.081a2.841,2.841,0,0,1,0-.7,1.053,1.053,0,0,1,1.141-.936,1,1,0,0,1,1.05.949c.093.936.124,1.877.181,2.816.076,1.268.164,2.535.222,3.8.046,1.012-.367,1.45-1.358,1.451q-9.919.007-19.838,0c-1,0-1.427-.436-1.373-1.436q.441-8.138.906-16.276.1-1.8.206-3.593a1.165,1.165,0,0,1,1.333-1.279c1.032-.01,2.065,0,3.192,0a6.034,6.034,0,0,1,2.264-5.636,5.422,5.422,0,0,1,3.769-1.122,5.536,5.536,0,0,1,4.1,2.2,6.364,6.364,0,0,1,1.152,4.553c1.056,0,2.058,0,3.061,0,1.076,0,1.428.349,1.487,1.417q.229,4.192.468,8.384c.05.882-.33,1.435-1.029,1.486s-1.164-.43-1.221-1.328c-.135-2.16-.238-4.321-.358-6.482-.022-.394-.06-.787-.091-1.187h-2.3c0,1.035,0,2.04,0,3.044,0,.9-.4,1.417-1.1,1.436-.723.019-1.153-.516-1.157-1.45,0-.986,0-1.972,0-3.01Zm.038-2.357h6.7c.184-1.64-.114-3.057-1.583-3.961a3.179,3.179,0,0,0-3.529,0c-1.475.907-1.77,2.318-1.59,3.961" transform="translate(-212.579 -205.657)" fill="#fd8800"/>
    <path id="Path_945" data-name="Path 945" d="M304.5,347.826a4.518,4.518,0,1,1-4.555-4.5,4.527,4.527,0,0,1,4.555,4.5m-2.261.038a2.256,2.256,0,1,0-2.257,2.237,2.265,2.265,0,0,0,2.257-2.237" transform="translate(-253.671 -294.759)" fill="#fd8800"/>
    <path id="Path_946" data-name="Path 946" d="M169.923,354.667c0,.729.012,1.459,0,2.188a1.134,1.134,0,1,1-2.252-.023q-.018-2.117,0-4.234a1.131,1.131,0,0,1,1.136-1.254,1.146,1.146,0,0,1,1.116,1.276c.013.682,0,1.364,0,2.047" transform="translate(-143.941 -301.64)" fill="#fd8800"/>
  </g>
</svg>
