<svg id="Group_5166" data-name="Group 5166" xmlns="http://www.w3.org/2000/svg" xmlns:xlink="http://www.w3.org/1999/xlink" width="67.211" height="67.769" viewBox="0 0 67.211 67.769">
  <defs>
    <clipPath id="clip-path">
      <rect id="Rectangle_791" data-name="Rectangle 791" width="67.211" height="67.769" fill="none"/>
    </clipPath>
  </defs>
  <g id="Group_5165" data-name="Group 5165" clip-path="url(#clip-path)">
    <path id="Path_963" data-name="Path 963" d="M.006,259.918V257.69h3.33V238.74c-.531.229-1.053.465-1.583.68A1.152,1.152,0,0,1,.01,238.249C0,236.508.017,234.766,0,233.025A1.289,1.289,0,0,1,.841,231.7q8.849-3.863,17.69-7.743a1.778,1.778,0,0,1,1.548.086q8,3.514,16.01,7.01c.474.207.94.433,1.421.621a1.336,1.336,0,0,1,.906,1.426c-.024,1.694,0,3.388-.01,5.083-.006,1.19-.724,1.666-1.813,1.211-.494-.206-.983-.426-1.565-.68v5.356H32.761V243.4c0-1.694-.014-3.389.01-5.083a.767.767,0,0,0-.526-.849c-4.183-1.81-8.353-3.649-12.538-5.453a1.371,1.371,0,0,0-.978-.009q-6.309,2.721-12.589,5.511a.893.893,0,0,0-.467.635c-.023,6.424-.016,12.848-.013,19.272a1.088,1.088,0,0,0,.041.184h3.34v-.757q0-6.706,0-13.413c0-1.255.335-1.592,1.582-1.593q3,0,6,0c1.063,0,1.451.384,1.451,1.441q0,6.742,0,13.483v.831H29.905c-.058-.153-.118-.315-.181-.476a3.863,3.863,0,0,1,.8-4.433,3.9,3.9,0,0,0,1.189-2.511,7.336,7.336,0,0,1,1.056-3.082,4.017,4.017,0,0,1,6.809,0,5.628,5.628,0,0,1,1.044,3.172A3.189,3.189,0,0,0,41.7,252.6a4,4,0,0,1,.494,5.22,4.8,4.8,0,0,1-2.439,1.834c-.216.077-.425.173-.637.26Zm36.144-23.2c0-.929-.036-1.752.014-2.57.03-.493-.17-.69-.59-.873-4.868-2.113-9.747-4.2-14.575-6.4a3.825,3.825,0,0,0-3.536-.015c-4.867,2.229-9.794,4.326-14.692,6.486-.2.088-.472.308-.48.478-.047.93-.022,1.864-.022,2.866.276-.1.475-.163.663-.245,5.1-2.232,10.2-4.454,15.286-6.712a2.25,2.25,0,0,1,2.008.006c2.374,1.076,4.767,2.108,7.155,3.153,2.88,1.26,5.761,2.516,8.772,3.83M11.313,257.614h4.456V244.162H11.313Zm24.853.045c.635,0,1.27,0,1.905,0a2.613,2.613,0,0,0,2.446-1.476,1.974,1.974,0,0,0-.762-2.36,4.378,4.378,0,0,1-1.38-3.134,5.4,5.4,0,0,0-.573-2.148,1.821,1.821,0,0,0-3.192-.209,3.877,3.877,0,0,0-.715,2.46,3.93,3.93,0,0,1-1.129,2.8c-.21.222-.429.436-.632.665a1.754,1.754,0,0,0-.086,2.375,2.514,2.514,0,0,0,2,1.022c.705.014,1.411,0,2.117,0" transform="translate(0 -192.149)" fill="#003149"/>
    <path id="Path_964" data-name="Path 964" d="M320.613,152.207c-.269,1.683-1.477,2.851-2.317,4.22-.306.5-.648.975-1,1.5.77.858,1.525,1.693,2.271,2.536a1.273,1.273,0,0,1,.144,1.94c-1.6,2.377-3.211,4.75-4.862,7.19l-1.875-1.25,4.561-6.759L316,159.869c-.187.263-.347.479-.5.7q-6.8,10.047-13.606,20.088a3.674,3.674,0,0,1-1.109,1.036c-1.225.743-2.492,1.415-3.739,2.123a1.237,1.237,0,0,1-1.391.073,1.2,1.2,0,0,1-.47-1.309c.2-1.562.385-3.126.618-4.683a2.46,2.46,0,0,1,.44-.945q8.939-13.24,17.886-26.474a3.405,3.405,0,0,1,3.568-1.744,3.25,3.25,0,0,1,2.818,2.931,1.444,1.444,0,0,0,.1.26Zm-6.184,5.912-1.554-1.734L302.3,172.024l1.871,1.264,10.259-15.169M302.9,175.165l-1.866-1.265c-.917,1.354-1.793,2.655-2.678,3.951-.6.878-.467,1.883-.644,3.03a8.68,8.68,0,0,0,2.213-1.4c1.084-1.341,1.976-2.839,2.976-4.317m12.869-19.034q.983-1.451,1.968-2.9c.118-.175.243-.346.346-.53a1.134,1.134,0,0,0-.311-1.558,1.1,1.1,0,0,0-1.55.315c-.34.448-.64.926-.956,1.393-1.165,1.721-1.165,1.722.35,3.192a.961.961,0,0,0,.153.093" transform="translate(-253.402 -127.643)" fill="#fd8800"/>
    <path id="Path_965" data-name="Path 965" d="M103.362,28.2h-2.24V14.682h-.794c-1.906,0-3.812,0-5.717,0-1.014,0-1.409-.4-1.412-1.409-.006-2.137,0-4.274,0-6.487H66.124V4.545h2.145A2.158,2.158,0,0,0,66.3,2.266,2.2,2.2,0,0,0,63.858,4.29C63.8,6.642,63.823,9,63.846,11.348a1.082,1.082,0,0,0,1.1,1.069A1.108,1.108,0,0,0,66.078,11.3c.03-.725.007-1.452.007-2.224H68.39a21.39,21.39,0,0,1-.177,3.011A3.288,3.288,0,0,1,64.6,14.665,3.385,3.385,0,0,1,61.58,11.38c-.029-1.5-.006-3.006-.006-4.557H58.209V32.7H55.924v-.733q0-12.918,0-25.835c0-1.29.327-1.612,1.633-1.613h3.982A4.7,4.7,0,0,1,63.27.994,4.44,4.44,0,0,1,66.214,0c2.369.052,4.023,1.711,4.446,4.514h.822c7.435,0,14.87.008,22.305-.013a2.24,2.24,0,0,1,1.74.726q3.566,3.621,7.186,7.189a2.016,2.016,0,0,1,.661,1.553c-.02,4.518-.011,9.035-.011,13.553ZM95.491,12.368h3.65l-3.65-3.632Z" transform="translate(-48.011 0)" fill="#003149"/>
    <rect id="Rectangle_784" data-name="Rectangle 784" width="33.788" height="2.18" transform="translate(14.731 22.621)" fill="#fd8800"/>
    <rect id="Rectangle_785" data-name="Rectangle 785" width="33.769" height="2.199" transform="translate(14.745 27.153)" fill="#fd8800"/>
    <rect id="Rectangle_786" data-name="Rectangle 786" width="27.018" height="2.175" transform="translate(21.499 18.106)" fill="#fd8800"/>
    <path id="Path_966" data-name="Path 966" d="M148.205,375.1c-1.059,0-2.118.009-3.176,0-.886-.009-1.309-.419-1.315-1.291q-.018-2.647,0-5.294A1.146,1.146,0,0,1,145,367.2q3.212-.016,6.423,0a1.148,1.148,0,0,1,1.316,1.289q.018,2.647,0,5.294c-.006.909-.428,1.31-1.361,1.318-1.059.008-2.117,0-3.176,0m-2.2-2.308h4.43v-3.3H146Z" transform="translate(-123.374 -315.24)" fill="#003149"/>
    <path id="Path_967" data-name="Path 967" d="M319.465,359.36v-2.224h7.867V343.593h2.285v.7q0,6.734,0,13.468c0,1.256-.339,1.6-1.574,1.6q-3.913,0-7.827,0h-.751" transform="translate(-274.266 -294.98)" fill="#003149"/>
    <rect id="Rectangle_787" data-name="Rectangle 787" width="16.878" height="2.171" transform="translate(31.662 31.662)" fill="#fd8800"/>
    <rect id="Rectangle_788" data-name="Rectangle 788" width="3.296" height="2.18" transform="translate(40.708 36.176)" fill="#fd8800"/>
    <rect id="Rectangle_789" data-name="Rectangle 789" width="2.172" height="2.185" transform="translate(16.998 18.113)" fill="#fd8800"/>
    <rect id="Rectangle_790" data-name="Rectangle 790" width="2.177" height="2.172" transform="translate(12.477 45.212)" fill="#003149"/>
  </g>
</svg>
