<svg id="Group_5158" data-name="Group 5158" xmlns="http://www.w3.org/2000/svg" xmlns:xlink="http://www.w3.org/1999/xlink" width="66.658" height="66.674" viewBox="0 0 66.658 66.674">
  <defs>
    <clipPath id="clip-path">
      <rect id="Rectangle_772" data-name="Rectangle 772" width="66.658" height="66.674" fill="none"/>
    </clipPath>
  </defs>
  <g id="Group_5157" data-name="Group 5157" clip-path="url(#clip-path)">
    <path id="Path_939" data-name="Path 939" d="M2.477,167.031a3.293,3.293,0,0,1-2.348-2.217,3.051,3.051,0,0,1,2.806-3.9c.516-.022,1.033,0,1.587,0V149.18l-.54.2a2.925,2.925,0,0,1-3.655-1.4,2.88,2.88,0,0,1,1.022-3.773c.893-.573,1.834-1.072,2.731-1.639a.852.852,0,0,0,.379-.583c.015-4.795,0-9.59,0-14.385a.562.562,0,0,0-.035-.107c-.226-.035-.476-.064-.723-.113A2.954,2.954,0,0,1,1.324,125a2.881,2.881,0,0,1,1.45-3.028c1.193-.663,2.409-1.285,3.626-1.9a.972.972,0,0,1,1.351.365.991.991,0,0,1-.475,1.37c-1.087.586-2.19,1.143-3.282,1.719-.7.369-.918.861-.646,1.407.283.569.833.687,1.559.311,2.866-1.487,5.734-2.968,8.587-4.479a1.585,1.585,0,0,1,1.645,0c2.795,1.482,5.606,2.932,8.413,4.391a3.4,3.4,0,0,0,.589.272.9.9,0,0,0,1.107-.454.87.87,0,0,0-.145-1.131,2.076,2.076,0,0,0-.538-.355c-3.15-1.645-6.306-3.277-9.448-4.936a1.494,1.494,0,0,0-1.589-.009c-.656.379-1.336.717-2.015,1.055a.98.98,0,0,1-1.41-.334.994.994,0,0,1,.524-1.4c.782-.422,1.569-.833,2.366-1.226a2.8,2.8,0,0,1,2.631,0q5.11,2.64,10.2,5.32a2.859,2.859,0,0,1,1.467,3.075,2.955,2.955,0,0,1-2.521,2.384c-.19.028-.383.039-.636.065,0,1.036,0,2.052,0,3.068,0,.169.027.337.047.569h.732q4.914,0,9.828,0a3.1,3.1,0,0,1,.648.027.909.909,0,0,1,.813,1.008.893.893,0,0,1-.918.905c-.317.023-.637,0-.99,0v2.553c.154.013.279.03.4.033,1.248.031,1.484.267,1.485,1.49,0,1.584.017,3.168-.011,4.752a.831.831,0,0,0,.51.861c.764.408,1.5.862,2.246,1.31a2.928,2.928,0,0,1-2.66,5.217c-.077-.031-.155-.059-.289-.11v5.314H51.19v-2.268c-.431-.074-.876-.131-1.312-.228a10.053,10.053,0,0,1-6.93-5.521,18.747,18.747,0,0,1-1.989-8.145A33.192,33.192,0,0,1,44.757,121a12.787,12.787,0,0,1,3.489-4.239,5.6,5.6,0,0,1,7.206-.079,18.7,18.7,0,0,1,2.529,2.6.945.945,0,0,1-.144,1.435c-.467.342-.969.228-1.421-.287a20.548,20.548,0,0,0-1.711-1.864,3.853,3.853,0,0,0-5.468-.1,11.706,11.706,0,0,0-2.9,3.721A30.4,30.4,0,0,0,43.1,133.022a25.543,25.543,0,0,0,.4,9.373,11.017,11.017,0,0,0,3.6,6.184,7.294,7.294,0,0,0,4.085,1.626v-6.7c-.6,0-1.155-.01-1.714,0a2.563,2.563,0,0,1-2.417-1.36c-.374-.635-.766-1.26-1.133-1.9a.979.979,0,1,1,1.66-1.01c.37.586.74,1.175,1.07,1.784a.91.91,0,0,0,.941.535c.515-.026,1.032-.006,1.6-.006v-9.662c-1.4.1-2.052-1.014-2.877-1.838a.911.911,0,0,1,.038-1.341.973.973,0,0,1,1.351.014c.309.272.584.582.885.863.146.137.317.247.652.5,0-.6,0-1,0-1.395.011-.852.327-1.264.967-1.27s.98.405.982,1.252c.007,2.517,0,5.034,0,7.551v.691a1.185,1.185,0,0,0,1.451-.375,5.152,5.152,0,0,1,.644-.643.98.98,0,0,1,1.4-.017.992.992,0,0,1-.043,1.4c-1.227,1.411-1.315,1.457-3.4,1.735v11.083a6.275,6.275,0,0,0,2.882-1.074,10.347,10.347,0,0,0,4.152-6.322,25.622,25.622,0,0,0,.47-9.754,33.163,33.163,0,0,0-2.158-8.545.98.98,0,1,1,1.815-.692,33.526,33.526,0,0,1,2.163,8.078,28.8,28.8,0,0,1-.328,11.115,13.864,13.864,0,0,1-2.952,5.939,9.482,9.482,0,0,1-5.6,3.186c-.379.067-.521.193-.507.575.024.623.006,1.248.006,1.916h4.693c1.258,0,2.517,0,3.775,0,.961,0,1.273.316,1.278,1.293.006,1.432,0,2.864,0,4.3v.672c.091.056.127.1.16.1a3.293,3.293,0,0,1,3.568,2.5v1.172a3.511,3.511,0,0,1-2.474,2.474h-19.4a2.931,2.931,0,0,1-.5-.647c-.287-.722.251-1.3,1.184-1.3q8.786,0,17.573,0c.2,0,.392.01.586-.006a1.1,1.1,0,0,0,.01-2.2c-.172-.016-.347-.006-.52-.006H3.565c-1.061,0-1.593.362-1.6,1.089q-.018,1.124,1.636,1.124,18.354,0,36.708,0c.553,0,1.054.055,1.28.655s-.146.971-.573,1.3Zm31.461-6.15a1.678,1.678,0,0,0,.04-.236c0-4.1.01-8.2-.016-12.3a.974.974,0,0,0-.459-.659c-4.235-2.5-8.486-4.983-12.722-7.485a.885.885,0,0,0-1.05-.011Q13.377,143.943,7,147.652a.86.86,0,0,0-.495.865c.019,3.928.01,7.856.012,11.784,0,.188.021.376.033.563H9.9v-.757q0-5.013,0-10.026c0-1.231.561-1.8,1.781-1.8q3.059-.006,6.119,0c1.321,0,1.862.537,1.863,1.846q0,5.013,0,10.026v.727ZM22.18,134.161c0-2.459.012-4.818-.021-7.178,0-.2-.265-.47-.474-.581-2.294-1.219-4.594-2.424-6.913-3.594a1.191,1.191,0,0,0-.937.009c-2.279,1.153-4.53,2.36-6.807,3.516a.943.943,0,0,0-.611.988c.023,4.379.013,8.757.014,13.136,0,.207.022.414.039.717.3-.173.522-.3.74-.425,3.754-2.2,7.514-4.393,11.259-6.611a3.078,3.078,0,0,1,3.372-.105,2.732,2.732,0,0,0,.34.127m38.742,22.364H35.983v4.366H60.922ZM38.538,146.418a3.451,3.451,0,0,0-.726-.735c-5.579-3.3-11.175-6.563-16.756-9.855a1.414,1.414,0,0,0-1.624,0c-1.874,1.13-3.771,2.223-5.659,3.33q-5.579,3.273-11.157,6.549c-.637.375-.815.881-.532,1.4.3.544.848.647,1.512.28.171-.094.339-.192.508-.291,5.029-2.949,10.066-5.882,15.076-8.864a1.834,1.834,0,0,1,2.143,0c5.066,3.013,10.158,5.983,15.242,8.965a4.181,4.181,0,0,0,.689.362c.615.219,1.269-.249,1.285-1.146M11.9,160.858h5.778v-10.6H11.9Zm22.312-23.211H28l3.145,1.842,3.06,1.8Zm-5.152-2.037h3.213v-2.5H29.056Zm-4.921-2.5c0,.664.016,1.267-.005,1.868a.573.573,0,0,0,.617.663c.75.028,1.5.008,2.262.008v-2.578c-.836,0-1.613,0-2.391,0-.127,0-.254.019-.482.037" transform="translate(0 -100.357)" fill="#003149"/>
    <path id="Path_940" data-name="Path 940" d="M111.826,6a5.362,5.362,0,0,1,6.08,2.734,13.668,13.668,0,0,1,2.172.238,4.359,4.359,0,0,1,3.258,3.526,1.358,1.358,0,0,1-1.309,1.7c-.173.011-.347,0-.521,0-10.609,0-21.218-.017-31.827.023-1.262,0-2.22-.717-1.66-2.274a4.429,4.429,0,0,1,3.669-3.1.868.868,0,0,0,.747-.572A5.544,5.544,0,0,1,97.786,4.84a.875.875,0,0,0,.963-.661,6.806,6.806,0,0,1,12.946,1.27c.035.169.08.335.132.553m9.339,6.236a2.554,2.554,0,0,0-3.083-1.4c-1.206.339-1.345.266-1.819-.917a3.191,3.191,0,0,0-2.3-2.006,3.425,3.425,0,0,0-2.558.426.974.974,0,0,1-1.539-.933c0-.152.013-.3.016-.455a4.869,4.869,0,0,0-4.307-4.966,4.923,4.923,0,0,0-5.319,3.8c-.261,1.155-.545,1.341-1.657,1.087a3.808,3.808,0,0,0-4.58,2.743c-.294,1.074-.421,1.166-1.528,1.115a2.281,2.281,0,0,0-2.342,1.5Z" transform="translate(-76.396 0)" fill="#fd8800"/>
    <path id="Path_941" data-name="Path 941" d="M169.558,367.386c1.085,0,2.169-.01,3.254,0a1.5,1.5,0,0,1,1.627,1.622q.02,2.506,0,5.012a1.466,1.466,0,0,1-1.559,1.621q-3.318.051-6.637,0a1.477,1.477,0,0,1-1.561-1.684q-.011-2.441,0-4.882a1.523,1.523,0,0,1,1.689-1.691c1.063-.008,2.126,0,3.189,0m-2.9,6.28h1.877v-4.3h-1.877Zm3.917-.012h1.879v-4.283H170.58Z" transform="translate(-143.195 -319.461)" fill="#fd8800"/>
    <path id="Path_942" data-name="Path 942" d="M86.477,192.022a4.094,4.094,0,0,1-8.187.023,4.094,4.094,0,1,1,8.187-.023m-1.953.02a2.145,2.145,0,0,0-2.124-2.163,2.175,2.175,0,0,0-2.157,2.144,2.135,2.135,0,0,0,2.137,2.144,2.11,2.11,0,0,0,2.144-2.125" transform="translate(-68.078 -163.413)" fill="#fd8800"/>
  </g>
</svg>
