<svg xmlns="http://www.w3.org/2000/svg" width="66.715" height="66.674" viewBox="0 0 66.715 66.674">
  <g id="Group_5223" data-name="Group 5223" transform="translate(8931.162 -1331.881)">
    <path id="Path_1000" data-name="Path 1000" d="M131.4,73.558l-10.979-3.663V67.667a11.869,11.869,0,0,0,4.934-6.738,5.366,5.366,0,0,0,4.743-5.312v-11.7a6.745,6.745,0,0,0-4.7-6.435,15.086,15.086,0,0,0-27.559,8.483v9.65a5.367,5.367,0,0,0,4.744,5.312,11.85,11.85,0,0,0,4.934,6.738v2.228L96.536,73.556a7.487,7.487,0,0,0-3.823,2.886,12.909,12.909,0,1,0-1.762,18.17c.148-.122.295-.248.438-.377v3.319h45.163V80.7a7.514,7.514,0,0,0-5.15-7.14m-5.648-14.9c.022-.3.045-.59.045-.891V52.586a3.206,3.206,0,0,1-.045,6.067ZM112.925,33.033a12.9,12.9,0,0,1,10.76,5.759l.373.56.4.1a4.6,4.6,0,0,1,3.487,4.465v7.423a5.318,5.318,0,0,0-2.32-1.011,3.22,3.22,0,0,0-3.056-2.243h-2.149a5.382,5.382,0,0,1-5.377-5.377H112.9a5.383,5.383,0,0,1-5.377,5.377h-2.151a3.219,3.219,0,0,0-3.056,2.242,5.358,5.358,0,0,0-2.32,1.011V45.967a12.948,12.948,0,0,1,12.934-12.934M99.99,55.616a3.222,3.222,0,0,1,2.151-3.03v5.179c0,.3.023.6.046.892a3.223,3.223,0,0,1-2.2-3.04m4.3,2.151V51.314a1.079,1.079,0,0,1,1.076-1.076h2.151a7.528,7.528,0,0,0,6.453-3.653,7.528,7.528,0,0,0,6.453,3.653h2.151a1.077,1.077,0,0,1,1.075,1.076v6.453a9.678,9.678,0,0,1-19.356.182c0-.061,0-.122,0-.182Zm9.68,11.828a11.721,11.721,0,0,0,4.3-.822v1.766a4.434,4.434,0,0,1-8.6,0V68.774a11.75,11.75,0,0,0,4.3.821M82.783,95.4A10.754,10.754,0,1,1,93.122,81.717l.221.783H121.5v4.3h-4.3v4.3h-2.151V86.8h-6.452v4.3h-2.152V86.8h-13.1l-.221.782A10.788,10.788,0,0,1,82.783,95.4m51.618,0H127.95V84.651H125.8V95.4H93.538V91.755a12.81,12.81,0,0,0,1.4-2.8h9.349v4.3h6.453v-4.3H112.9v4.3h6.452v-4.3h4.3v-8.6H94.943a12.738,12.738,0,0,0-.881-1.946A5.349,5.349,0,0,1,97.219,75.6l10.7-3.566a6.574,6.574,0,0,0,12.112,0l10.7,3.566a5.373,5.373,0,0,1,3.674,5.1Z" transform="translate(-9001 1301)" fill="#003149"/>
    <path id="Path_1001" data-name="Path 1001" d="M103.3,49.828a1.076,1.076,0,1,1-1.077-1.075h0a1.075,1.075,0,0,1,1.075,1.075" transform="translate(-8994.629 1304.637)" fill="#003149"/>
    <path id="Path_1002" data-name="Path 1002" d="M112.233,49.828a1.075,1.075,0,1,1-1.075-1.075,1.075,1.075,0,0,1,1.075,1.075" transform="translate(-8992.811 1304.637)" fill="#003149"/>
    <path id="Path_1003" data-name="Path 1003" d="M111.538,55.008h-2.151a2.151,2.151,0,1,1-4.3,0v0h-2.151a4.3,4.3,0,0,0,8.6,0" transform="translate(-8994.265 1305.91)" fill="#003149"/>
    <path id="Path_1004" data-name="Path 1004" d="M78.825,71.092A5.377,5.377,0,1,0,84.2,76.469a5.377,5.377,0,0,0-5.377-5.377m0,8.6a3.227,3.227,0,1,1,3.227-3.227h0a3.23,3.23,0,0,1-3.227,3.225" transform="translate(-9000.266 1309.183)" fill="#fd8800"/>
    <path id="Path_1005" data-name="Path 1005" d="M95.679,48.757l-12.9-8.213-12.9,8.213v16.72H95.679Zm-4.768-.485H74.642L82.777,43.1ZM84.93,63.326h-4.3V56.874h4.3Zm2.151,0v-8.6h-8.6v8.6H72.025v-12.9H93.532v12.9Z" transform="translate(-9000.992 1302.966)" fill="#fd8800"/>
  </g>
</svg>
