<svg id="Group_5164" data-name="Group 5164" xmlns="http://www.w3.org/2000/svg" xmlns:xlink="http://www.w3.org/1999/xlink" width="62.876" height="67.769" viewBox="0 0 62.876 67.769">
  <defs>
    <clipPath id="clip-path">
      <rect id="Rectangle_783" data-name="Rectangle 783" width="62.876" height="67.769" fill="none"/>
    </clipPath>
  </defs>
  <g id="Group_5163" data-name="Group 5163" clip-path="url(#clip-path)">
    <path id="Path_961" data-name="Path 961" d="M0,26.87a1.666,1.666,0,0,1,1.546-.908c1.582-.121,3.16-.3,4.742-.423a.68.68,0,0,0,.729-.58A22.642,22.642,0,0,1,9.57,18.891a.649.649,0,0,0-.1-.907C8.4,16.726,7.35,15.445,6.3,14.169a1.18,1.18,0,0,1,.077-1.9q2.965-2.978,5.942-5.943a1.152,1.152,0,0,1,1.848-.087C15.6,7.412,17.017,8.6,18.291,9.654c2.1-.863,4.066-1.745,6.09-2.466.8-.284,1.219-.534,1.244-1.47.04-1.495.262-2.985.419-4.476C26.142.322,26.494,0,27.41,0Q31.446,0,35.482,0c.98,0,1.343.351,1.433,1.332.148,1.625.313,3.248.452,4.873a.766.766,0,0,0,.654.806,23.1,23.1,0,0,1,6,2.538.617.617,0,0,0,.853-.08c1.277-1.085,2.574-2.147,3.867-3.213a1.166,1.166,0,0,1,1.9.094q2.952,2.943,5.894,5.9c.7.7.719,1.163.073,1.95-1.05,1.278-2.109,2.548-3.163,3.823-.111.134-.207.28-.323.437a26.5,26.5,0,0,1,2.871,6.664.776.776,0,0,0,.57.384c1.555.172,3.114.311,4.674.446,1.389.121,1.639.377,1.639,1.746q0,4.037,0,8.074c0,1-.328,1.334-1.319,1.428-1.668.158-3.333.344-5,.488a.585.585,0,0,0-.626.507,23.836,23.836,0,0,1-2.584,6.128.63.63,0,0,0,.1.864c1.069,1.262,2.117,2.542,3.169,3.818a1.194,1.194,0,0,1-.148,1.984Q54.314,52.9,52.154,54.8c-.842.739-1.412.663-2.077-.257q-3.331-4.611-6.658-9.225c-.648-.9-.621-1.259.14-2.074A16.879,16.879,0,1,0,14.68,28.967a16.591,16.591,0,0,0,4.468,14.305c.737.8.772,1.127.15,2.02q-3.193,4.586-6.391,9.169c-.724,1.038-1.271,1.1-2.2.276Q8.6,52.875,6.49,51.012c-.807-.718-.843-1.19-.155-2.025,1.051-1.277,2.1-2.555,3.171-3.816a.622.622,0,0,0,.074-.858,23.7,23.7,0,0,1-2.559-6.068.626.626,0,0,0-.652-.563c-1.625-.132-3.245-.345-4.871-.457A1.55,1.55,0,0,1,0,36.268Zm17.172,17.6a19.117,19.117,0,0,1,26.187-27.7,18.344,18.344,0,0,1,6.754,11.411,18.991,18.991,0,0,1-4.6,16.272l5.849,8.1,3.057-2.713c-1.129-1.363-2.212-2.668-3.293-3.977-.636-.771-.657-1.087-.115-1.949a22.507,22.507,0,0,0,2.76-6.264c.552-2.1.349-1.959,2.7-2.176,1.376-.127,2.752-.269,4.18-.409,0-2.24.01-4.419-.024-6.6,0-.133-.338-.354-.536-.376-1.533-.169-3.071-.3-4.607-.442-1.006-.092-1.272-.311-1.493-1.266a21.6,21.6,0,0,0-2.5-6.3c-1.168-1.946-1.226-1.724.312-3.557.888-1.059,1.76-2.13,2.6-3.143l-4.871-4.9c-1.339,1.111-2.7,2.228-4.049,3.364a1.27,1.27,0,0,1-1.681.163,22.938,22.938,0,0,0-7.509-3.162,1.164,1.164,0,0,1-.99-1.154c-.06-.813-.155-1.624-.237-2.435q-.151-1.5-.3-3h-6.6c-.17,1.756-.343,3.485-.5,5.215-.083.9-.3,1.19-1.195,1.405a23.9,23.9,0,0,0-7.209,3.039c-.823.519-1.109.485-1.885-.156L13.406,8.49,8.52,13.378c1.108,1.339,2.238,2.72,3.386,4.087a1.224,1.224,0,0,1,.138,1.624A22.553,22.553,0,0,0,8.88,26.6,1.185,1.185,0,0,1,7.743,27.61c-.658.067-1.316.124-1.974.189-1.157.114-2.314.23-3.462.344v6.912c1.738.176,3.426.341,5.114.519,1.121.118,1.278.253,1.542,1.359A23.117,23.117,0,0,0,11.906,43.9c.567.9.545,1.169-.139,2L8.507,49.841l3.047,2.688,5.618-8.062" transform="translate(0 0)" fill="#003149"/>
    <path id="Path_962" data-name="Path 962" d="M175.158,185.635a23.3,23.3,0,0,1-2.234-.943,8.7,8.7,0,0,1-2.159-13.237c.6-.695,1.374-1.23,2.039-1.87a1.212,1.212,0,0,0,.412-.726c.024-5.271.011-10.543.03-15.814,0-.471-.265-.582-.589-.74a8.549,8.549,0,0,1-4.723-8.352c.238-3.88,2.3-6.753,5.681-7.908,1.261-.431,1.893.023,1.81,1.341s-.192,2.639-.322,3.955c-.035.354.051.551.4.622a6.408,6.408,0,0,0,.774.152c1.467.117,1.745-.141,1.654-1.558-.071-1.1-.192-2.2-.25-3.3-.056-1.06.552-1.521,1.6-1.266,6.64,1.618,8.036,9.389,4.284,13.889a28.2,28.2,0,0,1-2.171,2.013,1.2,1.2,0,0,0-.391.729c-.022,5.271-.014,10.543-.023,15.814a.658.658,0,0,0,.417.709,8.463,8.463,0,0,1,4.86,8.707,8.261,8.261,0,0,1-5.776,7.633,2.4,2.4,0,0,0-.285.147h-.662a1.408,1.408,0,0,1-.781-1.586c.124-1.094.187-2.2.284-3.293.105-1.183-.017-1.344-1.221-1.383a6.2,6.2,0,0,0-1.108.131c-.395.06-.533.278-.5.691.117,1.273.171,2.551.3,3.822a1.416,1.416,0,0,1-.82,1.617Zm5.932-2.884c.216-.131.312-.178.4-.242a6.528,6.528,0,0,0,2.5-6.45,6.027,6.027,0,0,0-4.048-5.119c-1.049-.4-1.19-.587-1.19-1.69,0-5.779.007-11.558-.01-17.337a1.59,1.59,0,0,1,.909-1.594,6.891,6.891,0,0,0,3.573-7.571,5.614,5.614,0,0,0-3.217-4.148c.087,1.182.136,2.253.256,3.316a1.452,1.452,0,0,1-.748,1.552,5.374,5.374,0,0,1-5.877.046,1.534,1.534,0,0,1-.806-1.714c.133-.968.167-1.949.248-2.985a1.907,1.907,0,0,0-.273.105,3.045,3.045,0,0,0-.32.233,6.624,6.624,0,0,0-2.21,6.562,6.006,6.006,0,0,0,3.994,4.864c1.071.412,1.171.544,1.171,1.692,0,5.757-.01,11.514.013,17.27a1.6,1.6,0,0,1-.942,1.633,6.752,6.752,0,0,0-3.112,3.395,6.519,6.519,0,0,0,2.123,7.905c.185.123.39.217.661.366-.087-1.228-.151-2.326-.249-3.422a1.359,1.359,0,0,1,.659-1.338,5.484,5.484,0,0,1,5.935-.122,1.542,1.542,0,0,1,.843,1.637c-.118,1.005-.183,2.017-.282,3.154" transform="translate(-145.646 -117.866)" fill="#fd8800"/>
  </g>
</svg>
