<svg id="Group_5111" data-name="Group 5111" xmlns="http://www.w3.org/2000/svg" width="66.658" height="67.769" viewBox="0 0 66.658 67.769">
  <g id="Group_1567" data-name="Group 1567" transform="translate(0 0)">
    <path id="Path_444" data-name="Path 444" d="M397.555,50.222h2.222a1.111,1.111,0,0,0,0-2.222h-2.222a3.333,3.333,0,0,0-3.333,3.333v1.111h-1.111a1.111,1.111,0,0,0,0,2.222h1.111V58a1.111,1.111,0,1,0,2.222,0V54.666h1.111a1.111,1.111,0,1,0,0-2.222h-1.111V51.333A1.111,1.111,0,0,1,397.555,50.222Z" transform="translate(-339.785 -42.445)" fill="#fd8800"/>
    <path id="Path_445" data-name="Path 445" d="M368.664,16H355.333A3.333,3.333,0,0,0,352,19.333v2.222a1.111,1.111,0,1,0,2.222,0V19.333a1.111,1.111,0,0,1,1.111-1.111h13.332a1.111,1.111,0,0,1,1.111,1.111V32.664a1.111,1.111,0,0,1-1.111,1.111H355.333a1.111,1.111,0,0,1-1.111-1.111V26A1.111,1.111,0,0,0,352,26v6.666A3.333,3.333,0,0,0,355.333,36h13.332A3.333,3.333,0,0,0,372,32.664V19.333A3.333,3.333,0,0,0,368.664,16Z" transform="translate(-305.34 -14.889)" fill="#fd8800"/>
    <path id="Path_446" data-name="Path 446" d="M392,308.444A4.444,4.444,0,1,0,396.444,304,4.444,4.444,0,0,0,392,308.444Zm6.666,0a2.222,2.222,0,1,1-2.222-2.222A2.222,2.222,0,0,1,398.666,308.444Z" transform="translate(-339.785 -262.895)" fill="#fd8800"/>
    <path id="Path_447" data-name="Path 447" d="M368.664,264H355.333A3.333,3.333,0,0,0,352,267.333v13.332A3.333,3.333,0,0,0,355.333,284h13.332A3.333,3.333,0,0,0,372,280.664v-2.222a1.111,1.111,0,0,0-2.222,0v2.222a1.111,1.111,0,0,1-1.111,1.111H355.333a1.111,1.111,0,0,1-1.111-1.111V267.333a1.111,1.111,0,0,1,1.111-1.111h13.332a1.111,1.111,0,0,1,1.111,1.111V274A1.111,1.111,0,0,0,372,274v-6.666A3.333,3.333,0,0,0,368.664,264Z" transform="translate(-305.34 -228.449)" fill="#fd8800"/>
    <path id="Path_448" data-name="Path 448" d="M192.522,56.741a1.1,1.1,0,0,0,1.089.044l6.666-3.333a1.111,1.111,0,0,0,0-1.978l-6.666-3.333A1.111,1.111,0,0,0,192,49.13V55.8A1.111,1.111,0,0,0,192.522,56.741Zm1.7-5.81,3.066,1.533L194.222,54Z" transform="translate(-167.559 -42.465)" fill="#fd8800"/>
    <path id="Path_449" data-name="Path 449" d="M154,28a10,10,0,1,0-10-10A10,10,0,0,0,154,28Zm0-17.775A7.777,7.777,0,1,1,146.222,18,7.777,7.777,0,0,1,154,10.222Z" transform="translate(-126.225 -8)" fill="#fd8800"/>
    <path id="Path_453" data-name="Path 453" d="M17.111,108H30.443a1.111,1.111,0,0,0,1.111-1.111V89.111A1.111,1.111,0,0,0,30.443,88H17.111A1.111,1.111,0,0,0,16,89.111v17.775A1.111,1.111,0,0,0,17.111,108Zm1.111-17.775h11.11v15.553H18.222Z" transform="translate(-16 -76.89)" fill="#fd8800"/>
    <path id="Path_454" data-name="Path 454" d="M67.333,120H65.111a1.111,1.111,0,0,0,0,2.222h2.222a1.111,1.111,0,1,0,0-2.222Z" transform="translate(-57.334 -104.446)" fill="#fd8800"/>
    <path id="Path_455" data-name="Path 455" d="M53.555,152H49.111a1.111,1.111,0,1,0,0,2.222h4.444a1.111,1.111,0,0,0,0-2.222Z" transform="translate(-43.556 -132.003)" fill="#fd8800"/>
    <path id="Path_456" data-name="Path 456" d="M53.555,184H49.111a1.111,1.111,0,1,0,0,2.222h4.444a1.111,1.111,0,1,0,0-2.222Z" transform="translate(-43.556 -159.559)" fill="#fd8800"/>
  </g>
  <g id="Group_1566" data-name="Group 1566" transform="translate(0 17.776)">
    <path id="Path_443" data-name="Path 443" d="M54.884,280.441H52.662V269.554a1.111,1.111,0,1,0-2.222,0v10.887H21.555V258.222H30.8a1.111,1.111,0,0,0,0-2.222H20.444a1.111,1.111,0,0,0-1.111,1.111v23.33H17.111A1.111,1.111,0,0,0,16,281.552v2.222a5.555,5.555,0,0,0,5.555,5.555H50.44a5.555,5.555,0,0,0,5.555-5.555v-2.222A1.111,1.111,0,0,0,54.884,280.441Zm-1.111,3.333a3.333,3.333,0,0,1-3.333,3.333H48.218V286A1.111,1.111,0,0,0,46,286v1.111H26V286a1.111,1.111,0,0,0-2.222,0v1.111H21.555a3.333,3.333,0,0,1-3.333-3.333v-1.111H53.773Z" transform="translate(-16 -239.336)" fill="#003149"/>
    <path id="Path_450" data-name="Path 450" d="M289.11,142.67a1.111,1.111,0,0,0,.889-.444l3.333-4.444a1.111,1.111,0,0,0-1.778-1.333l-3.333,4.444a1.111,1.111,0,0,0,.889,1.778Z" transform="translate(-250.227 -136.005)" fill="#003149"/>
    <path id="Path_451" data-name="Path 451" d="M312.222,181.11a1.111,1.111,0,0,0,1.555.222L318.221,178a1.111,1.111,0,1,0-1.333-1.778l-4.444,3.333a1.111,1.111,0,0,0-.222,1.555Z" transform="translate(-270.894 -170.445)" fill="#003149"/>
    <path id="Path_452" data-name="Path 452" d="M343.053,224.725a1.111,1.111,0,0,0-1.29-.9l-.044.009-5.555,1.111a1.116,1.116,0,0,0,.222,2.222h.222l5.555-1.111a1.111,1.111,0,0,0,.9-1.29C343.059,224.754,343.056,224.74,343.053,224.725Z" transform="translate(-290.838 -211.617)" fill="#003149"/>
    <path id="Path_457" data-name="Path 457" d="M102.36,190.351a1.115,1.115,0,0,0-1.933,1.111l4.9,8.477L87.551,206.6h-.167L84.5,208.271l-1.922,1.111a2.218,2.218,0,0,1-3.033-.811l-2.222-3.844a2.222,2.222,0,0,1,.833-2.933L82,199.572l2.777,4.81a1.115,1.115,0,1,0,1.933-1.111l-2.866-4.955,13.943-11.5.455.789a1.115,1.115,0,0,0,1.933-1.111l-1.111-1.922a1.126,1.126,0,0,0-1.678-.3L81.829,197.094,77.1,199.827a4.444,4.444,0,0,0-2.044,5.033l-1.111.633a3.33,3.33,0,0,0,1.666,6.221,3.4,3.4,0,0,0,1.666-.444l1.111-.633a4.311,4.311,0,0,0,1.944,1.155,4.208,4.208,0,0,0,1.167.156,4.377,4.377,0,0,0,2.222-.6l.967-.556,2.222,3.855a3.33,3.33,0,1,0,5.768-3.33l0,0-2.022-3.522,16.664-6.255a1.114,1.114,0,0,0,.578-1.589ZM76.119,209.337a1.11,1.11,0,1,1-1.111-1.922l.967-.555,1.111,1.922Zm14.62,3.111a1.11,1.11,0,0,1-1.922,1.111L86.6,209.7l1.844-1.055h.089Z" transform="translate(-64.454 -177.353)" fill="#003149"/>
  </g>
</svg>
