<svg xmlns="http://www.w3.org/2000/svg" width="76.717" height="67.769" viewBox="0 0 76.717 67.769">
  <g id="Group_5222" data-name="Group 5222" transform="translate(9001 -1355.368)">
    <path id="Path_1006" data-name="Path 1006" d="M73.1,64.45A20.321,20.321,0,0,0,39.3,62.5l-.938,1.249L37.424,62.5a20.423,20.423,0,0,0-16.257-8.125h-.484A20.318,20.318,0,0,0,3.539,63.78,22.586,22.586,0,0,0,0,75.931v3.7a32.521,32.521,0,0,0,14.742,27.288l2.182,1.43,8.967,5.871,11.768,7.709a1.279,1.279,0,0,0,1.407,0l23.044-15.264a32.545,32.545,0,0,0,14.609-27.2V77.818A26.549,26.549,0,0,0,73.1,64.45ZM30.82,113.756l.47.943-10.273-6.733L18.326,106.2l-.731-.48L24.079,96a1.272,1.272,0,0,0,.214-.706V91.032A7.056,7.056,0,0,1,26,86.742l.205-.243.675,2.7a1.278,1.278,0,0,0,1.236.971h3.062a2.551,2.551,0,0,1,2.127,1.141,6.053,6.053,0,0,0,3.761,2.561v1.413a2.561,2.561,0,0,1-2.561,2.561,1.278,1.278,0,0,0-1.279,1.279v4.642a4.452,4.452,0,0,1-.753,2.483l-1.59,2.384a1.275,1.275,0,0,0-.214.706v3.836a1.285,1.285,0,0,0,.134.572Zm4.979,3.9-1.279-.837v-1.073a1.29,1.29,0,0,0-.134-.573l-.014-.027,1.427-1.428Zm10.229-3.411-2.561,1.694V108.71l2.561-1.918Zm2.391-16.01a8.537,8.537,0,0,1-1.99,5.064l-5,3.753a1.276,1.276,0,0,0-.511,1.022v9.559l-2.561,1.694v-8.7a1.279,1.279,0,0,0-2.183-.9l-2.933,2.932v-2.919l1.379-2.063a7,7,0,0,0,1.183-3.9v-3.532a5.12,5.12,0,0,0,3.836-4.952V92.73a1.279,1.279,0,0,0-1.279-1.279,3.5,3.5,0,0,1-2.914-1.557,5.1,5.1,0,0,0-2.132-1.817l1.958-1.958-.042.088,4.44,2.221a16.656,16.656,0,0,0,7.418,1.749h.555l.647,4.843a17.75,17.75,0,0,1,.133,3.22ZM39.637,77.384v4.151a.962.962,0,0,1-.956.964h-1.6V80.216a11.659,11.659,0,0,1,3.438-8.3,3.179,3.179,0,0,1,2.241-.928h2.767a3,3,0,0,1,2.139.883l2.575,2.58a1.275,1.275,0,0,0,.9.374h2.561v1.922a1.919,1.919,0,0,1-1.918,1.918h-3.2a1.28,1.28,0,0,0-1.279,1.28v7.671h-.223a14.083,14.083,0,0,1-6.27-1.48l-2.156-1.077h.017A3.521,3.521,0,0,0,42.2,81.539V77.389Zm34.522,2.08A30,30,0,0,1,60.7,104.529l-12.109,8.019v-7.853a11.084,11.084,0,0,0,2.384-6.335,20.284,20.284,0,0,0-.154-3.685l-.954-7.146V81.219h1.918a4.48,4.48,0,0,0,4.478-4.474v-3.2A1.278,1.278,0,0,0,54.98,72.27H51.674l-2.2-2.2a5.541,5.541,0,0,0-3.947-1.636H42.759a5.728,5.728,0,0,0-4.051,1.678,14.2,14.2,0,0,0-4.185,10.1v3.032l-4.365,4.365h-1.03L28.09,83.468a1.278,1.278,0,0,0-2.214-.519l-1.817,2.137a9.63,9.63,0,0,0-2.317,5.861c0,.112,0,.224,0,.336V94.9l-3.568,5.353a31.907,31.907,0,0,1-5.789-5.6l-1.148-1.44a1.279,1.279,0,0,0-2,1.6l1.148,1.439a34.6,34.6,0,0,0,6.366,6.138l-1.287,1.93a29.969,29.969,0,0,1-12.9-24.686v-3.7A20.036,20.036,0,0,1,5.7,65.157,17.756,17.756,0,0,1,20.685,56.93h.484a17.848,17.848,0,0,1,14.208,7.1l1.959,2.612a1.279,1.279,0,0,0,2.046,0l1.959-2.612a17.763,17.763,0,0,1,29.553,1.708,23.986,23.986,0,0,1,3.267,12.077Z" transform="translate(-9001 1301)" fill="#003149"/>
    <path id="Path_1007" data-name="Path 1007" d="M36.1,69.788h.26a1.15,1.15,0,0,1,1.151,1.151v.26a1.15,1.15,0,0,1-1.151,1.151H36.1A1.15,1.15,0,0,1,34.951,71.2v-.26A1.15,1.15,0,0,1,36.1,69.788" transform="translate(-8992.479 1304.76)" fill="#fd8800"/>
    <path id="Path_1008" data-name="Path 1008" d="M24.924,85.208h0a1.281,1.281,0,1,1-1.281,1.281,1.28,1.28,0,0,1,1.281-1.281" transform="translate(-8995.235 1308.519)" fill="#fd8800"/>
    <path id="Path_1009" data-name="Path 1009" d="M57.258,85.488a1.279,1.279,0,0,0-1.8.2l-1.148,1.439a31.837,31.837,0,0,1-9.107,7.79l-3.444,1.966a1.279,1.279,0,0,0,1.265,2.223l3.444-1.966a34.427,34.427,0,0,0,9.836-8.412l1.148-1.44a1.28,1.28,0,0,0-.2-1.8Z" transform="translate(-8990.976 1308.519)" fill="#fd8800"/>
    <path id="Path_1010" data-name="Path 1010" d="M57.041,74.928a1.278,1.278,0,0,0-1.279,1.279v.422a19.73,19.73,0,0,1-1.014,6.25l-.2.6a1.279,1.279,0,1,0,2.409.858l.009-.025.007-.024.2-.6a22.282,22.282,0,0,0,1.148-7.059v-.42a1.278,1.278,0,0,0-1.279-1.279Z" transform="translate(-8987.718 1306.013)" fill="#fd8800"/>
    <path id="Path_1011" data-name="Path 1011" d="M56.79,69.788a1.278,1.278,0,0,0-1.279,1.279v1.279a1.281,1.281,0,1,0,2.561,0V71.067a1.278,1.278,0,0,0-1.279-1.279Z" transform="translate(-8987.466 1304.76)" fill="#fd8800"/>
    <path id="Path_1012" data-name="Path 1012" d="M7.684,82.878a19.732,19.732,0,0,1-1.015-6.25v-.422a1.281,1.281,0,1,0-2.561,0v.422a22.287,22.287,0,0,0,1.148,7.059l.2.6a1.279,1.279,0,1,0,2.442-.76L7.889,83.5l-.009-.024Z" transform="translate(-8999.998 1306.012)" fill="#fd8800"/>
  </g>
</svg>
