<svg id="Group_5162" data-name="Group 5162" xmlns="http://www.w3.org/2000/svg" xmlns:xlink="http://www.w3.org/1999/xlink" width="59.615" height="59.569" viewBox="0 0 59.615 59.569">
  <defs>
    <clipPath id="clip-path">
      <rect id="Rectangle_782" data-name="Rectangle 782" width="59.615" height="59.569" fill="none"/>
    </clipPath>
  </defs>
  <g id="Group_5161" data-name="Group 5161" clip-path="url(#clip-path)">
    <path id="Path_947" data-name="Path 947" d="M25.384,0a3.1,3.1,0,0,1,2.408,2.609A10.176,10.176,0,0,1,27.8,3.968h.725c3.706,0,7.412-.008,11.118.015a1.335,1.335,0,0,1,.849.349Q46.418,10.218,52.3,16.144a1.108,1.108,0,0,1,.331.683c.018,4.889.013,9.779.012,14.668a2.418,2.418,0,0,1-.031.258H50.664V17.894h-11.9V6H27.825v.659q0,11.874,0,23.749a3.019,3.019,0,0,1-3.377,3.371H8.993V57.585H50.649V45.743h1.96V59.569H6.975V33.774H5.026c-.66,0-1.32.007-1.979,0A2.957,2.957,0,0,1,0,30.714c-.01-3.531,0-7.063,0-10.594V3.648C0,1.516.5.773,2.447,0ZM1.985,16.942q0,6.75,0,13.5c0,1.035.315,1.346,1.358,1.346H24.468c1.067,0,1.372-.31,1.372-1.394q0-13.5,0-27c0-1.108-.3-1.41-1.42-1.41H3.413c-1.142,0-1.427.292-1.427,1.458q0,6.75,0,13.5M48.96,15.86,40.778,7.692V15.86Z" transform="translate(0.001)" fill="#003149"/>
    <path id="Path_948" data-name="Path 948" d="M323.009,267.854a5.063,5.063,0,0,1-1.577,2.372q-8.016,7.988-16.016,15.992a4.006,4.006,0,0,1-1.083.752c-1.5.719-3.026,1.392-4.532,2.1a1.033,1.033,0,0,1-1.429-1.458c.009-.017.02-.034.028-.051a33.316,33.316,0,0,1,2.406-5.017,30.835,30.835,0,0,1,3.793-3.922q6.559-6.565,13.125-13.123a3.059,3.059,0,0,1,3.92-.54,3.423,3.423,0,0,1,1.365,2.079ZM301.258,286.22a12.131,12.131,0,0,0,3.395-2c3.742-3.827,7.552-7.588,11.341-11.368a3.1,3.1,0,0,1,.489-.349l-1.489-1.546c-.124.15-.246.326-.395.475-3.6,3.609-7.18,7.247-10.837,10.8a9.927,9.927,0,0,0-2.5,3.989m17.415-18.835,1.355,1.427c.409-.5,1.149-.812.9-1.606a1.218,1.218,0,0,0-.723-.71c-.782-.2-1.121.485-1.535.89m-2.07,2.022,1.34,1.426.562-.5-1.369-1.431-.533.505" transform="translate(-263.394 -233.623)" fill="#fd8800"/>
    <path id="Path_949" data-name="Path 949" d="M130.618,316.756a9.937,9.937,0,1,1-9.471-10.248,9.951,9.951,0,0,1,9.471,10.248m-1.982-.312a7.948,7.948,0,1,0-7.971,7.953,7.969,7.969,0,0,0,7.971-7.953" transform="translate(-97.834 -270.738)" fill="#fd8800"/>
    <rect id="Rectangle_774" data-name="Rectangle 774" width="11.868" height="1.913" transform="translate(35.795 28.844)" fill="#fd8800"/>
    <rect id="Rectangle_775" data-name="Rectangle 775" width="11.869" height="1.897" transform="translate(35.795 20.9)" fill="#fd8800"/>
    <rect id="Rectangle_776" data-name="Rectangle 776" width="11.879" height="1.897" transform="translate(35.782 24.874)" fill="#fd8800"/>
    <rect id="Rectangle_777" data-name="Rectangle 777" width="11.839" height="1.93" transform="translate(35.81 32.833)" fill="#fd8800"/>
    <rect id="Rectangle_778" data-name="Rectangle 778" width="1.93" height="1.911" transform="translate(31.826 28.862)" fill="#fd8800"/>
    <rect id="Rectangle_779" data-name="Rectangle 779" width="1.928" height="1.898" transform="translate(31.825 20.905)" fill="#fd8800"/>
    <rect id="Rectangle_780" data-name="Rectangle 780" width="1.918" height="1.908" transform="translate(31.83 24.864)" fill="#fd8800"/>
    <rect id="Rectangle_781" data-name="Rectangle 781" width="1.915" height="1.905" transform="translate(31.822 32.843)" fill="#fd8800"/>
    <path id="Path_950" data-name="Path 950" d="M25.957,25.879H47.724v6.86H25.957ZM45.748,27.89H27.955v2.857H45.748Z" transform="translate(-22.929 -22.86)" fill="#fd8800"/>
    <path id="Path_951" data-name="Path 951" d="M159.279,215.719c0,.349.02.7,0,1.047a1.939,1.939,0,0,1-1.851,1.894,17.444,17.444,0,0,1-2.209.006,1.916,1.916,0,0,1-1.887-1.968q-.031-.988,0-1.978a1.946,1.946,0,0,1,1.926-2,18.82,18.82,0,0,1,2.093,0,1.982,1.982,0,0,1,1.933,2.006c.013.329,0,.659,0,.989h0m-2.025-.987h-1.9v1.926h1.9Z" transform="translate(-135.428 -187.881)" fill="#003149"/>
    <path id="Path_952" data-name="Path 952" d="M99.675,215.678c0,.31,0,.621,0,.931a1.955,1.955,0,0,1-1.938,2.046,20.207,20.207,0,0,1-2.035,0,1.952,1.952,0,0,1-1.974-2.067c-.007-.62-.009-1.241,0-1.862a1.952,1.952,0,0,1,1.9-2.021,17.3,17.3,0,0,1,2.151,0,1.96,1.96,0,0,1,1.891,2.037c.006.31,0,.621,0,.931m-3.935.959h1.91v-1.924H95.74Z" transform="translate(-82.787 -187.865)" fill="#003149"/>
    <path id="Path_953" data-name="Path 953" d="M39.934,215.77c0,.31.007.621,0,.931a1.944,1.944,0,0,1-1.962,2.02,20.249,20.249,0,0,1-2.036,0,1.967,1.967,0,0,1-1.955-2.036q-.02-.93,0-1.862a1.99,1.99,0,0,1,2-2.056c.619-.027,1.241-.018,1.862,0a1.979,1.979,0,0,1,2.089,2.079c.007.31,0,.62,0,.931m-2.018-.98H36v1.9h1.921Z" transform="translate(-30.007 -187.928)" fill="#003149"/>
    <path id="Path_954" data-name="Path 954" d="M96.7,93.732c.349,0,.7-.012,1.047,0a1.939,1.939,0,0,1,1.9,1.838c.034.755.034,1.514,0,2.269a1.932,1.932,0,0,1-1.849,1.829c-.736.03-1.475.029-2.211,0a1.941,1.941,0,0,1-1.873-1.925c-.019-.678-.016-1.358,0-2.037a1.949,1.949,0,0,1,2-1.978c.33-.007.659,0,.989,0v0m-.959,3.925h1.89V95.725h-1.89Z" transform="translate(-82.766 -82.793)" fill="#003149"/>
    <path id="Path_955" data-name="Path 955" d="M93.753,156.253c0-.368-.016-.738,0-1.105a1.9,1.9,0,0,1,1.778-1.825,22.282,22.282,0,0,1,2.326-.005,1.911,1.911,0,0,1,1.832,1.9c.022.678.016,1.358,0,2.036a1.968,1.968,0,0,1-1.931,2c-.7.033-1.4.034-2.094,0a1.967,1.967,0,0,1-1.92-2.008c-.007-.33,0-.659,0-.989Zm2,.974h1.927v-1.9H95.758Z" transform="translate(-82.811 -135.407)" fill="#003149"/>
    <path id="Path_956" data-name="Path 956" d="M156.271,93.729c.33,0,.659-.006.989,0a1.966,1.966,0,0,1,2.006,1.923c.035.7.034,1.4,0,2.094a1.967,1.967,0,0,1-2,1.929c-.659.013-1.319.015-1.978,0a1.938,1.938,0,0,1-1.964-1.953c-.023-.678-.023-1.358,0-2.036a1.938,1.938,0,0,1,2.018-1.957c.31-.006.621,0,.931,0m.981,2.025h-1.9v1.91h1.9Z" transform="translate(-135.421 -82.793)" fill="#003149"/>
    <path id="Path_957" data-name="Path 957" d="M39.841,96.659c0,.388.021.777,0,1.163a1.922,1.922,0,0,1-1.853,1.818c-.736.029-1.474.028-2.21,0a1.937,1.937,0,0,1-1.862-1.82,18.733,18.733,0,0,1,0-2.268A1.947,1.947,0,0,1,35.862,93.7c.64-.016,1.28-.01,1.92,0a1.95,1.95,0,0,1,2.067,2.027c.008.31,0,.621,0,.931Zm-2.006-.934h-1.91v1.911h1.91Z" transform="translate(-29.923 -82.763)" fill="#003149"/>
    <path id="Path_958" data-name="Path 958" d="M153.39,156.224c0-.388-.027-.778.005-1.163a1.875,1.875,0,0,1,1.738-1.733c.753-.047,1.512-.042,2.267-.014a1.941,1.941,0,0,1,1.925,1.937c.029.677.029,1.358,0,2.036a1.992,1.992,0,0,1-2.029,1.973c-.62.018-1.241.015-1.862,0a1.981,1.981,0,0,1-2.061-2.048c-.01-.329,0-.659,0-.989Zm3.925-.89h-1.921v1.91h1.921Z" transform="translate(-135.478 -135.411)" fill="#003149"/>
    <path id="Path_959" data-name="Path 959" d="M39.923,156.272c0,.33.009.66,0,.989a1.97,1.97,0,0,1-1.991,2c-.659.022-1.319.024-1.978,0a1.988,1.988,0,0,1-1.981-2.019q-.025-.959,0-1.92a1.957,1.957,0,0,1,1.976-2.009c.659-.022,1.319-.021,1.978,0a1.938,1.938,0,0,1,2,2.035c.008.31,0,.621,0,.931m-2.015-.941H36v1.905h1.9Z" transform="translate(-29.997 -135.409)" fill="#003149"/>
    <path id="Path_960" data-name="Path 960" d="M164.755,341.831v-.967h1.951V341.9c1.516.431,2.759,1.078,3.007,2.9-.652,0-1.243.006-1.833-.007-.074,0-.158-.089-.218-.154a2.856,2.856,0,0,0-3.5-.391c-.537.379-.569.825.013,1.116a4.509,4.509,0,0,0,1.6.428,5.519,5.519,0,0,1,2.491.691,2.55,2.55,0,0,1,.022,4.577,13.275,13.275,0,0,1-1.532.69l-.054.985h-1.859c-.024-.031-.07-.063-.066-.088.11-.732-.229-1.036-.925-1.265a2.855,2.855,0,0,1-2.108-2.58c.628,0,1.2-.008,1.781.008a.477.477,0,0,1,.277.168,2.884,2.884,0,0,0,3.509.372c.524-.376.543-.841-.049-1.121a4.972,4.972,0,0,0-1.659-.422,5.224,5.224,0,0,1-2.526-.765,2.529,2.529,0,0,1,.06-4.48,13.578,13.578,0,0,1,1.623-.731" transform="translate(-142.871 -301.099)" fill="#fd8800"/>
  </g>
</svg>
