<svg xmlns="http://www.w3.org/2000/svg" width="68.13" height="68.129" viewBox="0 0 68.13 68.129">
  <g id="Group_5484" data-name="Group 5484" transform="translate(-1478.463 -743.088)">
    <path id="Path_1147" data-name="Path 1147" d="M2123.184,41.806a12.583,12.583,0,0,1,2,.982,4.288,4.288,0,0,1,1.852,3.58c.02,3.548.01,7.1.013,10.645,0,.236,0,.473,0,.83.435-.242.777-.426,1.113-.621,1.3-.755,2.606-1.509,3.9-2.273a2.618,2.618,0,0,1,2.829-.009c1.454.846,2.913,1.683,4.363,2.537.694.408.876.924.563,1.481s-.9.664-1.607.255c-1.381-.8-2.764-1.59-4.131-2.41a.99.99,0,0,0-1.158-.015c-1.806,1.077-3.641,2.106-5.444,3.187a1,1,0,0,0-.412.7c-.046,1.011-.02,2.025-.02,3.13.254-.125.428-.2.592-.293,1.444-.819,2.9-1.624,4.327-2.468a2.752,2.752,0,0,1,3,0q7.489,4.294,15.008,8.538a2.32,2.32,0,0,0,1.056.282c1.574.03,3.149.013,4.724.013h.562l.033-.13q-2.08-1.212-4.16-2.423l-9.363-5.436c-.153-.089-.309-.175-.456-.274a.987.987,0,0,1-.408-1.37,1.006,1.006,0,0,1,1.441-.355c1.083.6,2.149,1.237,3.22,1.86q5.743,3.335,11.487,6.669a1.875,1.875,0,0,1,1.146,1.653,1.693,1.693,0,0,1-1.72,1.8c-1.841.022-3.682.009-5.522.011h-.76V96.1h.632c1.131,0,2.262-.009,3.393,0a1.042,1.042,0,0,1,1.121.986,1.019,1.019,0,0,1-1.081,1.016c-.155.008-.31,0-.466,0h-42.714c-1.08,0-1.569-.307-1.579-.986-.01-.7.5-1.023,1.618-1.023h3.538V71.887H2115c-1.819,0-3.637.005-5.456-.005a1.761,1.761,0,0,1-.889-3.328c1.635-.967,3.282-1.912,4.907-3.017h-.672c-3.571,0-7.142-.036-10.712.011a4.791,4.791,0,0,1-5-3.877,6.191,6.191,0,0,1-.069-1.058q-.007-6.953,0-13.905a4.686,4.686,0,0,1,3.629-4.78,1.2,1.2,0,0,0,.229-.121Zm16.233,54.239h9.711c.009-.16.026-.31.026-.459q0-11.807.01-23.613a.778.778,0,0,0-.468-.775q-7.335-4.159-14.654-8.349a1.036,1.036,0,0,0-1.167.013c-1.527.9-3.037,1.832-4.621,2.616a1.837,1.837,0,0,0-1.228,2.079,1.513,1.513,0,0,1-1.233,1.654,1.677,1.677,0,0,1-1.694-.523c-.409-.454-.751-.411-1.244-.114-1.459.879-2.943,1.72-4.438,2.536a1.012,1.012,0,0,0-.607,1.034q.027,11.607.013,23.214v.7h9.745v-.77q0-4.656,0-9.312a2.357,2.357,0,0,1,2.581-2.61q3.326-.013,6.652,0a2.382,2.382,0,0,1,2.614,2.65c0,3.325,0,6.651,0,10.033m-14.368-29.222V66.06q0-9.579,0-19.157a2.8,2.8,0,0,0-3.075-3.1q-9.911,0-19.822,0a2.8,2.8,0,0,0-3.052,3.063q-.005,6.785,0,13.57a2.776,2.776,0,0,0,3.093,3.07q8.581,0,17.162,0a4.825,4.825,0,0,1,3.284,1.217l2.411,2.1m12.367,29.251c0-3.418-.005-6.759.006-10.1,0-.517-.29-.554-.687-.553-2.147.008-4.3.024-6.442-.009-.612-.009-.737.225-.733.78.021,3.1.01,6.2.012,9.3,0,.191.024.382.037.583ZM2121.87,66.819a3.763,3.763,0,0,0-4.767-.828q-3.012,1.748-6.024,3.5c-.156.091-.3.2-.575.4,2.046,0,3.924,0,5.8,0a.671.671,0,0,0,.317-.072c1.747-.991,3.49-1.988,5.245-2.99" transform="translate(-618.64 701.281)" fill="#003149"/>
    <path id="Path_1148" data-name="Path 1148" d="M2195.4,335.294a3.842,3.842,0,0,1-2.8,2.823,4.022,4.022,0,0,1-.918.1q-28.042.007-56.084,0a3.57,3.57,0,0,1-3.672-3.578c-.025-4.856-.013-9.713-.008-14.57,0-.72.4-1.149,1.008-1.139s.991.451.991,1.166q.007,7.019,0,14.038c0,1.479.612,2.09,2.1,2.09H2191.3c1.471,0,2.1-.629,2.1-2.1q0-12.374,0-24.749c0-1.508-.588-2.1-2.088-2.109-1.951-.006-3.9,0-5.854,0-.2,0-.4.006-.6-.01a1.027,1.027,0,0,1-1.026-1,1.01,1.01,0,0,1,1.033-1.006c2.395-.015,4.793-.076,7.184.029a3.43,3.43,0,0,1,3.112,2.343c.073.18.155.357.233.535Z" transform="translate(-648.805 472.996)" fill="#fd8800"/>
    <path id="Path_1149" data-name="Path 1149" d="M2138.833,307.373c-1,0-1.994-.011-2.991,0a1.713,1.713,0,0,0-1.94,1.972c0,1.795,0,3.589,0,5.384,0,.779-.36,1.225-.98,1.241-.654.017-1.021-.422-1.023-1.256,0-1.861-.014-3.722,0-5.583a3.652,3.652,0,0,1,3.819-3.79q3.124-.013,6.248,0c.763,0,1.244.48,1.175,1.121a1,1,0,0,1-1.117.9c-1.063.018-2.127,0-3.19,0Z" transform="translate(-648.788 472.886)" fill="#fd8800"/>
    <path id="Path_1150" data-name="Path 1150" d="M2138.313,77.492a7.79,7.79,0,0,1,4.924,1.846c1.737,1.412,3.444,2.861,5.156,4.3.792.667.782,1.258,0,1.915-1.684,1.407-3.358,2.827-5.059,4.212a8.224,8.224,0,0,1-10.583.055c-1.766-1.412-3.48-2.887-5.21-4.344a1,1,0,0,1-.04-1.734c1.811-1.531,3.622-3.064,5.47-4.549a8.06,8.06,0,0,1,5.346-1.7m8.124,7.106c-1.78-1.44-3.411-2.874-5.163-4.14a5.579,5.579,0,0,0-4.383-.844,6.024,6.024,0,0,0-2.809,1.27c-1.484,1.217-2.949,2.456-4.458,3.715,1.589,1.316,3.054,2.644,4.636,3.814a5.778,5.778,0,0,0,6.9.358,60.96,60.96,0,0,0,5.275-4.174" transform="translate(-644.564 670.354)" fill="#fd8800"/>
    <path id="Path_1151" data-name="Path 1151" d="M2184.68,109.117a3.3,3.3,0,1,1,3.253,3.32,3.324,3.324,0,0,1-3.253-3.32m3.316,1.3a1.287,1.287,0,0,0,1.251-1.291,1.272,1.272,0,1,0-2.543.037,1.3,1.3,0,0,0,1.292,1.254" transform="translate(-694.54 645.816)" fill="#fd8800"/>
  </g>
</svg>
