<svg xmlns="http://www.w3.org/2000/svg" width="64.487" height="68.408" viewBox="0 0 64.487 68.408">
  <g id="Group_5483" data-name="Group 5483" transform="translate(-1402.791 -740.552)">
    <path id="Path_1141" data-name="Path 1141" d="M1594,23.969a1.749,1.749,0,0,0-.266-.777c-.059-.112-.114-.217-.158-.322l-.034-.083h-63.485l-.034.024a1.4,1.4,0,0,0-.491,1.321v.1q0,17.679,0,35.357V65.6c0,.1,0,.194,0,.29.028.783.329,1.075,1.109,1.078q1.9.007,3.809,0h2.087V84.541h-.464c-.429,0-.84,0-1.251,0-.858,0-1.134.272-1.137,1.1-.006,1.463-.006,2.963,0,4.459,0,.808.284,1.094,1.074,1.095l6.382,0,6.393,0c.761,0,1.06-.292,1.064-1.038,0-.818,0-1.635,0-2.453,0-.713,0-1.426,0-2.138a1.034,1.034,0,0,0-.258-.778,1,1,0,0,0-.764-.247c-.456.007-.92.006-1.368,0h-.463V67.007h32.053V84.541h-1.9a.858.858,0,0,0-.953.949v.319c0,1.466,0,2.981,0,4.472a.837.837,0,0,0,.922.911q6.521,0,13.041,0a.86.86,0,0,0,.948-.957q0-1.606,0-3.212V85.512a.981.981,0,0,0-.25-.726,1.008,1.008,0,0,0-.752-.246c-.457.005-.925,0-1.378,0h-.477V66.969h1.607c1.4,0,2.777,0,4.158,0,.965,0,1.244-.274,1.244-1.216,0-13.694.005-27.855-.016-41.783m-17.25,62.393h11.324v3.024h-11.324Zm-41.259,0h11.324v3.024H1535.49ZM1538.4,67h5.509V84.487H1538.4Zm41.247.023h5.511V84.51h-5.511Zm12.567-1.89h-60.9V24.6h60.9Z" transform="translate(-126.739 717.765)" fill="#003149"/>
    <path id="Path_1142" data-name="Path 1142" d="M1565.818,92.542h52.361c1.187,0,1.4-.21,1.4-1.4q0-16.033,0-32.067c0-1.222-.181-1.406-1.381-1.406h-52.361c-1.308,0-1.458.15-1.458,1.461q0,6.119,0,12.238v8.708q0,5.492,0,10.983c0,1.318.162,1.485,1.444,1.485m5.744-1.809h-.716V87.019h.716Zm1.557-16.9c-.039.07-.078.138-.114.2-.015.027-.1.115-.637.146-.378.022-.766.017-1.178.013l-.36,0,1.8-3.823c.089.177.179.35.268.518a6.237,6.237,0,0,1,.679,1.63,2.316,2.316,0,0,1-.457,1.314m8.372.33h-6.528l3.26-6.919Zm4.607.027-.536,0c-.625,0-1.271.009-1.9-.024-.079,0-.26-.18-.352-.373-1.176-2.46-2.36-4.967-3.5-7.391l-.56-1.185c-.02-.041-.038-.083-.057-.125-.172-.38-.368-.811-.946-.822-.6-.008-.808.449-.978.818l-.047.1c-.639,1.356-1.28,2.711-1.95,4.128l-.577,1.22c-.089-.192-.175-.379-.259-.562-.286-.624-.556-1.213-.869-1.771-.177-.316-.583-.757-.938-.757h-.006c-.362,0-.776.454-.936.777-1,2.011-1.919,4.008-2.611,5.522a.636.636,0,0,1-.724.453c-.308-.017-.613-.022-.922-.022-.221,0-.445,0-.674.005l-.563.005V59.475h19.91Zm-16.313,10.673c.2-.36.394-.7.6-1.026a1.037,1.037,0,0,1,.781-.226,1.144,1.144,0,0,1,.855.268c.2.316.381.645.577.994l.167.3h-3.156l.172-.306m7.384,4.788a2.1,2.1,0,0,0,.773-.838,1.384,1.384,0,0,1,1.24-.927,1.254,1.254,0,0,1,1.319.863,1.1,1.1,0,0,0,1.117.768,1.226,1.226,0,0,1,1.289,1.221h-6.5a1.3,1.3,0,0,1,.757-1.087m-.645-2a2.424,2.424,0,0,1-.619.67,3.476,3.476,0,0,0-1.378,2.422h-1.081V86.984l.161,0c.205,0,.4,0,.595,0a1.052,1.052,0,0,0,.92-.45,1,1,0,0,0-.084-1c-.252-.468-.517-.922-.8-1.4l-.271-.465h.02c.13-.006.233-.01.336-.021a1.007,1.007,0,0,0,.824-.487.855.855,0,0,0-.052-.826c-1.053-1.893-2.114-3.733-3.152-5.469a.83.83,0,0,0-.708-.452h0a1.156,1.156,0,0,0-.932.662c-.611,1.044-1.224,2.109-1.817,3.139l-.709,1.23-.113.194c-.1.163-.194.331-.285.5a1.1,1.1,0,0,0-.134,1.055,1.137,1.137,0,0,0,.989.461c.051,0,.1.009.177.017l-.249.434c-.222.387-.436.759-.65,1.131-.349.606-.435,1.024-.271,1.315s.565.431,1.26.443c.113,0,.227.009.352.017l.075,0v3.716h-2.74V76.059H1586.1v14.65h-1.232c-.054-.136-.106-.273-.158-.411a9.141,9.141,0,0,0-.516-1.191,1.648,1.648,0,0,0-.879-.836,3.574,3.574,0,0,1-1.626-1.027,3.9,3.9,0,0,0-1.643-1.057,3.184,3.184,0,0,0-3.527,1.46m-3.747-5.814h-3.163l1.573-2.735ZM1588,59.469h29.761V90.727H1588Z" transform="translate(-156.938 687.535)" fill="#fd8800"/>
    <path id="Path_1143" data-name="Path 1143" d="M1804.265,102.228a.722.722,0,0,1,.278.485c.031,1,.024,2.012.016,2.994l0,.26a.911.911,0,0,0,.986,1.007c.3.009.612.012.917.012.269,0,.537,0,.8,0l.282,0c.921-.007,1.25-.331,1.256-1.238,0-.684,0-1.366,0-2.088,0-.263,0-.531,0-.805l.87.343c.962.38,1.87.738,2.791,1.089a2.713,2.713,0,0,0,.872.178c.68.02,1.37.014,2.038.007l.229,0c.8-.007,1.085-.291,1.087-1.086.006-2.765.006-5.541,0-8.248,0-.791-.275-1.07-1.083-1.1a7.9,7.9,0,0,0-4.515.738,2.017,2.017,0,0,1-.374.151,2.673,2.673,0,0,0-.357.137,9.658,9.658,0,0,1-5.181,1.054,1.606,1.606,0,0,0-1.238.384,1.819,1.819,0,0,0-.551,1.337c-.021.951-.012,1.9,0,2.864a1.762,1.762,0,0,0,.879,1.54m2.678,2.879h-.592v-2.621h.592Zm-1.686-7.181h1.7v2.646h-1.7Zm8.813-2.082h.822v6.832h-.822Zm-5.251,2.03a.587.587,0,0,1,.282-.387c.786-.336,1.575-.645,2.409-.972l.662-.26v5.985l-.594-.231c-.914-.354-1.777-.689-2.642-1.046a.5.5,0,0,1-.123-.311c-.018-.889-.029-1.84.007-2.779" transform="translate(-364.072 656.05)" fill="#fd8800"/>
    <path id="Path_1144" data-name="Path 1144" d="M1792.765,235.457h-18.557c-.055,0-.114-.006-.173-.011a.731.731,0,0,0-.49.061l-.015.01c-.3.209-.682.47-.754.8a.688.688,0,0,0,.105.554,1.04,1.04,0,0,0,.722.389,1.931,1.931,0,0,0,.26.015l.147,0,.142,0h18.624a1.693,1.693,0,0,0,1.217-.335.781.781,0,0,0,.216-.578c-.006-.9-1.089-.9-1.445-.9" transform="translate(-337.539 533.47)" fill="#fd8800"/>
    <path id="Path_1145" data-name="Path 1145" d="M1774.025,204.01h18.62c.06,0,.124.006.188.011s.145.013.216.013a.548.548,0,0,0,.324-.083c.3-.212.659-.529.653-.834s-.346-.574-.677-.811a.72.72,0,0,0-.491-.063c-.059.006-.118.011-.173.011H1774c-.639,0-1.375.1-1.4.853a.752.752,0,0,0,.2.571,1.675,1.675,0,0,0,1.228.332" transform="translate(-337.399 562.246)" fill="#fd8800"/>
    <path id="Path_1146" data-name="Path 1146" d="M1793.432,269.22a.82.82,0,0,0-.545-.074c-.063.005-.125.01-.183.01h-18.686a1.646,1.646,0,0,0-1.22.336.753.753,0,0,0-.193.579c.035.74.732.84,1.41.84q9.343,0,18.686,0c.057,0,.119,0,.181.01s.14.01.208.01a.574.574,0,0,0,.339-.085c.143-.1.609-.457.608-.809s-.463-.714-.6-.816" transform="translate(-337.403 504.261)" fill="#fd8800"/>
  </g>
</svg>
